<?xml version="1.0" standalone="no"?>
<!DOCTYPE svg PUBLIC "-//W3C//DTD SVG 1.1//EN" "http://www.w3.org/Graphics/SVG/1.1/DTD/svg11.dtd" >
<svg>
<metadata>
Created by FontForge 20090914 at Fri Nov 30 12:35:42 2012
 By www-data
&#194;&#169; 2006 Microsoft Corporation. All Rights Reserved.
</metadata>
<defs>
<font id="SegoeUI-Bold" horiz-adv-x="0" >
  <font-face 
    font-family="Segoe UI"
    font-weight="700"
    font-stretch="normal"
    units-per-em="2048"
    panose-1="2 11 8 2 4 2 4 2 2 3"
    ascent="1638"
    descent="-410"
    x-height="1024"
    cap-height="1434"
    bbox="-794 -514 3646 2188"
    underline-thickness="119"
    underline-position="-119"
    unicode-range="U+000D-U+FEFF"
  />
<missing-glyph horiz-adv-x="1322" 
d="M166 0v1398h990v-1398h-990zM314 148h694v1102h-694v-1102z" />
    <glyph glyph-name="uniFDF2" unicode="&#x627;&#xfedf;&#xfee0;&#xfeea;" horiz-adv-x="2555" arabic-form="isolated" 
d="M1531 1590c0 -44.667 -13.668 -80.666 -41.001 -107.999c-28.667 -30 -69 -45 -121 -45c-51.333 0 -86.333 14.333 -105 43c-23.333 -53.333 -68.666 -80 -135.999 -80c-100 0 -150 41.667 -150 125c0 19.333 1.66699 45.333 5 78h84
c-3.33301 -22.667 -5 -47.334 -5 -74.001c0 -39.333 22 -59 66 -59c56 0 84 38 84 114v52h83v-43c0 -58 24.667 -87 74 -87c52 0 78 28 78 84c0 36 -2.33301 61.333 -7 76h86c3.33301 -20 5 -45.333 5 -76zM1885 300.001c0 -96 -32.165 -172.666 -96.498 -229.999
s-148.833 -86 -253.5 -86c-118 0 -209.667 35 -275 105c-65.333 -70 -157.333 -105 -276 -105c-121.333 0 -210 46.333 -266 139c-42.667 69.333 -64 159.333 -64 270c-27.333 -36.667 -67 -67.334 -119 -92.001s-103.667 -37 -155 -37c-94.667 0 -168.667 29.333 -222 88
c-48 52.667 -72 119.667 -72 201c0 116 62 216.333 186 301c106 72 233.333 119.667 382 143v72h157v-695c0 -56.667 13.333 -103.667 40 -141c30 -43.333 74.333 -65 133 -65c61.333 0 110.666 21.333 147.999 64c32.667 38.667 49 86 49 142v910h157v-910
c0 -56 16 -103.333 48 -142c35.333 -42.667 83.666 -64 144.999 -64c62 0 111.333 21.333 148 64c32.667 38.667 49 86 49 142v910h157v-984zM654.001 569.002l0.000976562 293.001c-108 -18.667 -199.333 -51.334 -274 -98.001c-90.667 -57.333 -136 -127 -136 -209
c0 -79.333 45.333 -119 136 -119c115.333 0 206.666 44.333 273.999 133zM1212 1724v164h83v-164h-83zM2346 0.00292969h-157v1556h157v-1556z" />
    <glyph glyph-name="uniFDFC" unicode="&#x631;&#xfef3;&#xfe8e;&#x644;" horiz-adv-x="2992" arabic-form="isolated" 
d="M1156 248c0 -302 -182 -453 -546 -453c-196 0 -338.5 35.5 -427.5 106.5s-133.5 183.167 -133.5 336.5c0 82 8 165.667 24 251h166v-10c-22 -75.333 -33 -155 -33 -239c0 -96 30.667 -162.667 92 -200s166 -56 314 -56c256.667 0 385 92 385 276v1296h159v-1308zM1775 0
c-114 0 -202.667 29.168 -266 87.501s-95 139.833 -95 244.5v1224h157v-1212c0 -56.667 15.333 -96.834 46 -120.501s81.667 -35.5 153 -35.5h5v-188zM2242 270.001c0 -82 -35.333 -147.5 -106 -196.5s-166.667 -73.5 -288 -73.5h-108c-39.333 0 -73.833 17 -103.5 51
s-44.5 79.667 -44.5 137h246c164 0 246 52 246 156v373h158v-447zM1761 -291.999h-176v147h176v-147zM1437 -291.999h-177v147h177v-147zM2743 516.001c84 -109.333 126 -219.334 126 -330.001c0 -199.333 -90.833 -350.833 -272.5 -454.5s-414.5 -155.5 -698.5 -155.5v188
c244 0 440.667 33.333 590 100s224 163.334 224 290.001c0 109.333 -66.333 226 -199 350v12h230z" />
    <glyph glyph-name="uniFEF5" unicode="&#xfedf;&#xfe82;" horiz-adv-x="1339" arabic-form="isolated" 
d="M1184 0l-836.999 -0.00195312v188c214 128 383.667 299.333 509 514c-148 222.667 -428.667 482.334 -842 779.001h330c251.333 -205.333 448.666 -409.666 591.999 -612.999c60.667 152 91 312 91 480v208h157v-208c0 -222 -50.667 -433 -152 -633
c101.333 -184 152 -371.667 152 -563v-152zM1027 187.998c0 120.667 -29.667 243 -89 367c-102 -152 -222.333 -274.333 -361 -367h450zM460.001 1636c-40.667 -26 -85 -39 -133 -39c-20 0 -54.333 7.5 -103 22.5s-83.334 22.5 -104.001 22.5
c-28.667 0 -72.667 -15 -132 -45v74c48 27.333 92 41 132 41c20.667 0 55.334 -7.5 104.001 -22.5s83 -22.5 103 -22.5c40.667 0 85 14.333 133 43v-74z" />
    <glyph glyph-name="uniFEF6" unicode="&#xfee0;&#xfe82;" horiz-adv-x="1463" arabic-form="final" 
d="M1463 0c-114.667 0 -203.503 29.168 -266.503 87.501s-94.5 139.833 -94.5 244.5v282c-39.333 -39.333 -68.333 -72.666 -87 -99.999c-16.667 -62 -69.167 -147.333 -157.5 -256s-175.833 -194.667 -262.5 -258h-297c136.667 80.667 265.334 183.167 386.001 307.5
s181 216.5 181 276.5c0 99.333 -73.167 231.666 -219.5 396.999s-340.166 332 -581.499 500h339c363.333 -335.333 567.333 -617.333 612 -846c58 55.333 87 98.333 87 129v792h157v-1212c0 -56.667 15.333 -96.834 46 -120.501s81.334 -35.5 152.001 -35.5h6v-188z
M508.997 1636c-40.667 -26 -85 -39 -133 -39c-20 0 -54.333 7.5 -103 22.5s-83.334 22.5 -104.001 22.5c-28.667 0 -72.667 -15 -132 -45v74c48 27.333 92 41 132 41c20.667 0 55.334 -7.5 104.001 -22.5s83 -22.5 103 -22.5c40.667 0 85 14.333 133 43v-74z" />
    <glyph glyph-name="uniFEF7" unicode="&#xfedf;&#xfe84;" horiz-adv-x="1339" arabic-form="isolated" 
d="M1184 0l-836.999 -0.00195312v188c214 128 383.667 299.333 509 514c-148 222.667 -428.667 482.334 -842 779.001h330c251.333 -205.333 448.666 -409.666 591.999 -612.999c60.667 152 91 312 91 480v208h157v-208c0 -222 -50.667 -433 -152 -633
c101.333 -184 152 -371.667 152 -563v-152zM1027 187.998c0 120.667 -29.667 243 -89 367c-102 -152 -222.333 -274.333 -361 -367h450zM337.001 1610h-301.999v70h67c-34.667 16 -52 41.667 -52 77c0 34 14.667 62.667 44 86s67.333 35 114 35c44 0 78.333 -4 103 -12v-74
c-28.667 11.333 -62.334 17 -101.001 17c-52.667 0 -79 -17.333 -79 -52c0 -21.333 13.5 -39.5 40.5 -54.5s60.167 -22.5 99.5 -22.5h66v-70z" />
    <glyph glyph-name="uniFEF8" unicode="&#xfee0;&#xfe84;" horiz-adv-x="1463" arabic-form="final" 
d="M1463 0c-114.667 0 -203.503 29.168 -266.503 87.501s-94.5 139.833 -94.5 244.5v282c-39.333 -39.333 -68.333 -72.666 -87 -99.999c-16.667 -62 -69.167 -147.333 -157.5 -256s-175.833 -194.667 -262.5 -258h-297c136.667 80.667 265.334 183.167 386.001 307.5
s181 216.5 181 276.5c0 99.333 -73.167 231.666 -219.5 396.999s-340.166 332 -581.499 500h339c363.333 -335.333 567.333 -617.333 612 -846c58 55.333 87 98.333 87 129v792h157v-1212c0 -56.667 15.333 -96.834 46 -120.501s81.334 -35.5 152.001 -35.5h6v-188z
M385.997 1610h-301.999v70h67c-34.667 16 -52 41.667 -52 77c0 34 14.667 62.667 44 86s67.333 35 114 35c44 0 78.333 -4 103 -12v-74c-28.667 11.333 -62.334 17 -101.001 17c-52.667 0 -79 -17.333 -79 -52c0 -21.333 13.5 -39.5 40.5 -54.5s60.167 -22.5 99.5 -22.5h66
v-70z" />
    <glyph glyph-name="uniFEF9" unicode="&#xfedf;&#xfe88;" horiz-adv-x="1339" arabic-form="isolated" 
d="M1184 0l-836.999 -0.00195312v188c214 128 383.667 299.333 509 514c-148 222.667 -428.667 482.334 -842 779.001h330c251.333 -205.333 448.666 -409.666 591.999 -612.999c60.667 152 91 312 91 480v208h157v-208c0 -222 -50.667 -433 -152 -633
c101.333 -184 152 -371.667 152 -563v-152zM1027 187.998c0 120.667 -29.667 243 -89 367c-102 -152 -222.333 -274.333 -361 -367h450zM386.001 -362.002h-301.999v70h67c-34.667 16 -52 41.667 -52 77c0 34 14.667 62.667 44 86s67.333 35 114 35c44 0 78.333 -4 103 -12
v-74c-28.667 11.333 -62.334 17 -101.001 17c-52.667 0 -79 -17.333 -79 -52c0 -21.333 13.5 -39.5 40.5 -54.5s60.167 -22.5 99.5 -22.5h66v-70z" />
    <glyph glyph-name="uniFEFA" unicode="&#xfee0;&#xfe88;" horiz-adv-x="1463" arabic-form="final" 
d="M1463 0c-114.667 0 -203.503 29.168 -266.503 87.501s-94.5 139.833 -94.5 244.5v282c-39.333 -39.333 -68.333 -72.666 -87 -99.999c-16.667 -62 -69.167 -147.333 -157.5 -256s-175.833 -194.667 -262.5 -258h-297c136.667 80.667 265.334 183.167 386.001 307.5
s181 216.5 181 276.5c0 99.333 -73.167 231.666 -219.5 396.999s-340.166 332 -581.499 500h339c363.333 -335.333 567.333 -617.333 612 -846c58 55.333 87 98.333 87 129v792h157v-1212c0 -56.667 15.333 -96.834 46 -120.501s81.334 -35.5 152.001 -35.5h6v-188z
M385.997 -361.999h-301.999v70h67c-34.667 16 -52 41.667 -52 77c0 34 14.667 62.667 44 86s67.333 35 114 35c44 0 78.333 -4 103 -12v-74c-28.667 11.333 -62.334 17 -101.001 17c-52.667 0 -79 -17.333 -79 -52c0 -21.333 13.5 -39.5 40.5 -54.5s60.167 -22.5 99.5 -22.5
h66v-70z" />
    <glyph glyph-name="uniFEFB" unicode="&#xfedf;&#xfe8e;" horiz-adv-x="1339" arabic-form="isolated" 
d="M1184 0l-836.999 -0.00195312v188c214 128 383.667 299.333 509 514c-148 222.667 -428.667 482.334 -842 779.001h330c251.333 -205.333 448.666 -409.666 591.999 -612.999c60.667 152 91 312 91 480v208h157v-208c0 -222 -50.667 -433 -152 -633
c101.333 -184 152 -371.667 152 -563v-152zM1027 187.998c0 120.667 -29.667 243 -89 367c-102 -152 -222.333 -274.333 -361 -367h450z" />
    <glyph glyph-name="uniFEFC" unicode="&#xfee0;&#xfe8e;" horiz-adv-x="1463" arabic-form="final" 
d="M1463 0c-114.667 0 -203.503 29.168 -266.503 87.501s-94.5 139.833 -94.5 244.5v282c-39.333 -39.333 -68.333 -72.666 -87 -99.999c-16.667 -62 -69.167 -147.333 -157.5 -256s-175.833 -194.667 -262.5 -258h-297c136.667 80.667 265.334 183.167 386.001 307.5
s181 216.5 181 276.5c0 99.333 -73.167 231.666 -219.5 396.999s-340.166 332 -581.499 500h339c363.333 -335.333 567.333 -617.333 612 -846c58 55.333 87 98.333 87 129v792h157v-1212c0 -56.667 15.333 -96.834 46 -120.501s81.334 -35.5 152.001 -35.5h6v-188z" />
    <glyph glyph-name="allah" unicode="&#xfedf;&#xfee0;&#x6c1;" horiz-adv-x="1984" 
d="M1531 1590c0 -44.667 -13.668 -80.666 -41.001 -107.999c-28.667 -30 -69 -45 -121 -45c-51.333 0 -86.333 14.333 -105 43c-23.333 -53.333 -68.666 -80 -135.999 -80c-100 0 -150 41.667 -150 125c0 19.333 1.66699 45.333 5 78h84
c-3.33301 -22.667 -5 -47.334 -5 -74.001c0 -39.333 22 -59 66 -59c56 0 84 38 84 114v52h83v-43c0 -58 24.667 -87 74 -87c52 0 78 28 78 84c0 36 -2.33301 61.333 -7 76h86c3.33301 -20 5 -45.333 5 -76zM1885 300.001c0 -96 -32.165 -172.666 -96.498 -229.999
s-148.833 -86 -253.5 -86c-118 0 -209.667 35 -275 105c-65.333 -70 -157.333 -105 -276 -105c-121.333 0 -210 46.333 -266 139c-42.667 69.333 -64 159.333 -64 270c-27.333 -36.667 -67 -67.334 -119 -92.001s-103.667 -37 -155 -37c-94.667 0 -168.667 29.333 -222 88
c-48 52.667 -72 119.667 -72 201c0 116 62 216.333 186 301c106 72 233.333 119.667 382 143v72h157v-695c0 -56.667 13.333 -103.667 40 -141c30 -43.333 74.333 -65 133 -65c61.333 0 110.666 21.333 147.999 64c32.667 38.667 49 86 49 142v910h157v-910
c0 -56 16 -103.333 48 -142c35.333 -42.667 83.666 -64 144.999 -64c62 0 111.333 21.333 148 64c32.667 38.667 49 86 49 142v910h157v-984zM654.001 569.002l0.000976562 293.001c-108 -18.667 -199.333 -51.334 -274 -98.001c-90.667 -57.333 -136 -127 -136 -209
c0 -79.333 45.333 -119 136 -119c115.333 0 206.666 44.333 273.999 133zM1212 1724v164h83v-164h-83z" />
    <glyph glyph-name="uni06440671.isol" unicode="&#xfedf;&#xfb51;" horiz-adv-x="1339" 
d="M1184 0l-836.999 -0.00195312v188c214 128 383.667 299.333 509 514c-148 222.667 -428.667 482.334 -842 779.001h330c251.333 -205.333 448.666 -409.666 591.999 -612.999c60.667 152 91 312 91 480v208h157v-208c0 -222 -50.667 -433 -152 -633
c101.333 -184 152 -371.667 152 -563v-152zM1027 187.998c0 120.667 -29.667 243 -89 367c-102 -152 -222.333 -274.333 -361 -367h450zM443.001 1732c0 -46 -23.665 -83.667 -70.998 -113c-42.667 -26 -89.334 -39 -140.001 -39c-25.333 0 -59 6.83301 -101 20.5
s-74 20.5 -96 20.5c-24 0 -57.667 -14 -101 -42v70c42.667 28 76.667 42 102 42c20.667 0 44.667 -3.33301 72 -10c12 49.333 36.167 89.5 72.5 120.5s78.166 46.5 125.499 46.5c91.333 0 137 -38.667 137 -116zM359.003 1732c0 30.667 -17.666 46 -52.999 46
c-28.667 0 -54.667 -13.333 -78 -40c-20.667 -24 -34.334 -51.333 -41.001 -82c16 -4 31 -6 45 -6c36 0 66.167 8.5 90.5 25.5s36.5 35.833 36.5 56.5z" />
    <glyph glyph-name="uni06440671.fina" unicode="&#xfee0;&#xfb51;" horiz-adv-x="1463" 
d="M1463 0c-114.667 0 -203.503 29.168 -266.503 87.501s-94.5 139.833 -94.5 244.5v282c-39.333 -39.333 -68.333 -72.666 -87 -99.999c-16.667 -62 -69.167 -147.333 -157.5 -256s-175.833 -194.667 -262.5 -258h-297c136.667 80.667 265.334 183.167 386.001 307.5
s181 216.5 181 276.5c0 99.333 -73.167 231.666 -219.5 396.999s-340.166 332 -581.499 500h339c363.333 -335.333 567.333 -617.333 612 -846c58 55.333 87 98.333 87 129v792h157v-1212c0 -56.667 15.333 -96.834 46 -120.501s81.334 -35.5 152.001 -35.5h6v-188z
M490.997 1732c0 -46 -23.665 -83.667 -70.998 -113c-42.667 -26 -89.334 -39 -140.001 -39c-25.333 0 -59 6.83301 -101 20.5s-74 20.5 -96 20.5c-24 0 -57.667 -14 -101 -42v70c42.667 28 76.667 42 102 42c20.667 0 44.667 -3.33301 72 -10
c12 49.333 36.167 89.5 72.5 120.5s78.166 46.5 125.499 46.5c91.333 0 137 -38.667 137 -116zM406.999 1732c0 30.667 -17.666 46 -52.999 46c-28.667 0 -54.667 -13.333 -78 -40c-20.667 -24 -34.334 -51.333 -41.001 -82c16 -4 31 -6 45 -6c36 0 66.167 8.5 90.5 25.5
s36.5 35.833 36.5 56.5z" />
    <glyph glyph-name="uni0621" unicode="&#x621;" horiz-adv-x="1013" arabic-form="isolated" 
d="M872 174l-654.001 -168v187l188 47c-70.667 14 -128.667 42.5 -174 85.5s-68 90.833 -68 143.5c0 92.667 34.333 166.334 103 221.001s156.334 82 263.001 82c95.333 0 179 -6 251 -18v-187h-14c-72 15.333 -147.333 23 -226 23c-146 0 -219 -46.333 -219 -139
c0 -60.667 42 -103.834 126 -129.501s141 -34.5 171 -26.5l253 65v-186z" />
    <glyph glyph-name="uni0622" unicode="&#x622;" horiz-adv-x="575" arabic-form="isolated" 
d="M366 0h-157v1556h157v-1556zM519 1676c-40.667 -26 -85 -39 -133 -39c-20 0 -54.333 7.5 -103 22.5s-83.334 22.5 -104.001 22.5c-28.667 0 -72.667 -15 -132 -45v74c48 27.333 92 41 132 41c20.667 0 55.334 -7.5 104.001 -22.5s83 -22.5 103 -22.5
c40.667 0 85 14.333 133 43v-74z" />
    <glyph glyph-name="uni0623" unicode="&#x623;" horiz-adv-x="575" arabic-form="isolated" 
d="M366 0h-157v1556h157v-1556zM438 1610h-301.999v70h67c-34.667 16 -52 41.667 -52 77c0 34 14.667 62.667 44 86s67.333 35 114 35c44 0 78.333 -4 103 -12v-74c-28.667 11.333 -62.334 17 -101.001 17c-52.667 0 -79 -17.333 -79 -52c0 -21.333 13.5 -39.5 40.5 -54.5
s60.167 -22.5 99.5 -22.5h66v-70z" />
    <glyph glyph-name="uni0624" unicode="&#x624;" horiz-adv-x="1042" arabic-form="final" 
d="M788 154c-32.667 -27.333 -76.668 -40.999 -132.001 -40.999c-88 0 -163.5 28.333 -226.5 85s-94.5 134 -94.5 232c0 100.667 31.833 188.334 95.5 263.001s128.834 112 195.501 112c84 0 157.833 -54.833 221.5 -164.5s95.5 -257.5 95.5 -443.5
c0 -202.667 -80.167 -356.834 -240.5 -462.501s-394.5 -158.5 -702.5 -158.5v188c260 0 456.333 33.667 589 101s199 163.666 199 288.999zM773.999 340.001c0 62 -16.833 123.498 -50.5 184.498s-66.834 91.5 -99.501 91.5c-31.333 0 -61.166 -19.167 -89.499 -57.5
s-42.5 -79.166 -42.5 -122.499c0 -39.333 15.833 -71.666 47.5 -96.999s72.167 -38 121.5 -38c52 0 89.667 13 113 39zM756.999 978.999h-301.999v70h67c-34.667 16 -52 41.667 -52 77c0 34 14.667 62.667 44 86s67.333 35 114 35c44 0 78.333 -4 103 -12v-74
c-28.667 11.333 -62.334 17 -101.001 17c-52.667 0 -79 -17.333 -79 -52c0 -21.333 13.5 -39.5 40.5 -54.5s60.167 -22.5 99.5 -22.5h66v-70z" />
    <glyph glyph-name="uni0625" unicode="&#x625;" horiz-adv-x="575" arabic-form="isolated" 
d="M366 0h-157v1556h157v-1556zM438 -362h-301.999v70h67c-34.667 16 -52 41.667 -52 77c0 34 14.667 62.667 44 86s67.333 35 114 35c44 0 78.333 -4 103 -12v-74c-28.667 11.333 -62.334 17 -101.001 17c-52.667 0 -79 -17.333 -79 -52c0 -21.333 13.5 -39.5 40.5 -54.5
s60.167 -22.5 99.5 -22.5h66v-70z" />
    <glyph glyph-name="uni0626" unicode="&#x626;" horiz-adv-x="1573" arabic-form="isolated" 
d="M1487 866l-11.9971 -0.00195312c-120 58.667 -248 88 -384 88c-66 0 -120.5 -12 -163.5 -36s-64.5 -53 -64.5 -87c0 -29.333 15.167 -57.166 45.5 -83.499s110.5 -67 240.5 -122s217.167 -103.167 261.5 -144.5s66.5 -90.333 66.5 -147
c0 -107.333 -71 -189.833 -213 -247.5s-352 -86.5 -630 -86.5c-398 0 -597 147.333 -597 442c0 66 8 150 24 252h160v-10c-18 -90 -27 -170 -27 -240c0 -88.667 35 -153.5 105 -194.5s182.333 -61.5 337 -61.5c221.333 0 390.666 14 507.999 42s176 64 176 108
c0 28 -18.833 55.167 -56.5 81.5s-115.834 63.5 -234.501 111.5s-202.167 95.833 -250.5 143.5s-72.5 100.834 -72.5 159.501c0 81.333 37.5 152.5 112.5 213.5s173.5 91.5 295.5 91.5c133.333 0 257.666 -20 372.999 -60v-213zM492.003 865.998h-301.999v70h67
c-34.667 16 -52 41.667 -52 77c0 34 14.667 62.667 44 86s67.333 35 114 35c44 0 78.333 -4 103 -12v-74c-28.667 11.333 -62.334 17 -101.001 17c-52.667 0 -79 -17.333 -79 -52c0 -21.333 13.5 -39.5 40.5 -54.5s60.167 -22.5 99.5 -22.5h66v-70z" />
    <glyph glyph-name="uni0627" unicode="&#x627;" horiz-adv-x="575" arabic-form="isolated" 
d="M366 0h-157v1556h157v-1556z" />
    <glyph glyph-name="uni0628" unicode="&#x628;" horiz-adv-x="1757" arabic-form="final" 
d="M1658 291c0 -93.333 -48.168 -165.167 -144.501 -215.5s-238.166 -75.5 -425.499 -75.5h-392c-400 0 -600 159 -600 477c0 76 12.333 156 37 240h157v-10c-24.667 -74 -37 -146.667 -37 -218c0 -106.667 34.833 -183.5 104.5 -230.5s183.167 -70.5 340.5 -70.5h381
c136 0 240.333 13 313 39s109 72 109 138v352h157v-426zM1052 -293.001h-177v147h177v-147z" />
    <glyph glyph-name="uni0629" unicode="&#x629;" horiz-adv-x="762" arabic-form="isolated" 
d="M136 930c172.667 -8.66699 312.001 -67.499 418.001 -176.499s159 -229.167 159 -360.5c0 -122.667 -30.167 -220.834 -90.5 -294.501s-136.5 -110.5 -228.5 -110.5c-98.667 0 -176.834 33.333 -234.501 100s-86.5 161.667 -86.5 285c0 132 53.667 257.667 161 377
c-29.333 6.66699 -62 10 -98 10v170zM556.001 393.001c0 135.333 -65.666 239.999 -196.999 313.999c-84.667 -91.333 -127 -202.666 -127 -333.999c0 -63.333 14.667 -112 44 -146s68.666 -51 117.999 -51c108 0 162 72.333 162 217zM632.002 1104h-176v147h176v-147z
M308.002 1104h-177v147h177v-147z" />
    <glyph glyph-name="uni062A" unicode="&#x62a;" horiz-adv-x="1757" arabic-form="final" 
d="M1658 291c0 -93.333 -48.168 -165.167 -144.501 -215.5s-238.166 -75.5 -425.499 -75.5h-392c-400 0 -600 159 -600 477c0 76 12.333 156 37 240h157v-10c-24.667 -74 -37 -146.667 -37 -218c0 -106.667 34.833 -183.5 104.5 -230.5s183.167 -70.5 340.5 -70.5h381
c136 0 240.333 13 313 39s109 72 109 138v352h157v-426zM1165 814.999h-176v147h176v-147zM840.999 814.999h-177v147h177v-147z" />
    <glyph glyph-name="uni062B" unicode="&#x62b;" horiz-adv-x="1757" arabic-form="final" 
d="M1658 291c0 -93.333 -48.168 -165.167 -144.501 -215.5s-238.166 -75.5 -425.499 -75.5h-392c-400 0 -600 159 -600 477c0 76 12.333 156 37 240h157v-10c-24.667 -74 -37 -146.667 -37 -218c0 -106.667 34.833 -183.5 104.5 -230.5s183.167 -70.5 340.5 -70.5h381
c136 0 240.333 13 313 39s109 72 109 138v352h157v-426zM1003 1024h-177v147h177v-147zM1180 814.999h-177v147h177v-147zM825.999 814.999h-177v147h177v-147z" />
    <glyph glyph-name="uni062C" unicode="&#x62c;" horiz-adv-x="1334" arabic-form="isolated" 
d="M1313 -328c-128 -64 -303.667 -96.002 -527 -96.002c-198.667 0 -362.167 48.667 -490.5 146s-192.5 228.333 -192.5 393c0 165.333 87 297.333 261 396s392 148 654 148c-210 75.333 -461.667 113 -755 113h-94v186h106c150 0 312.333 -25.667 487 -77
s338.334 -121.666 491.001 -210.999v-131h-177c-254.667 0 -454.334 -38.167 -599.001 -114.5s-217 -178.166 -217 -305.499c0 -114 49.333 -202.333 148 -265s224 -94 376 -94c214.667 0 386.667 37 516 111h13v-199zM873 65.998h-177v147h177v-147z" />
    <glyph glyph-name="uni062D" unicode="&#x62d;" horiz-adv-x="1334" arabic-form="isolated" 
d="M1313 -328c-128 -64 -303.667 -96.002 -527 -96.002c-198.667 0 -362.167 48.667 -490.5 146s-192.5 228.333 -192.5 393c0 165.333 87 297.333 261 396s392 148 654 148c-210 75.333 -461.667 113 -755 113h-94v186h106c150 0 312.333 -25.667 487 -77
s338.334 -121.666 491.001 -210.999v-131h-177c-254.667 0 -454.334 -38.167 -599.001 -114.5s-217 -178.166 -217 -305.499c0 -114 49.333 -202.333 148 -265s224 -94 376 -94c214.667 0 386.667 37 516 111h13v-199z" />
    <glyph glyph-name="uni062E" unicode="&#x62e;" horiz-adv-x="1334" arabic-form="isolated" 
d="M1313 -328c-128 -64 -303.667 -96.002 -527 -96.002c-198.667 0 -362.167 48.667 -490.5 146s-192.5 228.333 -192.5 393c0 165.333 87 297.333 261 396s392 148 654 148c-210 75.333 -461.667 113 -755 113h-94v186h106c150 0 312.333 -25.667 487 -77
s338.334 -121.666 491.001 -210.999v-131h-177c-254.667 0 -454.334 -38.167 -599.001 -114.5s-217 -178.166 -217 -305.499c0 -114 49.333 -202.333 148 -265s224 -94 376 -94c214.667 0 386.667 37 516 111h13v-199zM923 1120h-177v147h177v-147z" />
    <glyph glyph-name="uni062F" unicode="&#x62f;" horiz-adv-x="835" arabic-form="final" 
d="M228 956c372 -227.333 558.001 -437.999 558.001 -631.999c0 -98.667 -37.833 -177.334 -113.5 -236.001s-184.167 -88 -325.5 -88h-335v188h332c89.333 0 159.166 13 209.499 39s75.5 57.667 75.5 95c0 122 -137.667 255 -413 399v235h12z" />
    <glyph glyph-name="uni0630" unicode="&#x630;" horiz-adv-x="835" arabic-form="final" 
d="M228 956c372 -227.333 558.001 -437.999 558.001 -631.999c0 -98.667 -37.833 -177.334 -113.5 -236.001s-184.167 -88 -325.5 -88h-335v188h332c89.333 0 159.166 13 209.499 39s75.5 57.667 75.5 95c0 122 -137.667 255 -413 399v235h12zM246.001 1130h-177v147h177
v-147z" />
    <glyph glyph-name="uni0631" unicode="&#x631;" horiz-adv-x="1192" arabic-form="final" 
d="M943 516c84 -109.333 126 -219.334 126 -330.001c0 -199.333 -90.833 -350.833 -272.5 -454.5s-414.5 -155.5 -698.5 -155.5v188c244 0 440.667 33.333 590 100s224 163.334 224 290.001c0 109.333 -66.333 226 -199 350v12h230z" />
    <glyph glyph-name="uni0632" unicode="&#x632;" horiz-adv-x="1192" arabic-form="final" 
d="M943 516c84 -109.333 126 -219.334 126 -330.001c0 -199.333 -90.833 -350.833 -272.5 -454.5s-414.5 -155.5 -698.5 -155.5v188c244 0 440.667 33.333 590 100s224 163.334 224 290.001c0 109.333 -66.333 226 -199 350v12h230zM890 689.999h-177v147h177v-147z" />
    <glyph glyph-name="uni0633" unicode="&#x633;" horiz-adv-x="2026" arabic-form="final" 
d="M1927 188c0 -125.333 -73 -188 -219 -188h-99c-116.667 0 -195.667 24 -237 72c-42.667 -48 -122.334 -72 -239.001 -72c-84.667 0 -148 22.667 -190 68c-58 -328 -222.333 -492 -493 -492c-127.333 0 -232.166 45 -314.499 135s-123.5 217 -123.5 381
c0 112.667 10.667 215.667 32 309h158v-16c-22 -88.667 -33 -187 -33 -295c0 -102.667 24.833 -182.667 74.5 -240s118.5 -86 206.5 -86c244 0 366 186 366 558v100h157v-100c0 -89.333 53.333 -134 160 -134c106 0 159 44.667 159 134v100h158v-100
c0 -89.333 53 -134 159 -134c107.333 0 161 26.667 161 80v367h157v-447z" />
    <glyph glyph-name="uni0634" unicode="&#x634;" horiz-adv-x="2026" arabic-form="final" 
d="M1927 188c0 -125.333 -73 -188 -219 -188h-99c-116.667 0 -195.667 24 -237 72c-42.667 -48 -122.334 -72 -239.001 -72c-84.667 0 -148 22.667 -190 68c-58 -328 -222.333 -492 -493 -492c-127.333 0 -232.166 45 -314.499 135s-123.5 217 -123.5 381
c0 112.667 10.667 215.667 32 309h158v-16c-22 -88.667 -33 -187 -33 -295c0 -102.667 24.833 -182.667 74.5 -240s118.5 -86 206.5 -86c244 0 366 186 366 558v100h157v-100c0 -89.333 53.333 -134 160 -134c106 0 159 44.667 159 134v100h158v-100
c0 -89.333 53 -134 159 -134c107.333 0 161 26.667 161 80v367h157v-447zM1393 926h-177v147h177v-147zM1570 717h-177v147h177v-147zM1216 717h-177v147h177v-147z" />
    <glyph glyph-name="uni0635" unicode="&#x635;" horiz-adv-x="2678" arabic-form="final" 
d="M1264 188c185.333 218 349 377 491 477s278.667 150 410 150c120 0 227.333 -54 322 -162s142 -225.333 142 -352c0 -92 -50.833 -165.167 -152.5 -219.5s-239.834 -81.5 -414.501 -81.5h-892c-92 -0 -168.333 16.333 -229 49c-63.333 -315.333 -227 -473 -491 -473
c-127.333 0 -232.166 45 -314.499 135s-123.5 217 -123.5 381c0 112.667 10.667 215.667 32 309h158v-16c-22 -88.667 -33 -187 -33 -295c0 -102.667 24.833 -182.667 74.5 -240s118.5 -86 206.5 -86c244 0 366 186 366 558v100h157v-43c0 -127.333 64 -191 192 -191h99z
M1445 188h595c129.333 0 233.666 11.5 313 34.5c79.333 23 119 52.5 119 88.5c0 88 -33.667 163 -101 225s-137 93 -209 93c-220 0 -459 -147 -717 -441z" />
    <glyph glyph-name="uni0636" unicode="&#x636;" horiz-adv-x="2678" arabic-form="final" 
d="M1264 188c185.333 218 349 377 491 477s278.667 150 410 150c120 0 227.333 -54 322 -162s142 -225.333 142 -352c0 -92 -50.833 -165.167 -152.5 -219.5s-239.834 -81.5 -414.501 -81.5h-892c-92 -0 -168.333 16.333 -229 49c-63.333 -315.333 -227 -473 -491 -473
c-127.333 0 -232.166 45 -314.499 135s-123.5 217 -123.5 381c0 112.667 10.667 215.667 32 309h158v-16c-22 -88.667 -33 -187 -33 -295c0 -102.667 24.833 -182.667 74.5 -240s118.5 -86 206.5 -86c244 0 366 186 366 558v100h157v-43c0 -127.333 64 -191 192 -191h99z
M1445 188h595c129.333 0 233.666 11.5 313 34.5c79.333 23 119 52.5 119 88.5c0 88 -33.667 163 -101 225s-137 93 -209 93c-220 0 -459 -147 -717 -441zM2213 958h-177v147h177v-147z" />
    <glyph glyph-name="uni0637" unicode="&#x637;" horiz-adv-x="1426" arabic-form="medial" 
d="M364 397c204.667 278.667 403.667 418 597 418c111.333 0 208.333 -53.167 291 -159.5s124 -224.5 124 -354.5c0 -92 -51 -165.167 -153 -219.5s-240 -81.5 -414 -81.5h-809c-39.333 0 -73.833 17 -103.5 51s-44.5 79.667 -44.5 137h342l12 27v1341h158v-1159zM364 188
l422 -0.000976562c130.667 0 235.5 11.5 314.5 34.5s118.5 52.5 118.5 88.5c0 88.667 -28.5 163.834 -85.5 225.501s-115.167 92.5 -174.5 92.5c-98 0 -189.333 -32 -274 -96s-191.667 -179 -321 -345z" />
    <glyph glyph-name="uni0638" unicode="&#x638;" horiz-adv-x="1426" arabic-form="medial" 
d="M364 397c204.667 278.667 403.667 418 597 418c111.333 0 208.333 -53.167 291 -159.5s124 -224.5 124 -354.5c0 -92 -51 -165.167 -153 -219.5s-240 -81.5 -414 -81.5h-809c-39.333 0 -73.833 17 -103.5 51s-44.5 79.667 -44.5 137h342l12 27v1341h158v-1159zM364 188
l422 -0.000976562c130.667 0 235.5 11.5 314.5 34.5s118.5 52.5 118.5 88.5c0 88.667 -28.5 163.834 -85.5 225.501s-115.167 92.5 -174.5 92.5c-98 0 -189.333 -32 -274 -96s-191.667 -179 -321 -345zM954 957.999h-177v147h177v-147z" />
    <glyph glyph-name="uni0639" unicode="&#x639;" horiz-adv-x="1339" arabic-form="isolated" 
d="M1283 -319c-140.667 -70 -310.999 -105 -510.999 -105c-213.333 0 -379 42.333 -497 127s-177 201.334 -177 350.001c0 153.333 79.667 274.333 239 363c-110 71.333 -165 151.666 -165 240.999c0 121.333 44.167 218 132.5 290s201.5 108 339.5 108
c76 0 161.333 -9 256 -27v-188h-13c-86.667 20 -164.334 30 -233.001 30c-98.667 0 -177.5 -19.333 -236.5 -58s-88.5 -91.667 -88.5 -159c0 -72.667 43.667 -134 131 -184l604 186v-174l-499 -151c-96 -28 -171.5 -66.5 -226.5 -115.5s-82.5 -102.167 -82.5 -159.5
c0 -88.667 46.333 -160 139 -214s217.334 -81 374.001 -81c79.333 0 166.666 12.833 261.999 38.5s175.333 57.5 240 95.5h12v-213z" />
    <glyph glyph-name="uni063A" unicode="&#x63a;" horiz-adv-x="1339" arabic-form="isolated" 
d="M1283 -319c-140.667 -70 -310.999 -105 -510.999 -105c-213.333 0 -379 42.333 -497 127s-177 201.334 -177 350.001c0 153.333 79.667 274.333 239 363c-110 71.333 -165 151.666 -165 240.999c0 121.333 44.167 218 132.5 290s201.5 108 339.5 108
c76 0 161.333 -9 256 -27v-188h-13c-86.667 20 -164.334 30 -233.001 30c-98.667 0 -177.5 -19.333 -236.5 -58s-88.5 -91.667 -88.5 -159c0 -72.667 43.667 -134 131 -184l604 186v-174l-499 -151c-96 -28 -171.5 -66.5 -226.5 -115.5s-82.5 -102.167 -82.5 -159.5
c0 -88.667 46.333 -160 139 -214s217.334 -81 374.001 -81c79.333 0 166.666 12.833 261.999 38.5s175.333 57.5 240 95.5h12v-213zM698.001 1229h-177v147h177v-147z" />
    <glyph glyph-name="uni0641" unicode="&#x641;" horiz-adv-x="1942" arabic-form="final" 
d="M1607 1292h-177v148h177v-148zM1873 291c0 -93.333 -48.333 -165.168 -145 -215.501s-238.667 -75.5 -426 -75.5h-606c-400 0 -600 159 -600 477c0 76 12.333 156 37 240h157v-10c-24.667 -74 -37 -146.667 -37 -218c0 -106.667 34.833 -183.5 104.5 -230.5
s183.167 -70.5 340.5 -70.5h594c136 0 240.667 13 314 39s110 72 110 138v102c-31.333 -27.333 -75.666 -41 -132.999 -41c-88 0 -165 28.5 -231 85.5s-99 134.167 -99 231.5c0 100.667 33.167 188.334 99.5 263.001s133.166 112 200.499 112
c90 0 165.833 -54.167 227.5 -162.5s92.5 -256.833 92.5 -445.5v-219zM1703 652.998c0 62 -17.001 123.666 -51.001 184.999s-68 92 -102 92c-28.667 0 -59 -19.667 -91 -59s-48 -79.666 -48 -120.999c0 -38.667 16.833 -71 50.5 -97s75.834 -39 126.501 -39
c44 0 82.333 13 115 39z" />
    <glyph glyph-name="uni0642" unicode="&#x642;" horiz-adv-x="1430" arabic-form="final" 
d="M1264 1090h-178v147h178v-147zM938 1090h-176v147h176v-147zM1194 264c-30.667 -27.333 -74.668 -40.999 -132.001 -40.999c-88.667 0 -165.834 28.5 -231.501 85.5s-98.5 134.5 -98.5 232.5c0 100 33 187.333 99 262s133 112 201 112
c89.333 0 164.833 -54.167 226.5 -162.5s92.5 -256.833 92.5 -445.5c0 -224 -64.167 -401.833 -192.5 -533.5s-303.166 -197.5 -524.499 -197.5c-175.333 0 -317 47.5 -425 142.5s-162 220.167 -162 375.5c0 56.667 10.667 123 32 199h157v-10
c-21.333 -64 -32 -123 -32 -177c0 -106.667 37 -190.334 111 -251.001s181 -91 321 -91c166.667 0 299.334 44 398.001 132s152 210.667 160 368zM1182 451.001c0 61.333 -17.168 122.667 -51.501 184s-67.833 92 -100.5 92c-29.333 0 -60.166 -19.667 -92.499 -59
s-48.5 -79.666 -48.5 -120.999c0 -38.667 17 -70.834 51 -96.501s76.333 -38.5 127 -38.5c44 0 82.333 13 115 39z" />
    <glyph glyph-name="uni0643" unicode="&#x643;" horiz-adv-x="1475" arabic-form="final" 
d="M1376 270c0 -82 -35.168 -147.501 -105.501 -196.501s-166.166 -73.5 -287.499 -73.5h-511c-132 0 -233.5 26.333 -304.5 79s-106.5 129.334 -106.5 230.001c0 26.667 3.33301 67 10 121h161v-10c-9.33301 -38 -14 -74.333 -14 -109c0 -82 84.667 -123 254 -123h501
c164 0 246 52 246 156v1212h157v-1286zM773.999 878.999c-109.333 0 -164 -15.9971 -164 -47.9971c0 -18.667 22.667 -32 68 -40l77 -15c67.333 -12 101 -42.667 101 -92c0 -44.667 -30.833 -79.334 -92.5 -104.001s-140.167 -37 -235.5 -37v69c162.667 0 244 22 244 66
c0 11.333 -7.83301 19.666 -23.5 24.999s-56 13.666 -121 24.999s-97.5 44.333 -97.5 99c0 38.667 21.833 68.5 65.5 89.5s103.167 31.5 178.5 31.5v-69z" />
    <glyph glyph-name="uni0644" unicode="&#x644;" horiz-adv-x="1253" arabic-form="isolated" 
d="M1156 248c0 -302 -182 -453 -546 -453c-196 0 -338.5 35.5 -427.5 106.5s-133.5 183.167 -133.5 336.5c0 82 8 165.667 24 251h166v-10c-22 -75.333 -33 -155 -33 -239c0 -96 30.667 -162.667 92 -200s166 -56 314 -56c256.667 0 385 92 385 276v1296h159v-1308z" />
    <glyph glyph-name="uni0645" unicode="&#x645;" horiz-adv-x="835" arabic-form="final" 
d="M835 0h-485.999c-120 -0 -180 -37.667 -180 -113v-311h-132v313c0 199.333 109 299 327 299h248c-59.333 56 -108.833 97.333 -148.5 124s-77.834 40 -114.501 40c-68.667 0 -103 -38 -103 -114h-133c0 76 21.167 135.833 63.5 179.5s99.833 65.5 172.5 65.5
c86.667 0 166 -24.667 238 -74s154.667 -123 248 -221v-188z" />
    <glyph glyph-name="uni0646" unicode="&#x646;" horiz-adv-x="1302" arabic-form="final" 
d="M752 500h-177v147h177v-147zM1234 401c21.333 -80 32 -156.333 32 -229c0 -184.667 -52 -330.167 -156 -436.5s-252.667 -159.5 -446 -159.5c-194 0 -343 53.167 -447 159.5s-156 251.833 -156 436.5c0 72.667 11 149 33 229h157v-10c-22 -64 -33 -133 -33 -207
c0 -280 148.667 -420 446 -420c296.667 0 445 140 445 420c0 38 -5.66699 83.667 -17 137l-16 70v10h158z" />
    <glyph glyph-name="uni0647" unicode="&#x647;" horiz-adv-x="762" arabic-form="isolated" 
d="M136 930c172.667 -8.66699 312.001 -67.499 418.001 -176.499s159 -229.167 159 -360.5c0 -122.667 -30.167 -220.834 -90.5 -294.501s-136.5 -110.5 -228.5 -110.5c-98.667 0 -176.834 33.333 -234.501 100s-86.5 161.667 -86.5 285c0 132 53.667 257.667 161 377
c-29.333 6.66699 -62 10 -98 10v170zM556.001 393.001c0 135.333 -65.666 239.999 -196.999 313.999c-84.667 -91.333 -127 -202.666 -127 -333.999c0 -63.333 14.667 -112 44 -146s68.666 -51 117.999 -51c108 0 162 72.333 162 217z" />
    <glyph glyph-name="uni0648" unicode="&#x648;" horiz-adv-x="1042" arabic-form="final" 
d="M788 154c-32.667 -27.333 -76.668 -40.999 -132.001 -40.999c-88 0 -163.5 28.333 -226.5 85s-94.5 134 -94.5 232c0 100.667 31.833 188.334 95.5 263.001s128.834 112 195.501 112c84 0 157.833 -54.833 221.5 -164.5s95.5 -257.5 95.5 -443.5
c0 -202.667 -80.167 -356.834 -240.5 -462.501s-394.5 -158.5 -702.5 -158.5v188c260 0 456.333 33.667 589 101s199 163.666 199 288.999zM773.999 340.001c0 62 -16.833 123.498 -50.5 184.498s-66.834 91.5 -99.501 91.5c-31.333 0 -61.166 -19.167 -89.499 -57.5
s-42.5 -79.166 -42.5 -122.499c0 -39.333 15.833 -71.666 47.5 -96.999s72.167 -38 121.5 -38c52 0 89.667 13 113 39z" />
    <glyph glyph-name="uni0649" unicode="&#x649;" horiz-adv-x="1573" arabic-form="isolated" 
d="M1487 866l-11.9971 -0.00195312c-120 58.667 -248 88 -384 88c-66 0 -120.5 -12 -163.5 -36s-64.5 -53 -64.5 -87c0 -29.333 15.167 -57.166 45.5 -83.499s110.5 -67 240.5 -122s217.167 -103.167 261.5 -144.5s66.5 -90.333 66.5 -147
c0 -107.333 -71 -189.833 -213 -247.5s-352 -86.5 -630 -86.5c-398 0 -597 147.333 -597 442c0 66 8 150 24 252h160v-10c-18 -90 -27 -170 -27 -240c0 -88.667 35 -153.5 105 -194.5s182.333 -61.5 337 -61.5c221.333 0 390.666 14 507.999 42s176 64 176 108
c0 28 -18.833 55.167 -56.5 81.5s-115.834 63.5 -234.501 111.5s-202.167 95.833 -250.5 143.5s-72.5 100.834 -72.5 159.501c0 81.333 37.5 152.5 112.5 213.5s173.5 91.5 295.5 91.5c133.333 0 257.666 -20 372.999 -60v-213z" />
    <glyph glyph-name="uni064A" unicode="&#x64a;" horiz-adv-x="1573" arabic-form="isolated" 
d="M1487 866l-11.9971 -0.00195312c-120 58.667 -248 88 -384 88c-66 0 -120.5 -12 -163.5 -36s-64.5 -53 -64.5 -87c0 -29.333 15.167 -57.166 45.5 -83.499s110.5 -67 240.5 -122s217.167 -103.167 261.5 -144.5s66.5 -90.333 66.5 -147
c0 -107.333 -71 -189.833 -213 -247.5s-352 -86.5 -630 -86.5c-398 0 -597 147.333 -597 442c0 66 8 150 24 252h160v-10c-18 -90 -27 -170 -27 -240c0 -88.667 35 -153.5 105 -194.5s182.333 -61.5 337 -61.5c221.333 0 390.666 14 507.999 42s176 64 176 108
c0 28 -18.833 55.167 -56.5 81.5s-115.834 63.5 -234.501 111.5s-202.167 95.833 -250.5 143.5s-72.5 100.834 -72.5 159.501c0 81.333 37.5 152.5 112.5 213.5s173.5 91.5 295.5 91.5c133.333 0 257.666 -20 372.999 -60v-213zM908.003 -293.002h-176v147h176v-147z
M584.003 -293.002h-177v147h177v-147z" />
    <glyph glyph-name="uni06A1.init" unicode="&#x66f;" horiz-adv-x="713" 
d="M546 467c-32.667 -27.333 -83.334 -41.001 -152.001 -41.001c-89.333 0 -166.666 28.5 -231.999 85.5s-98 134.167 -98 231.5c0 100.667 33 188.334 99 263.001s133 112 201 112c90 0 167.5 -54.5 232.5 -163.5s97.5 -257.167 97.5 -444.5
c0 -166 -42.333 -292.5 -127 -379.5s-205.667 -130.5 -363 -130.5h-204c-39.333 0 -73.833 17 -103.5 51s-44.5 79.667 -44.5 137h354c95.333 0 175.833 25.5 241.5 76.5s98.5 118.5 98.5 202.5zM530 646.999c0 74.667 -19 141.167 -57 199.5s-75.333 87.5 -112 87.5
c-32 0 -64.5 -18 -97.5 -54s-49.5 -79.333 -49.5 -130c0 -93.333 61.333 -140 184 -140c54 0 98 12.333 132 37z" />
    <glyph glyph-name="uni06A1.medi" unicode="&#x66f;" horiz-adv-x="727" 
d="M727 0h-49c-96 -0 -200.667 33.333 -314 100c-114 -66.667 -219 -100 -315 -100h-49c-39.333 0 -73.833 17 -103.5 51s-44.5 79.667 -44.5 137h246c43.333 0 88 5.66699 134 17c-109.333 111.333 -164 215 -164 311c0 95.333 27.667 172.166 83 230.499
s126.333 87.5 213 87.5c86 0 156.667 -29.167 212 -87.5s83 -135.166 83 -230.499c0 -96 -54 -199.667 -162 -311c44.667 -11.333 88.667 -17 132 -17h98v-188zM364 266c92 72.667 138.001 152.667 138.001 240c0 39.333 -12.5 72 -37.5 98s-58.5 39 -100.5 39
c-42.667 0 -76.334 -13 -101.001 -39s-37 -58.667 -37 -98c0 -87.333 46 -167.333 138 -240z" />
    <glyph glyph-name="uni0671" unicode="&#x671;" horiz-adv-x="575" arabic-form="isolated" 
d="M366 0h-157v1556h157v-1556zM515 1763c0 -46 -23.665 -83.667 -70.998 -113c-42.667 -26 -89.334 -39 -140.001 -39c-25.333 0 -59 6.83301 -101 20.5s-74 20.5 -96 20.5c-24 0 -57.667 -14 -101 -42v70c42.667 28 76.667 42 102 42c20.667 0 44.667 -3.33301 72 -10
c12 49.333 36.167 89.5 72.5 120.5s78.166 46.5 125.499 46.5c91.333 0 137 -38.667 137 -116zM431.002 1763c0 30.667 -17.666 46 -52.999 46c-28.667 0 -54.667 -13.333 -78 -40c-20.667 -24 -34.334 -51.333 -41.001 -82c16 -4 31 -6 45 -6c36 0 66.167 8.5 90.5 25.5
s36.5 35.833 36.5 56.5z" />
    <glyph glyph-name="uni0672.fina" unicode="&#x672;" horiz-adv-x="575" 
d="M575 0c-114 0 -202.667 29.168 -266 87.501s-95 139.833 -95 244.5v1224h157v-1212c0 -56.667 15.333 -96.834 46 -120.501s81.667 -35.5 153 -35.5h5v-188zM472 1620h-212c-18.667 0 -38.667 2.33301 -60 7s-35.333 7 -42 7c-25.333 0 -61.333 -15 -108 -45v74
c42.667 27.333 78.667 41 108 41c10 0 23.833 -2.83301 41.5 -8.5s30.834 -8.5 39.501 -8.5c-36 16.667 -54 43.334 -54 80.001c0 36 15.167 65.167 45.5 87.5s67.5 33.5 111.5 33.5s78.333 -4 103 -12v-74c-28.667 11.333 -62.334 17 -101.001 17
c-52.667 0 -79 -17.333 -79 -52c0 -24.667 17 -44.334 51 -59.001c28 -12 58 -18 90 -18h66v-70z" />
    <glyph glyph-name="uni0673.fina" unicode="&#x673;" horiz-adv-x="575" 
d="M575 0c-114 0 -202.667 29.168 -266 87.501s-95 139.833 -95 244.5v1224h157v-1212c0 -56.667 15.333 -96.834 46 -120.501s81.667 -35.5 153 -35.5h5v-188zM472 -361.999h-212c-18.667 0 -38.667 2.33301 -60 7s-35.333 7 -42 7c-25.333 0 -61.333 -15 -108 -45v74
c42.667 27.333 78.667 41 108 41c10 0 23.833 -2.83301 41.5 -8.5s30.834 -8.5 39.501 -8.5c-36 16.667 -54 43.334 -54 80.001c0 36 15.167 65.167 45.5 87.5s67.5 33.5 111.5 33.5s78.333 -4 103 -12v-74c-28.667 11.333 -62.334 17 -101.001 17
c-52.667 0 -79 -17.333 -79 -52c0 -24.667 17 -44.334 51 -59.001c28 -12 58 -18 90 -18h66v-70z" />
    <glyph glyph-name="uni0675.fina" unicode="&#x675;" horiz-adv-x="768" 
d="M768 1310l-302 0.000976562v70h67c-34.667 16 -52 41.667 -52 77c0 36 15.167 65.167 45.5 87.5s67.5 33.5 111.5 33.5s78.667 -4 104 -12v-74c-29.333 11.333 -63 17 -101 17c-52.667 0 -79 -17.333 -79 -52c0 -24.667 16.667 -44.334 50 -59.001c28 -12 58 -18 90 -18
h66v-70zM768 0.000976562h-200c-108 0 -194 29.333 -258 88s-96 140 -96 244v1224h157v-1212c0 -104 66.333 -156 199 -156h198v-188z" />
    <glyph glyph-name="uni0677" unicode="&#x677;" horiz-adv-x="1042" arabic-form="isolated" 
d="M788 154c-32.667 -27.333 -76.668 -40.999 -132.001 -40.999c-88 0 -163.5 28.333 -226.5 85s-94.5 134 -94.5 232c0 100.667 31.833 188.334 95.5 263.001s128.834 112 195.501 112c84 0 157.833 -54.833 221.5 -164.5s95.5 -257.5 95.5 -443.5
c0 -202.667 -80.167 -356.834 -240.5 -462.501s-394.5 -158.5 -702.5 -158.5v188c260 0 456.333 33.667 589 101s199 163.666 199 288.999zM773.999 340.001c0 62 -16.833 123.498 -50.5 184.498s-66.834 91.5 -99.501 91.5c-31.333 0 -61.166 -19.167 -89.499 -57.5
s-42.5 -79.166 -42.5 -122.499c0 -39.333 15.833 -71.666 47.5 -96.999s72.167 -38 121.5 -38c52 0 89.667 13 113 39zM996.999 978.999h-301.999v70h67c-34.667 16 -52 41.667 -52 77c0 34 14.667 62.667 44 86s67.333 35 114 35c44 0 78.333 -4 103 -12v-74
c-28.667 11.333 -62.334 17 -101.001 17c-52.667 0 -79 -17.333 -79 -52c0 -21.333 13.5 -39.5 40.5 -54.5s60.167 -22.5 99.5 -22.5h66v-70zM524 978.999l-112 22.999c-102 -51.333 -212.667 -80 -332 -86v70c80 1.33301 160 16.333 240 45
c-74.667 24.667 -112 62.667 -112 114c0 36.667 14 66 42 88s64.667 33 110 33c43.333 0 80 -11.667 110 -35s45 -52.666 45 -87.999c0 -28.667 -15.667 -58 -47 -88l56 -10v-66zM392 1070c26 22 39.001 46.332 39.001 72.999c0 14.667 -6.83301 27.334 -20.5 38.001
s-29.834 16 -48.501 16c-46.667 0 -70 -18 -70 -54c0 -34 33.333 -58.333 100 -73z" />
    <glyph glyph-name="uni0678.fina" unicode="&#x678;" horiz-adv-x="1454" 
d="M1454 0c-76 0 -137 14.8301 -183 44.4971s-82.333 69.334 -109 119.001s-55.667 115.334 -87 197.001s-60.333 134.167 -87 157.5s-60.334 35 -101.001 35c-74 0 -111 -29.333 -111 -88c0 -36.667 29 -83.667 87 -141c76.667 -76.667 115 -152.667 115 -228
c0 -176 -150 -264 -450 -264c-147.333 0 -266 40.667 -356 122s-135 193.666 -135 336.999c0 43.333 5.66699 100 17 170h160v-10c-13.333 -44 -20 -96.667 -20 -158c0 -97.333 27.667 -167.166 83 -209.499s139.666 -63.5 252.999 -63.5c190.667 0 286 39 286 117
c0 34.667 -29.667 82 -89 142c-75.333 74 -113 147.667 -113 221c0 72.667 23.333 131 70 175s114.334 66 203.001 66c63.333 0 119 -14.667 167 -44s93.167 -105.666 135.5 -228.999s82.833 -200.833 121.5 -232.5s86.334 -47.5 143.001 -47.5v-188zM1267 914.997h-301.999
v70h67c-34.667 16 -52 41.667 -52 77c0 34 14.667 62.667 44 86s67.333 35 114 35c44 0 78.333 -4 103 -12v-74c-28.667 11.333 -62.334 17 -101.001 17c-52.667 0 -79 -17.333 -79 -52c0 -21.333 13.5 -39.5 40.5 -54.5s60.167 -22.5 99.5 -22.5h66v-70z" />
    <glyph glyph-name="uni0679" unicode="&#x679;" horiz-adv-x="1757" arabic-form="final" 
d="M1658 291c0 -93.333 -48.168 -165.167 -144.501 -215.5s-238.166 -75.5 -425.499 -75.5h-392c-400 0 -600 159 -600 477c0 76 12.333 156 37 240h157v-10c-24.667 -74 -37 -146.667 -37 -218c0 -106.667 34.833 -183.5 104.5 -230.5s183.167 -70.5 340.5 -70.5h381
c136 0 240.333 13 313 39s109 72 109 138v352h157v-426zM1124 907.999c0 -72 -64 -108.001 -192 -108.001h-272v67h79v413h69v-328c46.667 94 102.667 141 168 141c45.333 0 82.333 -22.333 111 -67c24.667 -37.333 37 -76.666 37 -117.999zM1058 911.998
c0 23.333 -6 46.333 -18 69c-16 30 -38 45 -66 45c-46.667 0 -102 -53 -166 -159h116c89.333 0 134 15 134 45z" />
    <glyph glyph-name="uni067A" unicode="&#x67a;" horiz-adv-x="1757" arabic-form="final" 
d="M1658 291c0 -93.333 -48.168 -165.167 -144.501 -215.5s-238.166 -75.5 -425.499 -75.5h-392c-400 0 -600 159 -600 477c0 76 12.333 156 37 240h157v-10c-24.667 -74 -37 -146.667 -37 -218c0 -106.667 34.833 -183.5 104.5 -230.5s183.167 -70.5 340.5 -70.5h381
c136 0 240.333 13 313 39s109 72 109 138v352h157v-426zM1003 1024h-176v147h176v-147zM1003 814.999h-176v148h176v-148z" />
    <glyph glyph-name="uni067B" unicode="&#x67b;" horiz-adv-x="1757" arabic-form="final" 
d="M1658 291c0 -93.333 -48.168 -165.167 -144.501 -215.5s-238.166 -75.5 -425.499 -75.5h-392c-400 0 -600 159 -600 477c0 76 12.333 156 37 240h157v-10c-24.667 -74 -37 -146.667 -37 -218c0 -106.667 34.833 -183.5 104.5 -230.5s183.167 -70.5 340.5 -70.5h381
c136 0 240.333 13 313 39s109 72 109 138v352h157v-426zM1003 -221.001h-176v147h176v-147zM1003 -430.001h-176v148h176v-148z" />
    <glyph glyph-name="uni067C.init" unicode="&#x67c;" horiz-adv-x="600" 
d="M502 270c0 -82 -35.333 -147.5 -106 -196.5s-166.667 -73.5 -288 -73.5h-108c-39.333 0 -73.833 17 -103.5 51s-44.5 79.667 -44.5 137h246c164 0 246 52 246 156v373h158v-447zM600 891h-176v147h176v-147zM276 891h-177v147h177v-147zM257 79
c47.333 0 87.666 -14 120.999 -42s50 -62 50 -102c0 -39.333 -16.667 -73 -50 -101s-73.666 -42 -120.999 -42c-48 0 -88.833 14 -122.5 42s-50.5 61.667 -50.5 101c0 40 16.833 74 50.5 102s74.5 42 122.5 42zM257 -142c25.333 0 47 7.5 65 22.5s27 33.167 27 54.5
s-9 39.666 -27 54.999s-39.667 23 -65 23c-26 0 -48.167 -7.66699 -66.5 -23s-27.5 -33.666 -27.5 -54.999s9.16699 -39.5 27.5 -54.5s40.5 -22.5 66.5 -22.5z" />
    <glyph glyph-name="uni067D.init" unicode="&#x67d;" horiz-adv-x="600" 
d="M502 270c0 -82 -35.333 -147.5 -106 -196.5s-166.667 -73.5 -288 -73.5h-108c-39.333 0 -73.833 17 -103.5 51s-44.5 79.667 -44.5 137h246c164 0 246 52 246 156v373h158v-447zM428 891h-177v147h177v-147zM605 1100h-177v147h177v-147zM251 1100h-177v147h177v-147z
" />
    <glyph glyph-name="uni067E" unicode="&#x67e;" horiz-adv-x="1757" arabic-form="final" 
d="M1658 291c0 -93.333 -48.168 -165.167 -144.501 -215.5s-238.166 -75.5 -425.499 -75.5h-392c-400 0 -600 159 -600 477c0 76 12.333 156 37 240h157v-10c-24.667 -74 -37 -146.667 -37 -218c0 -106.667 34.833 -183.5 104.5 -230.5s183.167 -70.5 340.5 -70.5h381
c136 0 240.333 13 313 39s109 72 109 138v352h157v-426zM1229 -221.001h-177v147h177v-147zM874.999 -221.001h-177v147h177v-147zM1052 -430.001h-177v147h177v-147z" />
    <glyph glyph-name="uni067F" unicode="&#x67f;" horiz-adv-x="1757" arabic-form="final" 
d="M1658 291c0 -93.333 -48.168 -165.167 -144.501 -215.5s-238.166 -75.5 -425.499 -75.5h-392c-400 0 -600 159 -600 477c0 76 12.333 156 37 240h157v-10c-24.667 -74 -37 -146.667 -37 -218c0 -106.667 34.833 -183.5 104.5 -230.5s183.167 -70.5 340.5 -70.5h381
c136 0 240.333 13 313 39s109 72 109 138v352h157v-426zM1165 1024h-176v147h176v-147zM840.999 1024h-177v147h177v-147zM1165 814.999h-176v147h176v-147zM840.999 814.999h-177v147h177v-147z" />
    <glyph glyph-name="uni0680" unicode="&#x680;" horiz-adv-x="1757" arabic-form="final" 
d="M1658 291c0 -93.333 -48.168 -165.167 -144.501 -215.5s-238.166 -75.5 -425.499 -75.5h-392c-400 0 -600 159 -600 477c0 76 12.333 156 37 240h157v-10c-24.667 -74 -37 -146.667 -37 -218c0 -106.667 34.833 -183.5 104.5 -230.5s183.167 -70.5 340.5 -70.5h381
c136 0 240.333 13 313 39s109 72 109 138v352h157v-426zM1165 -221.001h-176v147h176v-147zM840.999 -221.001h-177v147h177v-147zM1165 -430.001h-176v147h176v-147zM840.999 -430.001h-177v147h177v-147z" />
    <glyph glyph-name="uni0681.init" unicode="&#x681;" horiz-adv-x="1334" 
d="M1236 184c-142.667 0 -352.169 -30.667 -628.502 -92s-478.833 -92 -607.5 -92c-39.333 0 -73.833 17 -103.5 51s-44.5 79.667 -44.5 137h155c114.667 0 290.5 26.833 527.5 80.5s399.5 82.834 487.5 87.501c-242 182 -503 273 -783 273h-114v186h126
c64.667 0 127.334 -5.33301 188.001 -16c60 -10.667 119.667 -26.667 179 -48c58.667 -20.667 118.334 -47.334 179.001 -80.001c57.333 -31.333 118.333 -69 183 -113c60 -40.667 126 -89 198 -145l52 -41h2l4 1v-189zM906.998 936h-301.999v70h67
c-34.667 16 -52 41.667 -52 77c0 34 14.667 62.667 44 86s67.333 35 114 35c44 0 78.333 -4 103 -12v-74c-28.667 11.333 -62.334 17 -101.001 17c-52.667 0 -79 -17.333 -79 -52c0 -21.333 13.5 -39.5 40.5 -54.5s60.167 -22.5 99.5 -22.5h66v-70z" />
    <glyph glyph-name="uni0681.fina" unicode="&#x681;" horiz-adv-x="1334" 
d="M1334 0l-39.001 -0.000976562c-272 0 -408 106.333 -408 319v211c-196 -17.333 -349.5 -62 -460.5 -134s-166.5 -164.333 -166.5 -277c0 -114 49.333 -202.333 148 -265s224 -94 376 -94c214.667 0 386.667 37 516 111h13v-199c-128 -64 -303.667 -96 -527 -96
c-198.667 0 -362.167 48.667 -490.5 146s-192.5 228.333 -192.5 393c0 165.333 87 297.333 261 396s392 148 654 148c-210 75.333 -461.667 113 -755 113h-94v186h106c150 0 312.333 -25.667 487 -77s338.334 -121.666 491.001 -210.999v-131
c-115.333 0 -185 -0.666992 -209 -2v-162c0 -68 20 -116.167 60 -144.5s102 -42.5 186 -42.5h44v-188zM906.999 1120h-301.999v70h67c-34.667 16 -52 41.667 -52 77c0 34 14.667 62.667 44 86s67.333 35 114 35c44 0 78.333 -4 103 -12v-74
c-28.667 11.333 -62.334 17 -101.001 17c-52.667 0 -79 -17.333 -79 -52c0 -21.333 13.5 -39.5 40.5 -54.5s60.167 -22.5 99.5 -22.5h66v-70z" />
    <glyph glyph-name="uni0682.init" unicode="&#x682;" horiz-adv-x="1334" 
d="M1236 184c-142.667 0 -352.169 -30.667 -628.502 -92s-478.833 -92 -607.5 -92c-39.333 0 -73.833 17 -103.5 51s-44.5 79.667 -44.5 137h155c114.667 0 290.5 26.833 527.5 80.5s399.5 82.834 487.5 87.501c-242 182 -503 273 -783 273h-114v186h126
c64.667 0 127.334 -5.33301 188.001 -16c60 -10.667 119.667 -26.667 179 -48c58.667 -20.667 118.334 -47.334 179.001 -80.001c57.333 -31.333 118.333 -69 183 -113c60 -40.667 126 -89 198 -145l52 -41h2l4 1v-189zM854.998 1145h-176v147h176v-147zM854.998 936h-176
v148h176v-148z" />
    <glyph glyph-name="uni0682.fina" unicode="&#x682;" horiz-adv-x="1334" 
d="M1334 0l-39.001 -0.000976562c-272 0 -408 106.333 -408 319v211c-196 -17.333 -349.5 -62 -460.5 -134s-166.5 -164.333 -166.5 -277c0 -114 49.333 -202.333 148 -265s224 -94 376 -94c214.667 0 386.667 37 516 111h13v-199c-128 -64 -303.667 -96 -527 -96
c-198.667 0 -362.167 48.667 -490.5 146s-192.5 228.333 -192.5 393c0 165.333 87 297.333 261 396s392 148 654 148c-210 75.333 -461.667 113 -755 113h-94v186h106c150 0 312.333 -25.667 487 -77s338.334 -121.666 491.001 -210.999v-131
c-115.333 0 -185 -0.666992 -209 -2v-162c0 -68 20 -116.167 60 -144.5s102 -42.5 186 -42.5h44v-188zM922.999 1329h-176v147h176v-147zM922.999 1120h-176v148h176v-148z" />
    <glyph glyph-name="uni0683" unicode="&#x683;" horiz-adv-x="1334" arabic-form="isolated" 
d="M1313 -328c-128 -64 -303.667 -96.002 -527 -96.002c-198.667 0 -362.167 48.667 -490.5 146s-192.5 228.333 -192.5 393c0 165.333 87 297.333 261 396s392 148 654 148c-210 75.333 -461.667 113 -755 113h-94v186h106c150 0 312.333 -25.667 487 -77
s338.334 -121.666 491.001 -210.999v-131h-177c-254.667 0 -454.334 -38.167 -599.001 -114.5s-217 -178.166 -217 -305.499c0 -114 49.333 -202.333 148 -265s224 -94 376 -94c214.667 0 386.667 37 516 111h13v-199zM1035 65.998h-176v147h176v-147zM711 65.998h-177v147
h177v-147z" />
    <glyph glyph-name="uni0684" unicode="&#x684;" horiz-adv-x="1334" arabic-form="isolated" 
d="M1313 -328c-128 -64 -303.667 -96.002 -527 -96.002c-198.667 0 -362.167 48.667 -490.5 146s-192.5 228.333 -192.5 393c0 165.333 87 297.333 261 396s392 148 654 148c-210 75.333 -461.667 113 -755 113h-94v186h106c150 0 312.333 -25.667 487 -77
s338.334 -121.666 491.001 -210.999v-131h-177c-254.667 0 -454.334 -38.167 -599.001 -114.5s-217 -178.166 -217 -305.499c0 -114 49.333 -202.333 148 -265s224 -94 376 -94c214.667 0 386.667 37 516 111h13v-199zM873 148.998h-176v147h176v-147zM873 -60.002h-176v148
h176v-148z" />
    <glyph glyph-name="uni0685.init" unicode="&#x685;" horiz-adv-x="1334" 
d="M1236 184c-142.667 0 -352.169 -30.667 -628.502 -92s-478.833 -92 -607.5 -92c-39.333 0 -73.833 17 -103.5 51s-44.5 79.667 -44.5 137h155c114.667 0 290.5 26.833 527.5 80.5s399.5 82.834 487.5 87.501c-242 182 -503 273 -783 273h-114v186h126
c64.667 0 127.334 -5.33301 188.001 -16c60 -10.667 119.667 -26.667 179 -48c58.667 -20.667 118.334 -47.334 179.001 -80.001c57.333 -31.333 118.333 -69 183 -113c60 -40.667 126 -89 198 -145l52 -41h2l4 1v-189zM854.998 1145h-177v147h177v-147zM1032 936h-177v147
h177v-147zM677.998 936h-177v147h177v-147z" />
    <glyph glyph-name="uni0685.fina" unicode="&#x685;" horiz-adv-x="1334" 
d="M1334 0l-39.001 -0.000976562c-272 0 -408 106.333 -408 319v211c-196 -17.333 -349.5 -62 -460.5 -134s-166.5 -164.333 -166.5 -277c0 -114 49.333 -202.333 148 -265s224 -94 376 -94c214.667 0 386.667 37 516 111h13v-199c-128 -64 -303.667 -96 -527 -96
c-198.667 0 -362.167 48.667 -490.5 146s-192.5 228.333 -192.5 393c0 165.333 87 297.333 261 396s392 148 654 148c-210 75.333 -461.667 113 -755 113h-94v186h106c150 0 312.333 -25.667 487 -77s338.334 -121.666 491.001 -210.999v-131
c-115.333 0 -185 -0.666992 -209 -2v-162c0 -68 20 -116.167 60 -144.5s102 -42.5 186 -42.5h44v-188zM922.999 1329h-177v147h177v-147zM1100 1120h-177v147h177v-147zM745.999 1120h-177v147h177v-147z" />
    <glyph glyph-name="uni0686" unicode="&#x686;" horiz-adv-x="1334" arabic-form="isolated" 
d="M1313 -328c-128 -64 -303.667 -96.002 -527 -96.002c-198.667 0 -362.167 48.667 -490.5 146s-192.5 228.333 -192.5 393c0 165.333 87 297.333 261 396s392 148 654 148c-210 75.333 -461.667 113 -755 113h-94v186h106c150 0 312.333 -25.667 487 -77
s338.334 -121.666 491.001 -210.999v-131h-177c-254.667 0 -454.334 -38.167 -599.001 -114.5s-217 -178.166 -217 -305.499c0 -114 49.333 -202.333 148 -265s224 -94 376 -94c214.667 0 386.667 37 516 111h13v-199zM1049 146.998h-177v148h177v-148zM696 146.998h-178
v148h178v-148zM872 -61.002h-176v147h176v-147z" />
    <glyph glyph-name="uni0687" unicode="&#x687;" horiz-adv-x="1334" arabic-form="isolated" 
d="M1313 -328c-128 -64 -303.667 -96.002 -527 -96.002c-198.667 0 -362.167 48.667 -490.5 146s-192.5 228.333 -192.5 393c0 165.333 87 297.333 261 396s392 148 654 148c-210 75.333 -461.667 113 -755 113h-94v186h106c150 0 312.333 -25.667 487 -77
s338.334 -121.666 491.001 -210.999v-131h-177c-254.667 0 -454.334 -38.167 -599.001 -114.5s-217 -178.166 -217 -305.499c0 -114 49.333 -202.333 148 -265s224 -94 376 -94c214.667 0 386.667 37 516 111h13v-199zM1027 148.998h-176v147h176v-147zM703 148.998h-177
v147h177v-147zM1027 -60.002h-176v147h176v-147zM703 -60.002h-177v147h177v-147z" />
    <glyph glyph-name="uni0688" unicode="&#x688;" horiz-adv-x="835" arabic-form="final" 
d="M228 956c372 -227.333 558.001 -437.999 558.001 -631.999c0 -98.667 -37.833 -177.334 -113.5 -236.001s-184.167 -88 -325.5 -88h-335v188h332c89.333 0 159.166 13 209.499 39s75.5 57.667 75.5 95c0 122 -137.667 255 -413 399v235h12zM584.001 1208
c0 -72 -64 -108.001 -192 -108.001h-272v67h79v413h69v-328c46.667 94 102.667 141 168 141c45.333 0 82.333 -22.333 111 -67c24.667 -37.333 37 -76.666 37 -117.999zM518.001 1212c0 23.333 -6 46.333 -18 69c-16 30 -38 45 -66 45c-46.667 0 -102 -53 -166 -159h116
c89.333 0 134 15 134 45z" />
    <glyph glyph-name="uni068C" unicode="&#x68c;" horiz-adv-x="835" arabic-form="final" 
d="M228 956c372 -227.333 558.001 -437.999 558.001 -631.999c0 -98.667 -37.833 -177.334 -113.5 -236.001s-184.167 -88 -325.5 -88h-335v188h332c89.333 0 159.166 13 209.499 39s75.5 57.667 75.5 95c0 122 -137.667 255 -413 399v235h12zM501.001 1130h-176v147h176
v-147zM177.001 1130h-177v147h177v-147z" />
    <glyph glyph-name="uni068D" unicode="&#x68d;" horiz-adv-x="835" arabic-form="final" 
d="M228 956c372 -227.333 558.001 -437.999 558.001 -631.999c0 -98.667 -37.833 -177.334 -113.5 -236.001s-184.167 -88 -325.5 -88h-335v188h332c89.333 0 159.166 13 209.499 39s75.5 57.667 75.5 95c0 122 -137.667 255 -413 399v235h12zM619.001 -292.999h-176v147
h176v-147zM295.001 -292.999h-177v147h177v-147z" />
    <glyph glyph-name="uni068E" unicode="&#x68e;" horiz-adv-x="835" arabic-form="final" 
d="M228 956c372 -227.333 558.001 -437.999 558.001 -631.999c0 -98.667 -37.833 -177.334 -113.5 -236.001s-184.167 -88 -325.5 -88h-335v188h332c89.333 0 159.166 13 209.499 39s75.5 57.667 75.5 95c0 122 -137.667 255 -413 399v235h12zM349.001 1339h-177v147h177
v-147zM526.001 1130h-177v147h177v-147zM172.001 1130h-177v147h177v-147z" />
    <glyph glyph-name="uni0691" unicode="&#x691;" horiz-adv-x="1192" arabic-form="final" 
d="M943 516c84 -109.333 126 -219.334 126 -330.001c0 -199.333 -90.833 -350.833 -272.5 -454.5s-414.5 -155.5 -698.5 -155.5v188c244 0 440.667 33.333 590 100s224 163.334 224 290.001c0 109.333 -66.333 226 -199 350v12h230zM932 807.999
c0 -72 -64 -108.001 -192 -108.001h-272v67h79v413h69v-328c46.667 94 102.667 141 168 141c45.333 0 82.333 -22.333 111 -67c24.667 -37.333 37 -76.666 37 -117.999zM866 811.998c0 23.333 -6 46.333 -18 69c-16 30 -38 45 -66 45c-46.667 0 -102 -53 -166 -159h116
c89.333 0 134 15 134 45z" />
    <glyph glyph-name="uni0698" unicode="&#x698;" horiz-adv-x="1192" arabic-form="final" 
d="M943 516c84 -109.333 126 -219.334 126 -330.001c0 -199.333 -90.833 -350.833 -272.5 -454.5s-414.5 -155.5 -698.5 -155.5v188c244 0 440.667 33.333 590 100s224 163.334 224 290.001c0 109.333 -66.333 226 -199 350v12h230zM889 898.999h-177v147h177v-147z
M1066 689.999h-177v147h177v-147zM712 689.999h-177v147h177v-147z" />
    <glyph glyph-name="uni069A.init" unicode="&#x69a;" horiz-adv-x="1487" 
d="M1388 188c0 -125.333 -72.666 -188 -217.999 -188h-98c-117.333 0 -197 24 -239 72c-42 -48 -121.333 -72 -238 -72s-196.334 24 -239.001 72c-44 -48 -130 -72 -258 -72h-98c-39.333 0 -73.833 17 -103.5 51s-44.5 79.667 -44.5 137h246c119.333 0 179 44.667 179 134
v100h157v-100c0 -89.333 53.667 -134 161 -134c106.667 0 160 44.667 160 134v100h157v-100c0 -89.333 53.333 -134 160 -134c106 0 159 26.667 159 80v367h157v-447zM920.001 717h-177v147h177v-147zM920.001 -293h-177v147h177v-147z" />
    <glyph glyph-name="uni069B.init" unicode="&#x69b;" horiz-adv-x="1487" 
d="M1388 188c0 -125.333 -72.666 -188 -217.999 -188h-98c-117.333 0 -197 24 -239 72c-42 -48 -121.333 -72 -238 -72s-196.334 24 -239.001 72c-44 -48 -130 -72 -258 -72h-98c-39.333 0 -73.833 17 -103.5 51s-44.5 79.667 -44.5 137h246c119.333 0 179 44.667 179 134
v100h157v-100c0 -89.333 53.667 -134 161 -134c106.667 0 160 44.667 160 134v100h157v-100c0 -89.333 53.333 -134 160 -134c106 0 159 26.667 159 80v367h157v-447zM920.001 -430h-177v147h177v-147zM1097 -221h-177v147h177v-147zM743.001 -221h-177v147h177v-147z" />
    <glyph glyph-name="uni069C.init" unicode="&#x69c;" horiz-adv-x="1487" 
d="M1388 188c0 -125.333 -72.666 -188 -217.999 -188h-98c-117.333 0 -197 24 -239 72c-42 -48 -121.333 -72 -238 -72s-196.334 24 -239.001 72c-44 -48 -130 -72 -258 -72h-98c-39.333 0 -73.833 17 -103.5 51s-44.5 79.667 -44.5 137h246c119.333 0 179 44.667 179 134
v100h157v-100c0 -89.333 53.667 -134 161 -134c106.667 0 160 44.667 160 134v100h157v-100c0 -89.333 53.333 -134 160 -134c106 0 159 26.667 159 80v367h157v-447zM920.001 -430h-177v147h177v-147zM1097 -221h-177v147h177v-147zM743.001 -221h-177v147h177v-147z
M848.001 926h-177v147h177v-147zM1025 717h-177v147h177v-147zM671.001 717h-177v147h177v-147z" />
    <glyph glyph-name="uni069D.init" unicode="&#x69d;" horiz-adv-x="2077" 
d="M661 188c186.667 218 350.833 377 492.5 477s278.5 150 410.5 150c118.667 0 225.667 -54 321 -162s143 -225.333 143 -352c0 -92 -51 -165.167 -153 -219.5s-240.333 -81.5 -415 -81.5h-909c-120.667 -0 -212.667 27.333 -276 82c-60 -54.667 -151.667 -82 -275 -82
c-39.333 0 -73.833 17 -103.5 51s-44.5 79.667 -44.5 137h153c128 0 192 63.667 192 191v10h157v-10c0 -127.333 64 -191 192 -191h115zM857.999 188l579.999 -0.000976562c130 0 234.667 11.5 314 34.5s119 52.5 119 88.5c0 88 -33.833 163 -101.5 225s-137.5 93 -209.5 93
c-111.333 0 -222.166 -34.667 -332.499 -104s-233.5 -181.666 -369.5 -336.999zM1701 -293.001h-176v147h176v-147zM1377 -293.001h-177v147h177v-147z" />
    <glyph glyph-name="uni069E.init" unicode="&#x69e;" horiz-adv-x="2077" 
d="M661 188c186.667 218 350.833 377 492.5 477s278.5 150 410.5 150c118.667 0 225.667 -54 321 -162s143 -225.333 143 -352c0 -92 -51 -165.167 -153 -219.5s-240.333 -81.5 -415 -81.5h-909c-120.667 -0 -212.667 27.333 -276 82c-60 -54.667 -151.667 -82 -275 -82
c-39.333 0 -73.833 17 -103.5 51s-44.5 79.667 -44.5 137h153c128 0 192 63.667 192 191v10h157v-10c0 -127.333 64 -191 192 -191h115zM857.999 188l579.999 -0.000976562c130 0 234.667 11.5 314 34.5s119 52.5 119 88.5c0 88 -33.833 163 -101.5 225s-137.5 93 -209.5 93
c-111.333 0 -222.166 -34.667 -332.499 -104s-233.5 -181.666 -369.5 -336.999zM1610 1167h-177v147h177v-147zM1787 957.999h-177v147h177v-147zM1433 957.999h-177v147h177v-147z" />
    <glyph glyph-name="uni06A0.init" unicode="&#x6a0;" horiz-adv-x="1334" 
d="M1214 184c-393.333 -122.667 -700.334 -184 -921.001 -184h-293c-39.333 0 -73.833 17 -103.5 51s-44.5 79.667 -44.5 137h488c-72 32.667 -129 80 -171 142s-63 124 -63 186c0 131.333 44.667 234.5 134 309.5s207 112.5 353 112.5
c191.333 0 351.666 -27.333 480.999 -82v-213h-12c-128 75.333 -281.333 113 -460 113c-109.333 0 -193.166 -23.667 -251.499 -71s-87.5 -104.333 -87.5 -171c0 -98 39.833 -172.667 119.5 -224s138.167 -77 175.5 -77c23.333 0 102.333 15.5 237 46.5
s274.334 68.833 419.001 113.5v-189zM690.999 1321h-177v147h177v-147zM867.999 1112h-177v147h177v-147zM513.999 1112h-177v147h177v-147z" />
    <glyph glyph-name="uni06A0.medi" unicode="&#x6a0;" horiz-adv-x="964" 
d="M964 0h-98.998c-116 -0 -244 38.333 -384 115c-139.333 -76.667 -267 -115 -383 -115h-98c-39.333 0 -73.833 17 -103.5 51s-44.5 79.667 -44.5 137h246c83.333 0 159.333 11 228 33c-168.667 133.333 -253 257 -253 371c0 77.333 37.5 137 112.5 179s173.5 63 295.5 63
c123.333 0 222.166 -21 296.499 -63s111.5 -101.667 111.5 -179c0 -114 -84.333 -237.667 -253 -371c69.333 -22 145.666 -33 228.999 -33h99v-188zM481.002 289c76 45.333 136.834 93.166 182.501 143.499s68.5 92.5 68.5 126.5c0 56 -83.667 84 -251 84
c-166 0 -249 -28 -249 -84c0 -34 22.667 -76.167 68 -126.5s105.666 -98.166 180.999 -143.499zM571.003 1217h-177v147h177v-147zM748.003 1008h-177v147h177v-147zM394.003 1008h-177v147h177v-147z" />
    <glyph glyph-name="uni06A0.fina" unicode="&#x6a0;" horiz-adv-x="1114" 
d="M1114 0h-26c-154 -0 -345.333 98.333 -574 295c-86.667 -54 -150.667 -102.333 -192 -145s-62 -92 -62 -148c0 -70.667 38.333 -128.334 115 -173.001s165.667 -67 267 -67c148.667 0 293.334 43 434.001 129h12v-213c-130.667 -68 -278.667 -102 -444 -102
c-148 0 -275.167 41 -381.5 123s-159.5 183 -159.5 303c0 78 24.5 144.5 73.5 199.5s128.5 115.5 238.5 181.5c-96 87.333 -162.5 155 -199.5 203s-55.5 99 -55.5 153c0 72 39 129.667 117 173s175 65 291 65c117.333 0 214.666 -21.5 291.999 -64.5
s116 -102.167 116 -177.5c0 -64 -20.667 -120.667 -62 -170s-133.333 -114.666 -276 -195.999c92 -76.667 168.667 -126 230 -148s128.333 -33 201 -33h45v-188zM541 455c96 54 165 98.332 207 132.999s63 69.334 63 104.001c0 26.667 -23 49 -69 67s-104 27 -174 27
c-68 0 -123.5 -8.83301 -166.5 -26.5s-64.5 -39.5 -64.5 -65.5c0 -24 15.5 -53.167 46.5 -87.5s83.5 -84.833 157.5 -151.5zM656 1360h-177v147h177v-147zM833 1151h-177v147h177v-147zM479 1151h-177v147h177v-147z" />
    <glyph glyph-name="uni06A2.init" unicode="&#x6a2;" horiz-adv-x="713" 
d="M546 467c-32.667 -27.333 -83.334 -41.001 -152.001 -41.001c-89.333 0 -166.666 28.5 -231.999 85.5s-98 134.167 -98 231.5c0 100.667 33 188.334 99 263.001s133 112 201 112c90 0 167.5 -54.5 232.5 -163.5s97.5 -257.167 97.5 -444.5
c0 -166 -42.333 -292.5 -127 -379.5s-205.667 -130.5 -363 -130.5h-204c-39.333 0 -73.833 17 -103.5 51s-44.5 79.667 -44.5 137h354c95.333 0 175.833 25.5 241.5 76.5s98.5 118.5 98.5 202.5zM530 646.999c0 74.667 -19 141.167 -57 199.5s-75.333 87.5 -112 87.5
c-32 0 -64.5 -18 -97.5 -54s-49.5 -79.333 -49.5 -130c0 -93.333 61.333 -140 184 -140c54 0 98 12.333 132 37zM457 -293.001h-177v147h177v-147z" />
    <glyph glyph-name="uni06A2.medi" unicode="&#x6a2;" horiz-adv-x="727" 
d="M727 0h-49c-96 -0 -200.667 33.333 -314 100c-114 -66.667 -219 -100 -315 -100h-49c-39.333 0 -73.833 17 -103.5 51s-44.5 79.667 -44.5 137h246c43.333 0 88 5.66699 134 17c-109.333 111.333 -164 215 -164 311c0 95.333 27.667 172.166 83 230.499
s126.333 87.5 213 87.5c86 0 156.667 -29.167 212 -87.5s83 -135.166 83 -230.499c0 -96 -54 -199.667 -162 -311c44.667 -11.333 88.667 -17 132 -17h98v-188zM364 266c92 72.667 138.001 152.667 138.001 240c0 39.333 -12.5 72 -37.5 98s-58.5 39 -100.5 39
c-42.667 0 -76.334 -13 -101.001 -39s-37 -58.667 -37 -98c0 -87.333 46 -167.333 138 -240zM457.001 -293h-177v147h177v-147z" />
    <glyph glyph-name="uni06A3.init" unicode="&#x6a3;" horiz-adv-x="713" 
d="M546 467c-32.667 -27.333 -83.334 -41.001 -152.001 -41.001c-89.333 0 -166.666 28.5 -231.999 85.5s-98 134.167 -98 231.5c0 100.667 33 188.334 99 263.001s133 112 201 112c90 0 167.5 -54.5 232.5 -163.5s97.5 -257.167 97.5 -444.5
c0 -166 -42.333 -292.5 -127 -379.5s-205.667 -130.5 -363 -130.5h-204c-39.333 0 -73.833 17 -103.5 51s-44.5 79.667 -44.5 137h354c95.333 0 175.833 25.5 241.5 76.5s98.5 118.5 98.5 202.5zM530 646.999c0 74.667 -19 141.167 -57 199.5s-75.333 87.5 -112 87.5
c-32 0 -64.5 -18 -97.5 -54s-49.5 -79.333 -49.5 -130c0 -93.333 61.333 -140 184 -140c54 0 98 12.333 132 37zM457 -293.001h-177v147h177v-147zM414 1292h-177v147h177v-147z" />
    <glyph glyph-name="uni06A3.medi" unicode="&#x6a3;" horiz-adv-x="727" 
d="M727 0h-49c-96 -0 -200.667 33.333 -314 100c-114 -66.667 -219 -100 -315 -100h-49c-39.333 0 -73.833 17 -103.5 51s-44.5 79.667 -44.5 137h246c43.333 0 88 5.66699 134 17c-109.333 111.333 -164 215 -164 311c0 95.333 27.667 172.166 83 230.499
s126.333 87.5 213 87.5c86 0 156.667 -29.167 212 -87.5s83 -135.166 83 -230.499c0 -96 -54 -199.667 -162 -311c44.667 -11.333 88.667 -17 132 -17h98v-188zM364 266c92 72.667 138.001 152.667 138.001 240c0 39.333 -12.5 72 -37.5 98s-58.5 39 -100.5 39
c-42.667 0 -76.334 -13 -101.001 -39s-37 -58.667 -37 -98c0 -87.333 46 -167.333 138 -240zM457.001 -293h-177v147h177v-147zM452.001 1008h-177v147h177v-147z" />
    <glyph glyph-name="uni06A4" unicode="&#x6a4;" horiz-adv-x="1942" arabic-form="final" 
d="M1799 1292h-177v147h177v-147zM1873 291c0 -93.333 -48.333 -165.168 -145 -215.501s-238.667 -75.5 -426 -75.5h-606c-400 0 -600 159 -600 477c0 76 12.333 156 37 240h157v-10c-24.667 -74 -37 -146.667 -37 -218c0 -106.667 34.833 -183.5 104.5 -230.5
s183.167 -70.5 340.5 -70.5h594c136 0 240.667 13 314 39s110 72 110 138v102c-31.333 -27.333 -75.666 -41 -132.999 -41c-88 0 -165 28.5 -231 85.5s-99 134.167 -99 231.5c0 100.667 33.167 188.334 99.5 263.001s133.166 112 200.499 112
c90 0 165.833 -54.167 227.5 -162.5s92.5 -256.833 92.5 -445.5v-219zM1703 652.998c0 62 -17.001 123.666 -51.001 184.999s-68 92 -102 92c-28.667 0 -59 -19.667 -91 -59s-48 -79.666 -48 -120.999c0 -38.667 16.833 -71 50.5 -97s75.834 -39 126.501 -39
c44 0 82.333 13 115 39zM1268 1292v147h177v-147h-177zM1445 1501v147h177v-147h-177z" />
    <glyph glyph-name="uni06A5.init" unicode="&#x6a5;" horiz-adv-x="713" 
d="M546 467c-32.667 -27.333 -83.334 -41.001 -152.001 -41.001c-89.333 0 -166.666 28.5 -231.999 85.5s-98 134.167 -98 231.5c0 100.667 33 188.334 99 263.001s133 112 201 112c90 0 167.5 -54.5 232.5 -163.5s97.5 -257.167 97.5 -444.5
c0 -166 -42.333 -292.5 -127 -379.5s-205.667 -130.5 -363 -130.5h-204c-39.333 0 -73.833 17 -103.5 51s-44.5 79.667 -44.5 137h354c95.333 0 175.833 25.5 241.5 76.5s98.5 118.5 98.5 202.5zM530 646.999c0 74.667 -19 141.167 -57 199.5s-75.333 87.5 -112 87.5
c-32 0 -64.5 -18 -97.5 -54s-49.5 -79.333 -49.5 -130c0 -93.333 61.333 -140 184 -140c54 0 98 12.333 132 37zM457 -430.001h-177v147h177v-147zM634 -221.001h-177v147h177v-147zM280 -221.001h-177v147h177v-147z" />
    <glyph glyph-name="uni06A5.medi" unicode="&#x6a5;" horiz-adv-x="727" 
d="M727 0h-49c-96 -0 -200.667 33.333 -314 100c-114 -66.667 -219 -100 -315 -100h-49c-39.333 0 -73.833 17 -103.5 51s-44.5 79.667 -44.5 137h246c43.333 0 88 5.66699 134 17c-109.333 111.333 -164 215 -164 311c0 95.333 27.667 172.166 83 230.499
s126.333 87.5 213 87.5c86 0 156.667 -29.167 212 -87.5s83 -135.166 83 -230.499c0 -96 -54 -199.667 -162 -311c44.667 -11.333 88.667 -17 132 -17h98v-188zM364 266c92 72.667 138.001 152.667 138.001 240c0 39.333 -12.5 72 -37.5 98s-58.5 39 -100.5 39
c-42.667 0 -76.334 -13 -101.001 -39s-37 -58.667 -37 -98c0 -87.333 46 -167.333 138 -240zM457.001 -430h-177v147h177v-147zM634.001 -221h-177v147h177v-147zM280.001 -221h-177v147h177v-147z" />
    <glyph glyph-name="uni06A6" unicode="&#x6a6;" horiz-adv-x="1942" arabic-form="final" 
d="M1873 291c0 -194 -190.336 -291 -571.003 -291h-606c-400 0 -600 159 -600 477c0 76 12.333 156 37 240h157v-10c-24.667 -74 -37 -146.667 -37 -218c0 -114 41.667 -194.667 125 -242c68.667 -39.333 175.334 -59 320.001 -59h594c282.667 0 424 59 424 177v102
c-31.333 -27.333 -75.666 -41 -132.999 -41c-87.333 0 -164.166 28.667 -230.499 86s-99.5 134.333 -99.5 231c0 78 26 156.667 78 236c61.333 92.667 135.333 139 222 139c120 0 208 -82 264 -246c37.333 -109.333 56 -230 56 -362v-219zM1703 653
c0 45.333 -13.332 99.001 -39.999 161.001c-32 77.333 -69.667 116 -113 116c-36 0 -69 -23.333 -99 -70c-26.667 -40.667 -40 -77.334 -40 -110.001c0 -40 17.167 -72.667 51.5 -98s76.166 -38 125.499 -38c44 0 82.333 13 115 39zM1784 1501h-176v147h176v-147zM1460 1501
h-177v147h177v-147zM1784 1292h-176v147h176v-147zM1460 1292h-177v147h177v-147z" />
    <glyph glyph-name="uni06A9" unicode="&#x6a9;" horiz-adv-x="1460" arabic-form="final" 
d="M983 188c85.333 0 144.833 8.33105 178.5 24.998s50.5 44.667 50.5 84c0 25.333 -15.667 52.5 -47 81.5s-96 82.5 -194 160.5l-349 274c-83.333 67.333 -125 133 -125 197c0 34.667 16.167 66.334 48.5 95.001s102.833 70 211.5 124l605 301v-197l-506 -250
c-33.333 -13.333 -63.5 -31 -90.5 -53s-40.5 -40.333 -40.5 -55c0 -37.333 36.667 -85.333 110 -144l340 -268c101.333 -80 166 -140.167 194 -180.5s42 -79.833 42 -118.5c0 -176 -142 -264 -426 -264h-513c-132 0 -233.5 26.333 -304.5 79s-106.5 129.334 -106.5 230.001
c0 26.667 3.33301 67 10 121h161v-10c-9.33301 -38 -14 -74.333 -14 -109c0 -82 84.667 -123 254 -123h511z" />
    <glyph glyph-name="uni06AA.init" unicode="&#x6aa;" horiz-adv-x="2404" 
d="M2375 341c0 -153.333 -170.332 -252.331 -510.999 -296.998c-223.333 -29.333 -681.333 -44 -1374 -44h-504c-50 0 -88.667 22.333 -116 67c-21.333 35.333 -32 75.666 -32 120.999h654c1090.67 0 1636 53 1636 159c0 46.667 -43 70 -129 70
c-121.333 0 -357.5 -10.833 -708.5 -32.5s-613.5 -32.5 -787.5 -32.5c-91.333 0 -163.833 17.667 -217.5 53s-80.5 85.666 -80.5 150.999c0 117.333 116.333 237.666 349 360.999c85.333 44.667 225.333 104.334 420 179.001v-197c-358 -127.333 -537 -230 -537 -308
c0 -36 42 -54 126 -54c170 0 412.667 10.5 728 31.5s553.666 31.5 714.999 31.5c126 0 221 -25.667 285 -77c56 -45.333 84 -106 84 -182z" />
    <glyph glyph-name="uni06AB.init" unicode="&#x6ab;" horiz-adv-x="968" 
d="M870 1333l-505.999 -250.001c-33.333 -13.333 -63.333 -31 -90 -53s-40 -40.333 -40 -55c0 -37.333 36.667 -85.333 110 -144l339 -268c101.333 -80 166 -140.167 194 -180.5s42 -79.833 42 -118.5c0 -176 -141.667 -264 -425 -264h-494c-39.333 0 -73.833 17 -103.5 51
s-44.5 79.667 -44.5 137h640c85.333 0 144.666 8.33301 177.999 25s50 44.667 50 84c0 25.333 -15.333 52.5 -46 81.5s-95.667 82.5 -195 160.5l-348 274c-84 67.333 -126 133 -126 197c0 34.667 16.333 66.334 49 95.001s103 70 211 124l605 301v-197zM617.001 1261
c47.333 0 87.666 -14 120.999 -42s50 -62 50 -102c0 -39.333 -16.667 -73 -50 -101s-73.666 -42 -120.999 -42c-48 0 -88.833 14 -122.5 42s-50.5 61.667 -50.5 101c0 40 16.833 74 50.5 102s74.5 42 122.5 42zM617.001 1040c25.333 0 47 7.5 65 22.5s27 33.167 27 54.5
s-9 39.666 -27 54.999s-39.667 23 -65 23c-26 0 -48.167 -7.66699 -66.5 -23s-27.5 -33.666 -27.5 -54.999s9.16699 -39.5 27.5 -54.5s40.5 -22.5 66.5 -22.5z" />
    <glyph glyph-name="uni06AC.init" unicode="&#x6ac;" horiz-adv-x="968" 
d="M870 1333l-505.999 -250.001c-33.333 -13.333 -63.333 -31 -90 -53s-40 -40.333 -40 -55c0 -37.333 36.667 -85.333 110 -144l339 -268c101.333 -80 166 -140.167 194 -180.5s42 -79.833 42 -118.5c0 -176 -141.667 -264 -425 -264h-494c-39.333 0 -73.833 17 -103.5 51
s-44.5 79.667 -44.5 137h640c85.333 0 144.666 8.33301 177.999 25s50 44.667 50 84c0 25.333 -15.333 52.5 -46 81.5s-95.667 82.5 -195 160.5l-348 274c-84 67.333 -126 133 -126 197c0 34.667 16.333 66.334 49 95.001s103 70 211 124l605 301v-197zM337.001 1383h-177
v147h177v-147z" />
    <glyph glyph-name="uni06AD" unicode="&#x6ad;" horiz-adv-x="1475" arabic-form="final" 
d="M1376 270c0 -82 -35.168 -147.501 -105.501 -196.501s-166.166 -73.5 -287.499 -73.5h-511c-132 0 -233.5 26.333 -304.5 79s-106.5 129.334 -106.5 230.001c0 26.667 3.33301 67 10 121h161v-10c-9.33301 -38 -14 -74.333 -14 -109c0 -82 84.667 -123 254 -123h501
c164 0 246 52 246 156v1212h157v-1286zM773.999 878.999c-109.333 0 -164 -15.9971 -164 -47.9971c0 -18.667 22.667 -32 68 -40l77 -15c67.333 -12 101 -42.667 101 -92c0 -44.667 -30.833 -79.334 -92.5 -104.001s-140.167 -37 -235.5 -37v69c162.667 0 244 22 244 66
c0 11.333 -7.83301 19.666 -23.5 24.999s-56 13.666 -121 24.999s-97.5 44.333 -97.5 99c0 38.667 21.833 68.5 65.5 89.5s103.167 31.5 178.5 31.5v-69zM876.999 1409h-177v147h177v-147zM1054 1200h-177v147h177v-147zM699.999 1200h-177v147h177v-147z" />
    <glyph glyph-name="uni06AE.init" unicode="&#x6ae;" horiz-adv-x="968" 
d="M870 1333l-505.999 -250.001c-33.333 -13.333 -63.333 -31 -90 -53s-40 -40.333 -40 -55c0 -37.333 36.667 -85.333 110 -144l339 -268c101.333 -80 166 -140.167 194 -180.5s42 -79.833 42 -118.5c0 -176 -141.667 -264 -425 -264h-494c-39.333 0 -73.833 17 -103.5 51
s-44.5 79.667 -44.5 137h640c85.333 0 144.666 8.33301 177.999 25s50 44.667 50 84c0 25.333 -15.333 52.5 -46 81.5s-95.667 82.5 -195 160.5l-348 274c-84 67.333 -126 133 -126 197c0 34.667 16.333 66.334 49 95.001s103 70 211 124l605 301v-197zM457.001 -430.001
h-177v147h177v-147zM634.001 -221.001h-177v147h177v-147zM280.001 -221.001h-177v147h177v-147z" />
    <glyph glyph-name="uni06AF" unicode="&#x6af;" horiz-adv-x="1460" arabic-form="final" 
d="M983 188c85.333 0 144.833 8.33105 178.5 24.998s50.5 44.667 50.5 84c0 25.333 -15.667 52.5 -47 81.5s-96 82.5 -194 160.5l-349 274c-83.333 67.333 -125 133 -125 197c0 34.667 16.167 66.334 48.5 95.001s102.833 70 211.5 124l605 301v-197l-506 -250
c-33.333 -13.333 -63.5 -31 -90.5 -53s-40.5 -40.333 -40.5 -55c0 -37.333 36.667 -85.333 110 -144l340 -268c101.333 -80 166 -140.167 194 -180.5s42 -79.833 42 -118.5c0 -176 -142 -264 -426 -264h-513c-132 0 -233.5 26.333 -304.5 79s-106.5 129.334 -106.5 230.001
c0 26.667 3.33301 67 10 121h161v-10c-9.33301 -38 -14 -74.333 -14 -109c0 -82 84.667 -123 254 -123h511zM1332 1649l-806 -402v101l806 401v-100z" />
    <glyph glyph-name="uni06B0.init" unicode="&#x6b0;" horiz-adv-x="968" 
d="M870 1333l-505.999 -250.001c-33.333 -13.333 -63.333 -31 -90 -53s-40 -40.333 -40 -55c0 -37.333 36.667 -85.333 110 -144l339 -268c101.333 -80 166 -140.167 194 -180.5s42 -79.833 42 -118.5c0 -176 -141.667 -264 -425 -264h-494c-39.333 0 -73.833 17 -103.5 51
s-44.5 79.667 -44.5 137h640c85.333 0 144.666 8.33301 177.999 25s50 44.667 50 84c0 25.333 -15.333 52.5 -46 81.5s-95.667 82.5 -195 160.5l-348 274c-84 67.333 -126 133 -126 197c0 34.667 16.333 66.334 49 95.001s103 70 211 124l605 301v-197zM840.001 1649
l-805 -402v101l805 401v-100zM617.001 1261c47.333 0 87.666 -14 120.999 -42s50 -62 50 -102c0 -39.333 -16.667 -73 -50 -101s-73.666 -42 -120.999 -42c-48 0 -88.833 14 -122.5 42s-50.5 61.667 -50.5 101c0 40 16.833 74 50.5 102s74.5 42 122.5 42zM617.001 1040
c25.333 0 47 7.5 65 22.5s27 33.167 27 54.5s-9 39.666 -27 54.999s-39.667 23 -65 23c-26 0 -48.167 -7.66699 -66.5 -23s-27.5 -33.666 -27.5 -54.999s9.16699 -39.5 27.5 -54.5s40.5 -22.5 66.5 -22.5z" />
    <glyph glyph-name="uni06B1" unicode="&#x6b1;" horiz-adv-x="1460" arabic-form="final" 
d="M983 188c85.333 0 144.833 8.33105 178.5 24.998s50.5 44.667 50.5 84c0 25.333 -15.667 52.5 -47 81.5s-96 82.5 -194 160.5l-349 274c-83.333 67.333 -125 133 -125 197c0 34.667 16.167 66.334 48.5 95.001s102.833 70 211.5 124l605 301v-197l-506 -250
c-33.333 -13.333 -63.5 -31 -90.5 -53s-40.5 -40.333 -40.5 -55c0 -37.333 36.667 -85.333 110 -144l340 -268c101.333 -80 166 -140.167 194 -180.5s42 -79.833 42 -118.5c0 -176 -142 -264 -426 -264h-513c-132 0 -233.5 26.333 -304.5 79s-106.5 129.334 -106.5 230.001
c0 26.667 3.33301 67 10 121h161v-10c-9.33301 -38 -14 -74.333 -14 -109c0 -82 84.667 -123 254 -123h511zM1332 1649l-806 -402v101l806 401v-100zM992 1670h-176v147h176v-147zM668 1670h-177v147h177v-147z" />
    <glyph glyph-name="uni06B2.init" unicode="&#x6b2;" horiz-adv-x="968" 
d="M870 1333l-505.999 -250.001c-33.333 -13.333 -63.333 -31 -90 -53s-40 -40.333 -40 -55c0 -37.333 36.667 -85.333 110 -144l339 -268c101.333 -80 166 -140.167 194 -180.5s42 -79.833 42 -118.5c0 -176 -141.667 -264 -425 -264h-494c-39.333 0 -73.833 17 -103.5 51
s-44.5 79.667 -44.5 137h640c85.333 0 144.666 8.33301 177.999 25s50 44.667 50 84c0 25.333 -15.333 52.5 -46 81.5s-95.667 82.5 -195 160.5l-348 274c-84 67.333 -126 133 -126 197c0 34.667 16.333 66.334 49 95.001s103 70 211 124l605 301v-197zM840.001 1649
l-805 -402v101l805 401v-100zM619.001 -293.001h-176v147h176v-147zM295.001 -293.001h-177v147h177v-147z" />
    <glyph glyph-name="uni06B3" unicode="&#x6b3;" horiz-adv-x="1460" arabic-form="final" 
d="M983 188c85.333 0 144.833 8.33105 178.5 24.998s50.5 44.667 50.5 84c0 25.333 -15.667 52.5 -47 81.5s-96 82.5 -194 160.5l-349 274c-83.333 67.333 -125 133 -125 197c0 34.667 16.167 66.334 48.5 95.001s102.833 70 211.5 124l605 301v-197l-506 -250
c-33.333 -13.333 -63.5 -31 -90.5 -53s-40.5 -40.333 -40.5 -55c0 -37.333 36.667 -85.333 110 -144l340 -268c101.333 -80 166 -140.167 194 -180.5s42 -79.833 42 -118.5c0 -176 -142 -264 -426 -264h-513c-132 0 -233.5 26.333 -304.5 79s-106.5 129.334 -106.5 230.001
c0 26.667 3.33301 67 10 121h161v-10c-9.33301 -38 -14 -74.333 -14 -109c0 -82 84.667 -123 254 -123h511zM1332 1649l-806 -402v101l806 401v-100zM817 -221.002h-176v147h176v-147zM817 -430.002h-176v148h176v-148z" />
    <glyph glyph-name="uni06B4.init" unicode="&#x6b4;" horiz-adv-x="968" 
d="M870 1333l-505.999 -250.001c-33.333 -13.333 -63.333 -31 -90 -53s-40 -40.333 -40 -55c0 -37.333 36.667 -85.333 110 -144l339 -268c101.333 -80 166 -140.167 194 -180.5s42 -79.833 42 -118.5c0 -176 -141.667 -264 -425 -264h-494c-39.333 0 -73.833 17 -103.5 51
s-44.5 79.667 -44.5 137h640c85.333 0 144.666 8.33301 177.999 25s50 44.667 50 84c0 25.333 -15.333 52.5 -46 81.5s-95.667 82.5 -195 160.5l-348 274c-84 67.333 -126 133 -126 197c0 34.667 16.333 66.334 49 95.001s103 70 211 124l605 301v-197zM840.001 1649
l-805 -402v101l805 401v-100zM169.001 1741h-177v147h177v-147zM346.001 1532h-177v147h177v-147zM-7.99902 1532h-177v147h177v-147z" />
    <glyph glyph-name="uni06B5.init" unicode="&#x6b5;" horiz-adv-x="530" 
d="M432 270c0 -82 -35 -147.5 -105 -196.5s-165.667 -73.5 -287 -73.5h-40c-39.333 0 -73.833 17 -103.5 51s-44.5 79.667 -44.5 137h178c163.333 0 245 52 245 156v1212h157v-1286zM479 1880l-159 -270h-89l-160 270h88l116 -202l117 202h87z" />
    <glyph glyph-name="uni06B5.medi" unicode="&#x6b5;" horiz-adv-x="530" 
d="M432 270c0 -82 -35 -147.5 -105 -196.5s-165.667 -73.5 -287 -73.5h-40c-39.333 0 -73.833 17 -103.5 51s-44.5 79.667 -44.5 137h178c163.333 0 245 52 245 156v1212h157v-1286zM479 1880l-159 -270h-89l-160 270h88l116 -202l117 202h87z" />
    <glyph glyph-name="uni06B6.init" unicode="&#x6b6;" horiz-adv-x="530" 
d="M432 270c0 -82 -35 -147.5 -105 -196.5s-165.667 -73.5 -287 -73.5h-40c-39.333 0 -73.833 17 -103.5 51s-44.5 79.667 -44.5 137h178c163.333 0 245 52 245 156v1212h157v-1286zM359 1662h-177v147h177v-147z" />
    <glyph glyph-name="uni06B6.medi" unicode="&#x6b6;" horiz-adv-x="530" 
d="M432 270c0 -82 -35 -147.5 -105 -196.5s-165.667 -73.5 -287 -73.5h-40c-39.333 0 -73.833 17 -103.5 51s-44.5 79.667 -44.5 137h178c163.333 0 245 52 245 156v1212h157v-1286zM359 1662h-177v147h177v-147z" />
    <glyph glyph-name="uni06B7.init" unicode="&#x6b7;" horiz-adv-x="530" 
d="M353 1741h-178v147h178v-147zM529 1532h-176v147h176v-147zM175 1532h-176v147h176v-147zM432 270c0 -89.333 -39.999 -158 -119.999 -206c-70.667 -42.667 -161.334 -64 -272.001 -64h-40c-48.667 -0 -87 22.333 -115 67c-22 36 -33 76.333 -33 121h178
c163.333 0 245 52 245 156v1129h157v-1203z" />
    <glyph glyph-name="uni06B7.medi" unicode="&#x6b7;" horiz-adv-x="530" 
d="M353 1741h-178v147h178v-147zM529 1532h-176v147h176v-147zM175 1532h-176v147h176v-147zM432 270c0 -89.333 -39.999 -158 -119.999 -206c-70.667 -42.667 -161.334 -64 -272.001 -64h-40c-48.667 -0 -87 22.333 -115 67c-22 36 -33 76.333 -33 121h178
c163.333 0 245 52 245 156v1129h157v-1203z" />
    <glyph glyph-name="uni06B8.init" unicode="&#x6b8;" horiz-adv-x="530" 
d="M432 270c0 -82 -35 -147.5 -105 -196.5s-165.667 -73.5 -287 -73.5h-40c-39.333 0 -73.833 17 -103.5 51s-44.5 79.667 -44.5 137h178c163.333 0 245 52 245 156v1212h157v-1286zM354 -430h-177v147h177v-147zM531 -221h-177v147h177v-147zM177 -221h-177v147h177v-147z
" />
    <glyph glyph-name="uni06B8.medi" unicode="&#x6b8;" horiz-adv-x="530" 
d="M432 270c0 -82 -35 -147.5 -105 -196.5s-165.667 -73.5 -287 -73.5h-40c-39.333 0 -73.833 17 -103.5 51s-44.5 79.667 -44.5 137h178c163.333 0 245 52 245 156v1212h157v-1286zM354 -430h-177v147h177v-147zM531 -221h-177v147h177v-147zM177 -221h-177v147h177v-147z
" />
    <glyph glyph-name="uni06B9.init" unicode="&#x6b9;" horiz-adv-x="600" 
d="M502 270c0 -82 -35.333 -147.5 -106 -196.5s-166.667 -73.5 -288 -73.5h-108c-39.333 0 -73.833 17 -103.5 51s-44.5 79.667 -44.5 137h246c164 0 246 52 246 156v373h158v-447zM428 891h-177v147h177v-147zM335 -293h-177v147h177v-147z" />
    <glyph glyph-name="uni06BA" unicode="&#x6ba;" horiz-adv-x="1302" arabic-form="final" 
d="M1234 401c21.333 -80 32 -156.333 32 -229c0 -184.667 -52 -330.167 -156 -436.5s-252.667 -159.5 -446 -159.5c-194 0 -343 53.167 -447 159.5s-156 251.833 -156 436.5c0 72.667 11 149 33 229h157v-10c-22 -64 -33 -133 -33 -207c0 -280 148.667 -420 446 -420
c296.667 0 445 140 445 420c0 38 -5.66699 83.667 -17 137l-16 70v10h158z" />
    <glyph glyph-name="uni06BB" unicode="&#x6bb;" horiz-adv-x="1302" arabic-form="final" 
d="M1234 401c21.333 -80 32 -156.333 32 -229c0 -184.667 -52 -330.167 -156 -436.5s-252.667 -159.5 -446 -159.5c-194 0 -343 53.167 -447 159.5s-156 251.833 -156 436.5c0 72.667 11 149 33 229h157v-10c-22 -64 -33 -133 -33 -207c0 -280 148.667 -420 446 -420
c296.667 0 445 140 445 420c0 38 -5.66699 83.667 -17 137l-16 70v10h158zM896 608c0 -72 -64 -108.001 -192 -108.001h-272v67h79v413h69v-328c46.667 94 102.667 141 168 141c45.333 0 82.333 -22.333 111 -67c24.667 -37.333 37 -76.666 37 -117.999zM830 611.999
c0 23.333 -6 46.333 -18 69c-16 30 -38 45 -66 45c-46.667 0 -102 -53 -166 -159h116c89.333 0 134 15 134 45z" />
    <glyph glyph-name="uni06BC.init" unicode="&#x6bc;" horiz-adv-x="600" 
d="M502 270c0 -82 -35.333 -147.5 -106 -196.5s-166.667 -73.5 -288 -73.5h-108c-39.333 0 -73.833 17 -103.5 51s-44.5 79.667 -44.5 137h246c164 0 246 52 246 156v373h158v-447zM428 891h-177v147h177v-147zM257 79c47.333 0 87.666 -14 120.999 -42s50 -62 50 -102
c0 -39.333 -16.667 -73 -50 -101s-73.666 -42 -120.999 -42c-48 0 -88.833 14 -122.5 42s-50.5 61.667 -50.5 101c0 40 16.833 74 50.5 102s74.5 42 122.5 42zM257 -142c25.333 0 47 7.5 65 22.5s27 33.167 27 54.5s-9 39.666 -27 54.999s-39.667 23 -65 23
c-26 0 -48.167 -7.66699 -66.5 -23s-27.5 -33.666 -27.5 -54.999s9.16699 -39.5 27.5 -54.5s40.5 -22.5 66.5 -22.5z" />
    <glyph glyph-name="uni06BD.init" unicode="&#x6bd;" horiz-adv-x="600" 
d="M502 270c0 -82 -35.333 -147.5 -106 -196.5s-166.667 -73.5 -288 -73.5h-108c-39.333 0 -73.833 17 -103.5 51s-44.5 79.667 -44.5 137h246c164 0 246 52 246 156v373h158v-447zM511 -221h-176v147h176v-147zM157 -221h-176v147h176v-147zM335 -430h-178v147h178v-147z
" />
    <glyph glyph-name="uni06BE" unicode="&#x647;" horiz-adv-x="1106" arabic-form="initial" 
d="M138 1104l49 0.000976562c198.667 0 393.834 -90.167 585.501 -270.5s287.5 -356.5 287.5 -528.5c0 -203.333 -143.667 -305 -431 -305h-629c-39.333 0 -73.833 17 -103.5 51s-44.5 79.667 -44.5 137h293c-52.667 70 -79 141.667 -79 215
c0 113.333 27.167 203.166 81.5 269.499s126.5 99.5 216.5 99.5c105.333 0 192.666 -44.333 261.999 -133s104 -189 104 -301c0 -56.667 -15 -106.667 -45 -150h37c120 0 180 43 180 129c0 122 -69.167 252.167 -207.5 390.5s-306.5 207.5 -504.5 207.5h-52v189z
M420 168.001c49.333 0 87 15.167 113 45.5s39 69.833 39 118.5c0 67.333 -18.5 125.833 -55.5 175.5s-87.833 74.5 -152.5 74.5c-44 0 -78.5 -18.333 -103.5 -55s-37.5 -82.667 -37.5 -138c0 -59.333 18.167 -111 54.5 -155s83.833 -66 142.5 -66z" />
    <glyph glyph-name="uni06BF.init" unicode="&#x6bf;" horiz-adv-x="1334" 
d="M1236 184c-142.667 0 -352.169 -30.667 -628.502 -92s-478.833 -92 -607.5 -92c-39.333 0 -73.833 17 -103.5 51s-44.5 79.667 -44.5 137h155c114.667 0 290.5 26.833 527.5 80.5s399.5 82.834 487.5 87.501c-242 182 -503 273 -783 273h-114v186h126
c64.667 0 127.334 -5.33301 188.001 -16c60 -10.667 119.667 -26.667 179 -48c58.667 -20.667 118.334 -47.334 179.001 -80.001c57.333 -31.333 118.333 -69 183 -113c60 -40.667 126 -89 198 -145l52 -41h2l4 1v-189zM1020 -221h-178v147h178v-147zM665.998 -221h-176v147
h176v-147zM841.998 -430h-176v147h176v-147zM854.998 936h-177v147h177v-147z" />
    <glyph glyph-name="uni06BF.fina" unicode="&#x6bf;" horiz-adv-x="1334" 
d="M1334 0l-39.001 -0.000976562c-108 0 -186.667 25.333 -236 76s-74 131.667 -74 243v218c-227.333 -9.33301 -405 -51.333 -533 -126s-192 -172 -192 -292c0 -114 49.333 -202.333 148 -265s224 -94 376 -94c214.667 0 386.667 37 516 111h13v-199
c-128 -64 -303.667 -96 -527 -96c-198.667 0 -362.167 48.667 -490.5 146s-192.5 228.333 -192.5 393c0 165.333 87 297.333 261 396s392 148 654 148c-210 75.333 -461.667 113 -755 113h-94v186h106c150 0 312.333 -25.667 487 -77s338.334 -121.666 491.001 -210.999
v-131h-111v-164c0 -78.667 12.5 -129.5 37.5 -152.5s61.833 -34.5 110.5 -34.5h44v-188zM886.999 110.999h-177v147h177v-147zM532.999 110.999h-177v147h177v-147zM709.999 -98.001h-177v147h177v-147zM922.999 1120h-177v147h177v-147z" />
    <glyph glyph-name="uni06C0" unicode="&#x6c0;" horiz-adv-x="762" arabic-form="isolated" 
d="M136 930c172.667 -8.66699 312.001 -67.499 418.001 -176.499s159 -229.167 159 -360.5c0 -122.667 -30.167 -220.834 -90.5 -294.501s-136.5 -110.5 -228.5 -110.5c-98.667 0 -176.834 33.333 -234.501 100s-86.5 161.667 -86.5 285c0 132 53.667 257.667 161 377
c-29.333 6.66699 -62 10 -98 10v170zM556.001 393.001c0 135.333 -65.666 239.999 -196.999 313.999c-84.667 -91.333 -127 -202.666 -127 -333.999c0 -63.333 14.667 -112 44 -146s68.666 -51 117.999 -51c108 0 162 72.333 162 217zM440.002 1104h-301.999v70h67
c-34.667 16 -52 41.667 -52 77c0 34 14.667 62.667 44 86s67.333 35 114 35c44 0 78.333 -4 103 -12v-74c-28.667 11.333 -62.334 17 -101.001 17c-52.667 0 -79 -17.333 -79 -52c0 -21.333 13.5 -39.5 40.5 -54.5s60.167 -22.5 99.5 -22.5h66v-70z" />
    <glyph glyph-name="uni06C1" unicode="&#x6c1;" horiz-adv-x="1306" arabic-form="final" 
d="M1306 0c-201.333 0 -322.333 68.668 -363 206.001c-16 53.333 -32 91.333 -48 114c-26 36.667 -62.667 55 -110 55c-82.667 0 -167.667 -61 -255 -183c-69.333 -98.667 -136 -221.334 -200 -368.001h-210v10c130.667 242 227 402.667 289 482
c118.667 148.667 243 223 373 223c155.333 0 263.333 -80.667 324 -242c17.333 -44.667 35 -74 53 -88s67 -21 147 -21v-188z" />
    <glyph glyph-name="uni06C5" unicode="&#x6c5;" horiz-adv-x="1042" arabic-form="final" 
d="M943 197c0 -220.667 -94.332 -383.666 -282.999 -488.999c-160 -88 -380 -132 -660 -132v188c333.333 0 562.666 55.667 687.999 167h-483v108h562c14 34.667 21 73 21 115c-32.667 -27.333 -76.667 -41 -132 -41c-100.667 0 -180.667 32.667 -240 98
c-54 59.333 -81 132.333 -81 219c0 77.333 25 155.666 75 234.999c59.333 93.333 131.333 140 216 140c115.333 0 201.333 -83 258 -249c39.333 -113.333 59 -233 59 -359zM774.001 340.001c0 44.667 -12.668 98 -38.001 160c-32 77.333 -69.333 116 -112 116
c-37.333 0 -69.666 -23 -96.999 -69c-23.333 -39.333 -35 -76.333 -35 -111c0 -40 16 -72.5 48 -97.5s72.333 -37.5 121 -37.5c52 0 89.667 13 113 39z" />
    <glyph glyph-name="uni06C6" unicode="&#x6c6;" horiz-adv-x="1042" arabic-form="final" 
d="M788 154c-32.667 -27.333 -76.668 -40.999 -132.001 -40.999c-88 0 -163.5 28.333 -226.5 85s-94.5 134 -94.5 232c0 100.667 31.833 188.334 95.5 263.001s128.834 112 195.501 112c84 0 157.833 -54.833 221.5 -164.5s95.5 -257.5 95.5 -443.5
c0 -202.667 -80.167 -356.834 -240.5 -462.501s-394.5 -158.5 -702.5 -158.5v188c260 0 456.333 33.667 589 101s199 163.666 199 288.999zM773.999 340.001c0 62 -16.833 123.498 -50.5 184.498s-66.834 91.5 -99.501 91.5c-31.333 0 -61.166 -19.167 -89.499 -57.5
s-42.5 -79.166 -42.5 -122.499c0 -39.333 15.833 -71.666 47.5 -96.999s72.167 -38 121.5 -38c52 0 89.667 13 113 39zM774.999 1249l-159 -270h-89l-160 270h88l116 -202l117 202h87z" />
    <glyph glyph-name="uni06C7" unicode="&#x6c7;" horiz-adv-x="1042" arabic-form="final" 
d="M788 154c-32.667 -27.333 -76.668 -40.999 -132.001 -40.999c-88 0 -163.5 28.333 -226.5 85s-94.5 134 -94.5 232c0 100.667 31.833 188.334 95.5 263.001s128.834 112 195.501 112c84 0 157.833 -54.833 221.5 -164.5s95.5 -257.5 95.5 -443.5
c0 -202.667 -80.167 -356.834 -240.5 -462.501s-394.5 -158.5 -702.5 -158.5v188c260 0 456.333 33.667 589 101s199 163.666 199 288.999zM773.999 340.001c0 62 -16.833 123.498 -50.5 184.498s-66.834 91.5 -99.501 91.5c-31.333 0 -61.166 -19.167 -89.499 -57.5
s-42.5 -79.166 -42.5 -122.499c0 -39.333 15.833 -71.666 47.5 -96.999s72.167 -38 121.5 -38c52 0 89.667 13 113 39zM715.999 978.999l-112 22.999c-102 -51.333 -212.667 -80 -332 -86v70c80 1.33301 160 16.333 240 45c-74.667 24.667 -112 62.667 -112 114
c0 36.667 14 66 42 88s64.667 33 110 33c43.333 0 80 -11.667 110 -35s45 -52.666 45 -87.999c0 -28.667 -15.667 -58 -47 -88l56 -10v-66zM583.999 1070c26 22 39.001 46.332 39.001 72.999c0 14.667 -6.83301 27.334 -20.5 38.001s-29.834 16 -48.501 16
c-46.667 0 -70 -18 -70 -54c0 -34 33.333 -58.333 100 -73z" />
    <glyph glyph-name="uni06C8" unicode="&#x6c8;" horiz-adv-x="1042" arabic-form="final" 
d="M788 154c-32.667 -27.333 -76.668 -40.999 -132.001 -40.999c-88 0 -163.5 28.333 -226.5 85s-94.5 134 -94.5 232c0 100.667 31.833 188.334 95.5 263.001s128.834 112 195.501 112c84 0 157.833 -54.833 221.5 -164.5s95.5 -257.5 95.5 -443.5
c0 -202.667 -80.167 -356.834 -240.5 -462.501s-394.5 -158.5 -702.5 -158.5v188c260 0 456.333 33.667 589 101s199 163.666 199 288.999zM773.999 340.001c0 62 -16.833 123.498 -50.5 184.498s-66.834 91.5 -99.501 91.5c-31.333 0 -61.166 -19.167 -89.499 -57.5
s-42.5 -79.166 -42.5 -122.499c0 -39.333 15.833 -71.666 47.5 -96.999s72.167 -38 121.5 -38c52 0 89.667 13 113 39zM625.999 978.999h-84v513h84v-513z" />
    <glyph glyph-name="uni06C9" unicode="&#x6c9;" horiz-adv-x="1042" arabic-form="final" 
d="M788 154c-32.667 -27.333 -76.668 -40.999 -132.001 -40.999c-88 0 -163.5 28.333 -226.5 85s-94.5 134 -94.5 232c0 100.667 31.833 188.334 95.5 263.001s128.834 112 195.501 112c84 0 157.833 -54.833 221.5 -164.5s95.5 -257.5 95.5 -443.5
c0 -202.667 -80.167 -356.834 -240.5 -462.501s-394.5 -158.5 -702.5 -158.5v188c260 0 456.333 33.667 589 101s199 163.666 199 288.999zM773.999 340.001c0 62 -16.833 123.498 -50.5 184.498s-66.834 91.5 -99.501 91.5c-31.333 0 -61.166 -19.167 -89.499 -57.5
s-42.5 -79.166 -42.5 -122.499c0 -39.333 15.833 -71.666 47.5 -96.999s72.167 -38 121.5 -38c52 0 89.667 13 113 39zM747.999 978.999l-153 202l-152 -202h-88l196 270h89l195 -270h-87z" />
    <glyph glyph-name="uni06CB" unicode="&#x6cb;" horiz-adv-x="1042" arabic-form="final" 
d="M788 154c-32.667 -27.333 -76.668 -40.999 -132.001 -40.999c-88 0 -163.5 28.333 -226.5 85s-94.5 134 -94.5 232c0 100.667 31.833 188.334 95.5 263.001s128.834 112 195.501 112c84 0 157.833 -54.833 221.5 -164.5s95.5 -257.5 95.5 -443.5
c0 -202.667 -80.167 -356.834 -240.5 -462.501s-394.5 -158.5 -702.5 -158.5v188c260 0 456.333 33.667 589 101s199 163.666 199 288.999zM773.999 340.001c0 62 -16.833 123.498 -50.5 184.498s-66.834 91.5 -99.501 91.5c-31.333 0 -61.166 -19.167 -89.499 -57.5
s-42.5 -79.166 -42.5 -122.499c0 -39.333 15.833 -71.666 47.5 -96.999s72.167 -38 121.5 -38c52 0 89.667 13 113 39zM700.999 1188h-177v147h177v-147zM877.999 978.999h-177v147h177v-147zM523.999 978.999h-177v147h177v-147z" />
    <glyph glyph-name="uni06CC" unicode="&#x6cc;" horiz-adv-x="1573" arabic-form="isolated" 
d="M1487 866l-11.9971 -0.00195312c-120 58.667 -248 88 -384 88c-66 0 -120.5 -12 -163.5 -36s-64.5 -53 -64.5 -87c0 -29.333 15.167 -57.166 45.5 -83.499s110.5 -67 240.5 -122s217.167 -103.167 261.5 -144.5s66.5 -90.333 66.5 -147
c0 -107.333 -71 -189.833 -213 -247.5s-352 -86.5 -630 -86.5c-398 0 -597 147.333 -597 442c0 66 8 150 24 252h160v-10c-18 -90 -27 -170 -27 -240c0 -88.667 35 -153.5 105 -194.5s182.333 -61.5 337 -61.5c221.333 0 390.666 14 507.999 42s176 64 176 108
c0 28 -18.833 55.167 -56.5 81.5s-115.834 63.5 -234.501 111.5s-202.167 95.833 -250.5 143.5s-72.5 100.834 -72.5 159.501c0 81.333 37.5 152.5 112.5 213.5s173.5 91.5 295.5 91.5c133.333 0 257.666 -20 372.999 -60v-213z" />
    <glyph glyph-name="uni06CD.fina" unicode="&#x6cd;" horiz-adv-x="1709" 
d="M1709 0c-135.333 0 -232.668 54.667 -292.001 164c-4 7.33301 -31 70.333 -81 189c-38.667 90 -69.667 145 -93 165c-26 23.333 -60 35 -102 35c-73.333 0 -110 -29.333 -110 -88c0 -36.667 28.667 -83.667 86 -141c76.667 -76.667 115 -152.667 115 -228
c0 -176 -150 -264 -450 -264c-157.333 0 -280 44.667 -368 134c-81.333 82.667 -122 191 -122 325c0 26.667 2.33301 60.667 7 102l-293 -78v96l469 131v-10c-17.333 -90 -26 -170 -26 -240c0 -181.333 112 -272 336 -272c190 0 285 39 285 117
c0 35.333 -29.333 82.666 -88 141.999c-75.333 74.667 -113 148.334 -113 221.001c0 74 23.333 132.667 70 176s114 65 202 65c90.667 0 160.334 -28 209.001 -84c31.333 -35.333 62.333 -98 93 -188s57.667 -151.333 81 -184c45.333 -64.667 107 -97 185 -97v-188z" />
    <glyph glyph-name="uni06CE.init" unicode="&#x6ce;" horiz-adv-x="600" 
d="M502 270c0 -82 -35.333 -147.5 -106 -196.5s-166.667 -73.5 -288 -73.5h-108c-39.333 0 -73.833 17 -103.5 51s-44.5 79.667 -44.5 137h246c164 0 246 52 246 156v373h158v-447zM501 -293h-176v147h176v-147zM177 -293h-177v147h177v-147zM548 1161l-159 -270h-89
l-160 270h88l116 -202l117 202h87z" />
    <glyph glyph-name="uni06CE.fina" unicode="&#x6ce;" horiz-adv-x="1454" 
d="M1454 0c-76 0 -137 14.8301 -183 44.4971s-82.333 69.334 -109 119.001s-55.667 115.334 -87 197.001s-60.333 134.167 -87 157.5s-60.334 35 -101.001 35c-74 0 -111 -29.333 -111 -88c0 -36.667 29 -83.667 87 -141c76.667 -76.667 115 -152.667 115 -228
c0 -176 -150 -264 -450 -264c-147.333 0 -266 40.667 -356 122s-135 193.666 -135 336.999c0 43.333 5.66699 100 17 170h160v-10c-13.333 -44 -20 -96.667 -20 -158c0 -97.333 27.667 -167.166 83 -209.499s139.666 -63.5 252.999 -63.5c190.667 0 286 39 286 117
c0 34.667 -29.667 82 -89 142c-75.333 74 -113 147.667 -113 221c0 72.667 23.333 131 70 175s114.334 66 203.001 66c63.333 0 119 -14.667 167 -44s93.167 -105.666 135.5 -228.999s82.833 -200.833 121.5 -232.5s86.334 -47.5 143.001 -47.5v-188zM559 984.997l-159 -270
h-89l-160 270h88l116 -202l117 202h87z" />
    <glyph glyph-name="uni06D0" unicode="&#x6d0;" horiz-adv-x="1573" arabic-form="isolated" 
d="M1487 866l-11.9971 -0.00195312c-120 58.667 -248 88 -384 88c-66 0 -120.5 -12 -163.5 -36s-64.5 -53 -64.5 -87c0 -29.333 15.167 -57.166 45.5 -83.499s110.5 -67 240.5 -122s217.167 -103.167 261.5 -144.5s66.5 -90.333 66.5 -147
c0 -107.333 -71 -189.833 -213 -247.5s-352 -86.5 -630 -86.5c-398 0 -597 147.333 -597 442c0 66 8 150 24 252h160v-10c-18 -90 -27 -170 -27 -240c0 -88.667 35 -153.5 105 -194.5s182.333 -61.5 337 -61.5c221.333 0 390.666 14 507.999 42s176 64 176 108
c0 28 -18.833 55.167 -56.5 81.5s-115.834 63.5 -234.501 111.5s-202.167 95.833 -250.5 143.5s-72.5 100.834 -72.5 159.501c0 81.333 37.5 152.5 112.5 213.5s173.5 91.5 295.5 91.5c133.333 0 257.666 -20 372.999 -60v-213zM745.003 -221.002h-176v147h176v-147z
M745.003 -430.002h-176v148h176v-148z" />
    <glyph glyph-name="uni06D1.fina" unicode="&#x6d1;" horiz-adv-x="1454" 
d="M1454 0c-125.333 0 -219.334 54.332 -282.001 162.999l-114 303c-40.667 108.667 -97.667 163 -171 163c-74 0 -111 -29.333 -111 -88c0 -31.333 27.5 -77 82.5 -137s82.5 -119.333 82.5 -178c0 -83.333 -31.333 -144.333 -94 -183c-66 -40.667 -172.333 -61 -319 -61
c-160 0 -282.667 34.667 -368 104c-82 66.667 -123 158.334 -123 275.001c0 43.333 5.66699 100 17 170h160v-10c-13.333 -44 -20 -96.667 -20 -158c0 -69.333 27.667 -119.333 83 -150c52 -28.667 136.333 -43 253 -43c94.667 0 159.834 7.5 195.501 22.5
s53.5 42.167 53.5 81.5c0 30.667 -27.5 75.167 -82.5 133.5s-82.5 114.5 -82.5 168.5c0 74 23.5 132.667 70.5 176s114.5 65 202.5 65c115.333 0 198.333 -54.333 249 -163l104 -303c44.667 -108.667 116 -163 214 -163v-188zM825.999 -221.001h-177v147h177v-147z
M471.999 -221.001h-177v147h177v-147zM648.999 -430.001h-177v147h177v-147z" />
    <glyph glyph-name="uni06D2" unicode="&#x6d2;" horiz-adv-x="2104" arabic-form="isolated" 
d="M2260 -112c0 -45.333 -11.002 -85.667 -33.002 -121c-27.333 -44.667 -65.666 -67 -115 -67h-1560c-352.667 0 -529 63 -529 189c0 60.667 31 109.667 93 147c40 24 117.333 53.333 232 88c130.667 40 228.334 75 293.001 105c60 28 136 96.333 228 205
c76.667 90.667 145 136 205 136c78.667 0 158.334 -60.667 239.001 -182v-188l-94 122c-52 60.667 -93 91 -123 91c-16 0 -56 -38.333 -120 -115c-73.333 -88.667 -139 -148 -197 -178c-79.333 -41.333 -193 -81 -341 -119c-112 -28.667 -168 -51 -168 -67
c0 -30.667 69.333 -46 208 -46h1782z" />
    <glyph glyph-name="uni06D3" unicode="&#x6d3;" horiz-adv-x="2104" arabic-form="isolated" 
d="M2260 -112c0 -45.333 -11.002 -85.667 -33.002 -121c-27.333 -44.667 -65.666 -67 -115 -67h-1560c-352.667 0 -529 63 -529 189c0 60.667 31 109.667 93 147c40 24 117.333 53.333 232 88c130.667 40 228.334 75 293.001 105c60 28 136 96.333 228 205
c76.667 90.667 145 136 205 136c78.667 0 158.334 -60.667 239.001 -182v-188l-94 122c-52 60.667 -93 91 -123 91c-16 0 -56 -38.333 -120 -115c-73.333 -88.667 -139 -148 -197 -178c-79.333 -41.333 -193 -81 -341 -119c-112 -28.667 -168 -51 -168 -67
c0 -30.667 69.333 -46 208 -46h1782zM1195 724.999h-301.999v70h67c-34.667 16 -52 41.667 -52 77c0 34 14.667 62.667 44 86s67.333 35 114 35c44 0 78.333 -4 103 -12v-74c-28.667 11.333 -62.334 17 -101.001 17c-52.667 0 -79 -17.333 -79 -52
c0 -21.333 13.5 -39.5 40.5 -54.5s60.167 -22.5 99.5 -22.5h66v-70z" />
    <glyph glyph-name="uni06EE.fina" unicode="&#x6ee;" horiz-adv-x="835" 
d="M228 956c372 -227.333 558.001 -437.999 558.001 -631.999c0 -98.667 -37.833 -177.334 -113.5 -236.001s-184.167 -88 -325.5 -88h-335v188h332c89.333 0 159.166 13 209.499 39s75.5 57.667 75.5 95c0 122 -137.667 255 -413 399v235h12zM436.001 1100l-153 202
l-152 -202h-88l196 270h89l195 -270h-87z" />
    <glyph glyph-name="uni06EF.fina" unicode="&#x6ef;" horiz-adv-x="1192" 
d="M943 516c84 -109.333 126 -219.334 126 -330.001c0 -199.333 -90.833 -350.833 -272.5 -454.5s-414.5 -155.5 -698.5 -155.5v188c244 0 440.667 33.333 590 100s224 163.334 224 290.001c0 109.333 -66.333 226 -199 350v12h230zM904 689.999l-153 202l-152 -202h-88
l196 270h89l195 -270h-87z" />
    <glyph glyph-name="uni06FA.init" unicode="&#x6fa;" horiz-adv-x="1487" 
d="M1388 188c0 -125.333 -72.666 -188 -217.999 -188h-98c-117.333 0 -197 24 -239 72c-42 -48 -121.333 -72 -238 -72s-196.334 24 -239.001 72c-44 -48 -130 -72 -258 -72h-98c-39.333 0 -73.833 17 -103.5 51s-44.5 79.667 -44.5 137h246c119.333 0 179 44.667 179 134
v100h157v-100c0 -89.333 53.667 -134 161 -134c106.667 0 160 44.667 160 134v100h157v-100c0 -89.333 53.333 -134 160 -134c106 0 159 26.667 159 80v367h157v-447zM920.001 -293h-177v147h177v-147zM848.001 926h-177v147h177v-147zM1025 717h-177v147h177v-147z
M671.001 717h-177v147h177v-147z" />
    <glyph glyph-name="uni06FB.init" unicode="&#x6fb;" horiz-adv-x="2077" 
d="M661 188c186.667 218 350.833 377 492.5 477s278.5 150 410.5 150c118.667 0 225.667 -54 321 -162s143 -225.333 143 -352c0 -92 -51 -165.167 -153 -219.5s-240.333 -81.5 -415 -81.5h-909c-120.667 -0 -212.667 27.333 -276 82c-60 -54.667 -151.667 -82 -275 -82
c-39.333 0 -73.833 17 -103.5 51s-44.5 79.667 -44.5 137h153c128 0 192 63.667 192 191v10h157v-10c0 -127.333 64 -191 192 -191h115zM857.999 188l579.999 -0.000976562c130 0 234.667 11.5 314 34.5s119 52.5 119 88.5c0 88 -33.833 163 -101.5 225s-137.5 93 -209.5 93
c-111.333 0 -222.166 -34.667 -332.499 -104s-233.5 -181.666 -369.5 -336.999zM1610 957.999h-177v147h177v-147zM1539 -293.001h-177v147h177v-147z" />
    <glyph glyph-name="uni06FC.init" unicode="&#x6fc;" horiz-adv-x="1334" 
d="M1214 184c-393.333 -122.667 -700.334 -184 -921.001 -184h-293c-39.333 0 -73.833 17 -103.5 51s-44.5 79.667 -44.5 137h488c-72 32.667 -129 80 -171 142s-63 124 -63 186c0 131.333 44.667 234.5 134 309.5s207 112.5 353 112.5
c191.333 0 351.666 -27.333 480.999 -82v-213h-12c-128 75.333 -281.333 113 -460 113c-109.333 0 -193.166 -23.667 -251.499 -71s-87.5 -104.333 -87.5 -171c0 -98 39.833 -172.667 119.5 -224s138.167 -77 175.5 -77c23.333 0 102.333 15.5 237 46.5
s274.334 68.833 419.001 113.5v-189zM690.999 1112h-177v147h177v-147zM690.999 400h-177v147h177v-147z" />
    <glyph glyph-name="uni06FC.medi" unicode="&#x6fc;" horiz-adv-x="964" 
d="M964 0h-98.998c-116 -0 -244 38.333 -384 115c-139.333 -76.667 -267 -115 -383 -115h-98c-39.333 0 -73.833 17 -103.5 51s-44.5 79.667 -44.5 137h246c83.333 0 159.333 11 228 33c-168.667 133.333 -253 257 -253 371c0 77.333 37.5 137 112.5 179s173.5 63 295.5 63
c123.333 0 222.166 -21 296.499 -63s111.5 -101.667 111.5 -179c0 -114 -84.333 -237.667 -253 -371c69.333 -22 145.666 -33 228.999 -33h99v-188zM481.002 289c76 45.333 136.834 93.166 182.501 143.499s68.5 92.5 68.5 126.5c0 56 -83.667 84 -251 84
c-166 0 -249 -28 -249 -84c0 -34 22.667 -76.167 68 -126.5s105.666 -98.166 180.999 -143.499zM571.003 1008h-177v147h177v-147zM571.003 -293h-177v147h177v-147z" />
    <glyph glyph-name="uni06FC.fina" unicode="&#x6fc;" horiz-adv-x="1114" 
d="M1114 0h-26c-154 -0 -345.333 98.333 -574 295c-86.667 -54 -150.667 -102.333 -192 -145s-62 -92 -62 -148c0 -70.667 38.333 -128.334 115 -173.001s165.667 -67 267 -67c148.667 0 293.334 43 434.001 129h12v-213c-130.667 -68 -278.667 -102 -444 -102
c-148 0 -275.167 41 -381.5 123s-159.5 183 -159.5 303c0 78 24.5 144.5 73.5 199.5s128.5 115.5 238.5 181.5c-96 87.333 -162.5 155 -199.5 203s-55.5 99 -55.5 153c0 72 39 129.667 117 173s175 65 291 65c117.333 0 214.666 -21.5 291.999 -64.5
s116 -102.167 116 -177.5c0 -64 -20.667 -120.667 -62 -170s-133.333 -114.666 -276 -195.999c92 -76.667 168.667 -126 230 -148s128.333 -33 201 -33h45v-188zM541 455c96 54 165 98.332 207 132.999s63 69.334 63 104.001c0 26.667 -23 49 -69 67s-104 27 -174 27
c-68 0 -123.5 -8.83301 -166.5 -26.5s-64.5 -39.5 -64.5 -65.5c0 -24 15.5 -53.167 46.5 -87.5s83.5 -84.833 157.5 -151.5zM656 1151h-177v147h177v-147zM625 -80.001h-177v147h177v-147z" />
    <glyph glyph-name="uni06FF.isol" unicode="&#x6ff;" horiz-adv-x="1106" 
d="M138 1104l49 0.000976562c198.667 0 393.834 -90.167 585.501 -270.5s287.5 -356.5 287.5 -528.5c0 -203.333 -143.667 -305 -431 -305h-629c-39.333 0 -73.833 17 -103.5 51s-44.5 79.667 -44.5 137h293c-52.667 70 -79 141.667 -79 215
c0 113.333 27.167 203.166 81.5 269.499s126.5 99.5 216.5 99.5c105.333 0 192.666 -44.333 261.999 -133s104 -189 104 -301c0 -56.667 -15 -106.667 -45 -150h37c120 0 180 43 180 129c0 122 -69.167 252.167 -207.5 390.5s-306.5 207.5 -504.5 207.5h-52v189z
M420 168.001c49.333 0 87 15.167 113 45.5s39 69.833 39 118.5c0 67.333 -18.5 125.833 -55.5 175.5s-87.833 74.5 -152.5 74.5c-44 0 -78.5 -18.333 -103.5 -55s-37.5 -82.667 -37.5 -138c0 -59.333 18.167 -111 54.5 -155s83.833 -66 142.5 -66zM652 1220l-153 202
l-152 -202h-88l196 270h89l195 -270h-87z" />
    <glyph glyph-name="uni06FF.medi" unicode="&#x6ff;" horiz-adv-x="964" 
d="M964 0h-288c65.333 -39.333 98 -96.666 98 -171.999c0 -72.667 -23.833 -132.834 -71.5 -180.501s-108.167 -71.5 -181.5 -71.5c-67.333 0 -133.833 39.5 -199.5 118.5s-98.5 180.833 -98.5 305.5h-223c-39.333 0 -73.833 17 -103.5 51s-44.5 79.667 -44.5 137h371
c0 122 33.5 219.833 100.5 293.5s135.833 110.5 206.5 110.5c73.333 0 132.333 -21.667 177 -65s67 -99 67 -167c0 -78.667 -40 -136 -120 -172h310v-188zM373 188h118.999c35.333 0 65 13.333 89 40s36 58.667 36 96c0 21.333 -7.66699 39.833 -23 55.5
s-35.666 23.5 -60.999 23.5c-38 0 -74.167 -20.167 -108.5 -60.5s-51.5 -91.833 -51.5 -154.5zM372.999 0c0 -64.667 16.168 -120.168 48.501 -166.501s66.166 -69.5 101.499 -69.5c62.667 0 94 29.667 94 89c0 38.667 -12 72.834 -36 102.501s-53.667 44.5 -89 44.5h-119z
M652 799.999l-153 202l-152 -202h-88l196 270h89l195 -270h-87z" />
    <glyph glyph-name="uni06FF.fina" unicode="&#x6ff;" horiz-adv-x="964" 
d="M964 0h-288c65.333 -39.333 98 -96.666 98 -171.999c0 -72.667 -23.833 -132.834 -71.5 -180.501s-108.167 -71.5 -181.5 -71.5c-67.333 0 -133.833 39.5 -199.5 118.5s-98.5 180.833 -98.5 305.5h-223c-39.333 0 -73.833 17 -103.5 51s-44.5 79.667 -44.5 137h371
c0 122 33.5 219.833 100.5 293.5s135.833 110.5 206.5 110.5c73.333 0 132.333 -21.667 177 -65s67 -99 67 -167c0 -78.667 -40 -136 -120 -172h310v-188zM373 188h118.999c35.333 0 65 13.333 89 40s36 58.667 36 96c0 21.333 -7.66699 39.833 -23 55.5
s-35.666 23.5 -60.999 23.5c-38 0 -74.167 -20.167 -108.5 -60.5s-51.5 -91.833 -51.5 -154.5zM372.999 0c0 -64.667 16.168 -120.168 48.501 -166.501s66.166 -69.5 101.499 -69.5c62.667 0 94 29.667 94 89c0 38.667 -12 72.834 -36 102.501s-53.667 44.5 -89 44.5h-119z
M652 799.999l-153 202l-152 -202h-88l196 270h89l195 -270h-87z" />
    <glyph glyph-name="uniFB51" unicode="&#x671;" horiz-adv-x="575" arabic-form="final" 
d="M575 0c-114 0 -202.667 29.168 -266 87.501s-95 139.833 -95 244.5v1224h157v-1212c0 -56.667 15.333 -96.834 46 -120.501s81.667 -35.5 153 -35.5h5v-188zM515 1763c0 -46 -23.665 -83.667 -70.998 -113c-42.667 -26 -89.334 -39 -140.001 -39
c-25.333 0 -59 6.83301 -101 20.5s-74 20.5 -96 20.5c-24 0 -57.667 -14 -101 -42v70c42.667 28 76.667 42 102 42c20.667 0 44.667 -3.33301 72 -10c12 49.333 36.167 89.5 72.5 120.5s78.166 46.5 125.499 46.5c91.333 0 137 -38.667 137 -116zM431.002 1763
c0 30.667 -17.666 46 -52.999 46c-28.667 0 -54.667 -13.333 -78 -40c-20.667 -24 -34.334 -51.333 -41.001 -82c16 -4 31 -6 45 -6c36 0 66.167 8.5 90.5 25.5s36.5 35.833 36.5 56.5z" />
    <glyph glyph-name="uniFB54" unicode="&#x67b;" horiz-adv-x="600" arabic-form="initial" 
d="M502 270c0 -82 -35.333 -147.5 -106 -196.5s-166.667 -73.5 -288 -73.5h-108c-39.333 0 -73.833 17 -103.5 51s-44.5 79.667 -44.5 137h246c164 0 246 52 246 156v373h158v-447zM335 -221h-176v147h176v-147zM335 -430h-176v148h176v-148z" />
    <glyph glyph-name="uniFB58" unicode="&#x67e;" horiz-adv-x="600" arabic-form="initial" 
d="M502 270c0 -82 -35.333 -147.5 -106 -196.5s-166.667 -73.5 -288 -73.5h-108c-39.333 0 -73.833 17 -103.5 51s-44.5 79.667 -44.5 137h246c164 0 246 52 246 156v373h158v-447zM511 -221h-176v147h176v-147zM157 -221h-176v147h176v-147zM335 -430h-178v147h178v-147z
" />
    <glyph glyph-name="uniFB5C" unicode="&#x680;" horiz-adv-x="600" arabic-form="initial" 
d="M502 270c0 -82 -35.333 -147.5 -106 -196.5s-166.667 -73.5 -288 -73.5h-108c-39.333 0 -73.833 17 -103.5 51s-44.5 79.667 -44.5 137h246c164 0 246 52 246 156v373h158v-447zM501 -221h-176v147h176v-147zM177 -221h-177v147h177v-147zM501 -430h-176v147h176v-147z
M177 -430h-177v147h177v-147z" />
    <glyph glyph-name="uniFB60" unicode="&#x67a;" horiz-adv-x="600" arabic-form="initial" 
d="M502 270c0 -82 -35.333 -147.5 -106 -196.5s-166.667 -73.5 -288 -73.5h-108c-39.333 0 -73.833 17 -103.5 51s-44.5 79.667 -44.5 137h246c164 0 246 52 246 156v373h158v-447zM428 1100h-176v147h176v-147zM428 891h-176v148h176v-148z" />
    <glyph glyph-name="uniFB64" unicode="&#x67f;" horiz-adv-x="600" arabic-form="initial" 
d="M502 270c0 -82 -35.333 -147.5 -106 -196.5s-166.667 -73.5 -288 -73.5h-108c-39.333 0 -73.833 17 -103.5 51s-44.5 79.667 -44.5 137h246c164 0 246 52 246 156v373h158v-447zM590 1100h-176v147h176v-147zM266 1100h-177v147h177v-147zM590 891h-176v147h176v-147z
M266 891h-177v147h177v-147z" />
    <glyph glyph-name="uniFB68" unicode="&#x679;" horiz-adv-x="600" arabic-form="initial" 
d="M502 270c0 -82 -35.333 -147.5 -106 -196.5s-166.667 -73.5 -288 -73.5h-108c-39.333 0 -73.833 17 -103.5 51s-44.5 79.667 -44.5 137h246c164 0 246 52 246 156v373h158v-447zM524 908c0 -72 -64 -108.001 -192 -108.001h-272v67h79v413h69v-328
c46.667 94 102.667 141 168 141c45.333 0 82.333 -22.333 111 -67c24.667 -37.333 37 -76.666 37 -117.999zM458 911.999c0 23.333 -6 46.333 -18 69c-16 30 -38 45 -66 45c-46.667 0 -102 -53 -166 -159h116c89.333 0 134 15 134 45z" />
    <glyph glyph-name="uniFB6C" unicode="&#x6a4;" horiz-adv-x="713" arabic-form="initial" 
d="M546 467c-32.667 -27.333 -83.334 -41.001 -152.001 -41.001c-89.333 0 -166.666 28.5 -231.999 85.5s-98 134.167 -98 231.5c0 100.667 33 188.334 99 263.001s133 112 201 112c90 0 167.5 -54.5 232.5 -163.5s97.5 -257.167 97.5 -444.5
c0 -166 -42.333 -292.5 -127 -379.5s-205.667 -130.5 -363 -130.5h-204c-39.333 0 -73.833 17 -103.5 51s-44.5 79.667 -44.5 137h354c95.333 0 175.833 25.5 241.5 76.5s98.5 118.5 98.5 202.5zM530 646.999c0 74.667 -19 141.167 -57 199.5s-75.333 87.5 -112 87.5
c-32 0 -64.5 -18 -97.5 -54s-49.5 -79.333 -49.5 -130c0 -93.333 61.333 -140 184 -140c54 0 98 12.333 132 37zM457 1501h-177v147h177v-147zM634 1292h-177v147h177v-147zM280 1292h-177v147h177v-147z" />
    <glyph glyph-name="uniFB6D" unicode="&#x6a4;" horiz-adv-x="727" arabic-form="medial" 
d="M727 0h-49c-96 -0 -200.667 33.333 -314 100c-114 -66.667 -219 -100 -315 -100h-49c-39.333 0 -73.833 17 -103.5 51s-44.5 79.667 -44.5 137h246c43.333 0 88 5.66699 134 17c-109.333 111.333 -164 215 -164 311c0 95.333 27.667 172.166 83 230.499
s126.333 87.5 213 87.5c86 0 156.667 -29.167 212 -87.5s83 -135.166 83 -230.499c0 -96 -54 -199.667 -162 -311c44.667 -11.333 88.667 -17 132 -17h98v-188zM364 266c92 72.667 138.001 152.667 138.001 240c0 39.333 -12.5 72 -37.5 98s-58.5 39 -100.5 39
c-42.667 0 -76.334 -13 -101.001 -39s-37 -58.667 -37 -98c0 -87.333 46 -167.333 138 -240zM457.001 1217h-177v147h177v-147zM634.001 1008h-177v147h177v-147zM280.001 1008h-177v147h177v-147z" />
    <glyph glyph-name="uniFB70" unicode="&#x6a6;" horiz-adv-x="713" arabic-form="initial" 
d="M546 467c-32.667 -27.333 -83.334 -41.001 -152.001 -41.001c-89.333 0 -166.666 28.5 -231.999 85.5s-98 134.167 -98 231.5c0 100.667 33 188.334 99 263.001s133 112 201 112c90 0 167.5 -54.5 232.5 -163.5s97.5 -257.167 97.5 -444.5
c0 -166 -42.333 -292.5 -127 -379.5s-205.667 -130.5 -363 -130.5h-204c-39.333 0 -73.833 17 -103.5 51s-44.5 79.667 -44.5 137h354c95.333 0 175.833 25.5 241.5 76.5s98.5 118.5 98.5 202.5zM530 646.999c0 74.667 -19 141.167 -57 199.5s-75.333 87.5 -112 87.5
c-32 0 -64.5 -18 -97.5 -54s-49.5 -79.333 -49.5 -130c0 -93.333 61.333 -140 184 -140c54 0 98 12.333 132 37zM600 1501h-176v147h176v-147zM276 1501h-177v147h177v-147zM600 1292h-176v147h176v-147zM276 1292h-177v147h177v-147z" />
    <glyph glyph-name="uniFB71" unicode="&#x6a6;" horiz-adv-x="727" arabic-form="medial" 
d="M727 0h-49c-96 -0 -200.667 33.333 -314 100c-114 -66.667 -219 -100 -315 -100h-49c-39.333 0 -73.833 17 -103.5 51s-44.5 79.667 -44.5 137h246c43.333 0 88 5.66699 134 17c-109.333 111.333 -164 215 -164 311c0 95.333 27.667 172.166 83 230.499
s126.333 87.5 213 87.5c86 0 156.667 -29.167 212 -87.5s83 -135.166 83 -230.499c0 -96 -54 -199.667 -162 -311c44.667 -11.333 88.667 -17 132 -17h98v-188zM364 266c92 72.667 138.001 152.667 138.001 240c0 39.333 -12.5 72 -37.5 98s-58.5 39 -100.5 39
c-42.667 0 -76.334 -13 -101.001 -39s-37 -58.667 -37 -98c0 -87.333 46 -167.333 138 -240zM614.001 1217h-176v147h176v-147zM290.001 1217h-177v147h177v-147zM614.001 1008h-176v147h176v-147zM290.001 1008h-177v147h177v-147z" />
    <glyph glyph-name="uniFB73" unicode="&#x684;" horiz-adv-x="1334" arabic-form="final" 
d="M1334 0l-39.001 -0.000976562c-272 0 -408 106.333 -408 319v211c-196 -17.333 -349.5 -62 -460.5 -134s-166.5 -164.333 -166.5 -277c0 -114 49.333 -202.333 148 -265s224 -94 376 -94c214.667 0 386.667 37 516 111h13v-199c-128 -64 -303.667 -96 -527 -96
c-198.667 0 -362.167 48.667 -490.5 146s-192.5 228.333 -192.5 393c0 165.333 87 297.333 261 396s392 148 654 148c-210 75.333 -461.667 113 -755 113h-94v186h106c150 0 312.333 -25.667 487 -77s338.334 -121.666 491.001 -210.999v-131
c-115.333 0 -185 -0.666992 -209 -2v-162c0 -68 20 -116.167 60 -144.5s102 -42.5 186 -42.5h44v-188zM720.999 110.999h-176v147h176v-147zM720.999 -98.001h-176v148h176v-148z" />
    <glyph glyph-name="uniFB74" unicode="&#x684;" horiz-adv-x="1334" arabic-form="initial" 
d="M1236 184c-142.667 0 -352.169 -30.667 -628.502 -92s-478.833 -92 -607.5 -92c-39.333 0 -73.833 17 -103.5 51s-44.5 79.667 -44.5 137h155c114.667 0 290.5 26.833 527.5 80.5s399.5 82.834 487.5 87.501c-242 182 -503 273 -783 273h-114v186h126
c64.667 0 127.334 -5.33301 188.001 -16c60 -10.667 119.667 -26.667 179 -48c58.667 -20.667 118.334 -47.334 179.001 -80.001c57.333 -31.333 118.333 -69 183 -113c60 -40.667 126 -89 198 -145l52 -41h2l4 1v-189zM842.998 -221h-176v147h176v-147zM842.998 -430h-176
v148h176v-148z" />
    <glyph glyph-name="uniFB77" unicode="&#x683;" horiz-adv-x="1334" arabic-form="final" 
d="M1334 0l-39.001 -0.000976562c-272 0 -408 106.333 -408 319v211c-196 -17.333 -349.5 -62 -460.5 -134s-166.5 -164.333 -166.5 -277c0 -114 49.333 -202.333 148 -265s224 -94 376 -94c214.667 0 386.667 37 516 111h13v-199c-128 -64 -303.667 -96 -527 -96
c-198.667 0 -362.167 48.667 -490.5 146s-192.5 228.333 -192.5 393c0 165.333 87 297.333 261 396s392 148 654 148c-210 75.333 -461.667 113 -755 113h-94v186h106c150 0 312.333 -25.667 487 -77s338.334 -121.666 491.001 -210.999v-131
c-115.333 0 -185 -0.666992 -209 -2v-162c0 -68 20 -116.167 60 -144.5s102 -42.5 186 -42.5h44v-188zM858.999 11.999h-176v147h176v-147zM534.999 11.999h-177v147h177v-147z" />
    <glyph glyph-name="uniFB78" unicode="&#x683;" horiz-adv-x="1334" arabic-form="initial" 
d="M1236 184c-142.667 0 -352.169 -30.667 -628.502 -92s-478.833 -92 -607.5 -92c-39.333 0 -73.833 17 -103.5 51s-44.5 79.667 -44.5 137h155c114.667 0 290.5 26.833 527.5 80.5s399.5 82.834 487.5 87.501c-242 182 -503 273 -783 273h-114v186h126
c64.667 0 127.334 -5.33301 188.001 -16c60 -10.667 119.667 -26.667 179 -48c58.667 -20.667 118.334 -47.334 179.001 -80.001c57.333 -31.333 118.333 -69 183 -113c60 -40.667 126 -89 198 -145l52 -41h2l4 1v-189zM1005 -244h-176v147h176v-147zM680.998 -244h-177v147
h177v-147z" />
    <glyph glyph-name="uniFB7B" unicode="&#x686;" horiz-adv-x="1334" arabic-form="final" 
d="M1334 0l-39.001 -0.000976562c-108 0 -186.667 25.333 -236 76s-74 131.667 -74 243v218c-227.333 -9.33301 -405 -51.333 -533 -126s-192 -172 -192 -292c0 -114 49.333 -202.333 148 -265s224 -94 376 -94c214.667 0 386.667 37 516 111h13v-199
c-128 -64 -303.667 -96 -527 -96c-198.667 0 -362.167 48.667 -490.5 146s-192.5 228.333 -192.5 393c0 165.333 87 297.333 261 396s392 148 654 148c-210 75.333 -461.667 113 -755 113h-94v186h106c150 0 312.333 -25.667 487 -77s338.334 -121.666 491.001 -210.999
v-131h-111v-164c0 -78.667 12.5 -129.5 37.5 -152.5s61.833 -34.5 110.5 -34.5h44v-188zM886.999 110.999h-177v147h177v-147zM532.999 110.999h-177v147h177v-147zM709.999 -98.001h-177v147h177v-147z" />
    <glyph glyph-name="uniFB7C" unicode="&#x686;" horiz-adv-x="1334" arabic-form="initial" 
d="M1236 184c-142.667 0 -352.169 -30.667 -628.502 -92s-478.833 -92 -607.5 -92c-39.333 0 -73.833 17 -103.5 51s-44.5 79.667 -44.5 137h155c114.667 0 290.5 26.833 527.5 80.5s399.5 82.834 487.5 87.501c-242 182 -503 273 -783 273h-114v186h126
c64.667 0 127.334 -5.33301 188.001 -16c60 -10.667 119.667 -26.667 179 -48c58.667 -20.667 118.334 -47.334 179.001 -80.001c57.333 -31.333 118.333 -69 183 -113c60 -40.667 126 -89 198 -145l52 -41h2l4 1v-189zM1020 -221h-178v147h178v-147zM665.998 -221h-176v147
h176v-147zM841.998 -430h-176v147h176v-147z" />
    <glyph glyph-name="uniFB7F" unicode="&#x687;" horiz-adv-x="1334" arabic-form="final" 
d="M1334 0h-39c-116 0 -199 30 -249 90c-40.667 50 -61 126.333 -61 229v218c-189.333 -8 -347.666 -40.333 -474.999 -97c-166.667 -74 -250 -181 -250 -321c0 -118 53.667 -209.333 161 -274c94.667 -56.667 215.667 -85 363 -85c214.667 0 386.667 37 516 111h13v-199
c-128 -64 -303.667 -96 -527 -96c-200 0 -362.667 47.667 -488 143c-130 99.333 -195 231.333 -195 396c0 182 102.333 322.333 307 421c170 82 372.667 123 608 123c-210 75.333 -461.667 113 -755 113h-94v186h106c160 0 331 -28.333 513 -85
c165.333 -50.667 320.333 -118.334 465 -203.001v-131h-111v-164c0 -61.333 7 -104.666 21 -129.999c21.333 -38 63.666 -57 126.999 -57h44v-188zM929 111h-177v147h177v-147zM605 111h-178v147h178v-147zM929 -98h-177v147h177v-147zM605 -98h-178v147h178v-147z" />
    <glyph glyph-name="uniFB80" unicode="&#x687;" horiz-adv-x="1334" arabic-form="initial" 
d="M1236 184c-142.667 0 -352.169 -30.667 -628.502 -92s-478.833 -92 -607.5 -92c-39.333 0 -73.833 17 -103.5 51s-44.5 79.667 -44.5 137h155c114.667 0 290.5 26.833 527.5 80.5s399.5 82.834 487.5 87.501c-242 182 -503 273 -783 273h-114v186h126
c64.667 0 127.334 -5.33301 188.001 -16c60 -10.667 119.667 -26.667 179 -48c58.667 -20.667 118.334 -47.334 179.001 -80.001c57.333 -31.333 118.333 -69 183 -113c60 -40.667 126 -89 198 -145l52 -41h2l4 1v-189zM1005 -221h-176v147h176v-147zM680.998 -221h-177v147
h177v-147zM1005 -430h-176v147h176v-147zM680.998 -430h-177v147h177v-147z" />
    <glyph glyph-name="uniFB90" unicode="&#x6a9;" horiz-adv-x="968" arabic-form="initial" 
d="M870 1333l-505.999 -250.001c-33.333 -13.333 -63.333 -31 -90 -53s-40 -40.333 -40 -55c0 -37.333 36.667 -85.333 110 -144l339 -268c101.333 -80 166 -140.167 194 -180.5s42 -79.833 42 -118.5c0 -176 -141.667 -264 -425 -264h-494c-39.333 0 -73.833 17 -103.5 51
s-44.5 79.667 -44.5 137h640c85.333 0 144.666 8.33301 177.999 25s50 44.667 50 84c0 25.333 -15.333 52.5 -46 81.5s-95.667 82.5 -195 160.5l-348 274c-84 67.333 -126 133 -126 197c0 34.667 16.333 66.334 49 95.001s103 70 211 124l605 301v-197z" />
    <glyph glyph-name="uniFB94" unicode="&#x6af;" horiz-adv-x="968" arabic-form="initial" 
d="M870 1333l-505.999 -250.001c-33.333 -13.333 -63.333 -31 -90 -53s-40 -40.333 -40 -55c0 -37.333 36.667 -85.333 110 -144l339 -268c101.333 -80 166 -140.167 194 -180.5s42 -79.833 42 -118.5c0 -176 -141.667 -264 -425 -264h-494c-39.333 0 -73.833 17 -103.5 51
s-44.5 79.667 -44.5 137h640c85.333 0 144.666 8.33301 177.999 25s50 44.667 50 84c0 25.333 -15.333 52.5 -46 81.5s-95.667 82.5 -195 160.5l-348 274c-84 67.333 -126 133 -126 197c0 34.667 16.333 66.334 49 95.001s103 70 211 124l605 301v-197zM840.001 1649
l-805 -402v101l805 401v-100z" />
    <glyph glyph-name="uniFB98" unicode="&#x6b3;" horiz-adv-x="968" arabic-form="initial" 
d="M870 1333l-505.999 -250.001c-33.333 -13.333 -63.333 -31 -90 -53s-40 -40.333 -40 -55c0 -37.333 36.667 -85.333 110 -144l339 -268c101.333 -80 166 -140.167 194 -180.5s42 -79.833 42 -118.5c0 -176 -141.667 -264 -425 -264h-494c-39.333 0 -73.833 17 -103.5 51
s-44.5 79.667 -44.5 137h640c85.333 0 144.666 8.33301 177.999 25s50 44.667 50 84c0 25.333 -15.333 52.5 -46 81.5s-95.667 82.5 -195 160.5l-348 274c-84 67.333 -126 133 -126 197c0 34.667 16.333 66.334 49 95.001s103 70 211 124l605 301v-197zM840.001 1649
l-805 -402v101l805 401v-100zM457.001 -221.001h-176v147h176v-147zM457.001 -430.001h-176v148h176v-148z" />
    <glyph glyph-name="uniFB9C" unicode="&#x6b1;" horiz-adv-x="968" arabic-form="initial" 
d="M870 1333l-505.999 -250.001c-33.333 -13.333 -63.333 -31 -90 -53s-40 -40.333 -40 -55c0 -37.333 36.667 -85.333 110 -144l339 -268c101.333 -80 166 -140.167 194 -180.5s42 -79.833 42 -118.5c0 -176 -141.667 -264 -425 -264h-494c-39.333 0 -73.833 17 -103.5 51
s-44.5 79.667 -44.5 137h640c85.333 0 144.666 8.33301 177.999 25s50 44.667 50 84c0 25.333 -15.333 52.5 -46 81.5s-95.667 82.5 -195 160.5l-348 274c-84 67.333 -126 133 -126 197c0 34.667 16.333 66.334 49 95.001s103 70 211 124l605 301v-197zM840.001 1649
l-805 -402v101l805 401v-100zM501.001 1670h-176v147h176v-147zM177.001 1670h-177v147h177v-147z" />
    <glyph glyph-name="uniFBA5" unicode="&#x6c0;" horiz-adv-x="938" arabic-form="final" 
d="M938 0c-94.667 0 -165.667 26.501 -213 79.501s-71 157.5 -71 313.5c-27.333 -36.667 -67 -67.334 -119 -92.001s-103.667 -37 -155 -37c-86 0 -156.5 25.833 -211.5 77.5s-82.5 122.167 -82.5 211.5c0 98.667 50.667 190.5 152 275.5s240 141.167 416 168.5v72h157v-676
c0 -74 10 -126.667 30 -158s52.333 -47 97 -47v-188zM654 569.001l0.000976562 293c-129.333 -22 -230 -61.333 -302 -118s-108 -119.667 -108 -189c0 -38 13 -67.333 39 -88s58.333 -31 97 -31c115.333 0 206.666 44.333 273.999 133zM555.001 1204h-301.999v70h67
c-34.667 16 -52 41.667 -52 77c0 34 14.667 62.667 44 86s67.333 35 114 35c44 0 78.333 -4 103 -12v-74c-28.667 11.333 -62.334 17 -101.001 17c-52.667 0 -79 -17.333 -79 -52c0 -21.333 13.5 -39.5 40.5 -54.5s60.167 -22.5 99.5 -22.5h66v-70z" />
    <glyph glyph-name="uniFBA6" unicode="&#x6c1;" horiz-adv-x="762" arabic-form="isolated" 
d="M136 930c172.667 -8.66699 312.001 -67.499 418.001 -176.499s159 -229.167 159 -360.5c0 -122.667 -30.167 -220.834 -90.5 -294.501s-136.5 -110.5 -228.5 -110.5c-98.667 0 -176.834 33.333 -234.501 100s-86.5 161.667 -86.5 285c0 132 53.667 257.667 161 377
c-29.333 6.66699 -62 10 -98 10v170zM556.001 393.001c0 135.333 -65.666 239.999 -196.999 313.999c-84.667 -91.333 -127 -202.666 -127 -333.999c0 -63.333 14.667 -112 44 -146s68.666 -51 117.999 -51c108 0 162 72.333 162 217z" />
    <glyph glyph-name="uniFBA8" unicode="&#x6c1;" horiz-adv-x="600" arabic-form="initial" 
d="M502 270c0 -88.667 -40.001 -157.333 -120.001 -206c-71.333 -42.667 -162.666 -64 -273.999 -64h-108c-48.667 -0 -87 22.333 -115 67c-22 36 -33 76.333 -33 121h246c164 0 246 52 246 156v373h158v-447zM325.999 -230.999h-150v125c0 26 13 49.333 39 70
c28.667 24 65.667 36 111 36v-49c-57.333 0 -86 -19 -86 -57h86v-125z" />
    <glyph glyph-name="uniFBA9" unicode="&#x6c1;" horiz-adv-x="1225" arabic-form="medial" 
d="M1224 0c-54.667 0 -120.169 31.334 -196.502 94.001s-132.5 94 -168.5 94c-75.333 0 -138.333 -20 -189 -60c-64 -48.667 -120.667 -134.667 -170 -258h-174c-18 78.667 -28 155.667 -30 231c-8 -8.66699 -18.667 -17.667 -32 -27c-44 -30 -73.667 -48.333 -89 -55
c-31.333 -12.667 -65.666 -19 -102.999 -19h-72c-49.333 0 -87.666 22.333 -114.999 67c-22 35.333 -33 75.666 -33 120.999h246c75.333 0 128.666 13.667 159.999 41c20.667 18 41.334 56.333 62.001 115l132 373h182l-78 -201c-10 -26 -32 -98 -66 -216
c-19.333 -67.333 -30.666 -149.333 -33.999 -246c42.667 86 103 159.667 181 221c66 51.333 143.333 77 232 77c64.667 0 135.167 -27.333 211.5 -82s124.166 -82 143.499 -82v-188zM481.998 -379.999h-150v125c0 30.667 16 54.667 48 72c29.333 16 63.333 24 102 24v-49
c-57.333 0 -86 -15.667 -86 -47h86v-125z" />
    <glyph glyph-name="uniFBAB" unicode="&#x6be;" horiz-adv-x="964" arabic-form="final" 
d="M964 0h-288c65.333 -39.333 98 -96.666 98 -171.999c0 -72.667 -23.833 -132.834 -71.5 -180.501s-108.167 -71.5 -181.5 -71.5c-67.333 0 -133.833 39.5 -199.5 118.5s-98.5 180.833 -98.5 305.5h-223c-39.333 0 -73.833 17 -103.5 51s-44.5 79.667 -44.5 137h371
c0 122 33.5 219.833 100.5 293.5s135.833 110.5 206.5 110.5c73.333 0 132.333 -21.667 177 -65s67 -99 67 -167c0 -78.667 -40 -136 -120 -172h310v-188zM373 188h118.999c35.333 0 65 13.333 89 40s36 58.667 36 96c0 21.333 -7.66699 39.833 -23 55.5
s-35.666 23.5 -60.999 23.5c-38 0 -74.167 -20.167 -108.5 -60.5s-51.5 -91.833 -51.5 -154.5zM372.999 0c0 -64.667 16.168 -120.168 48.501 -166.501s66.166 -69.5 101.499 -69.5c62.667 0 94 29.667 94 89c0 38.667 -12 72.834 -36 102.501s-53.667 44.5 -89 44.5h-119z
" />
    <glyph glyph-name="uniFBAF" unicode="&#x6d2;" horiz-adv-x="2104" arabic-form="final" 
d="M2260 -242c0 -45.333 -11 -85.665 -33 -120.998c-27.333 -44.667 -65.666 -67 -114.999 -67h-1560c-170.667 0 -303 21 -397 63c-88 39.333 -132 91.666 -132 156.999c0 74 44.333 136 133 186c260.667 105.333 541 167 841 185s558 27 774 27h333v-188h-340
c-209.333 0 -426.833 -2.83301 -652.5 -8.5s-431.834 -27.167 -618.501 -64.5c-148.667 -35.333 -223 -71 -223 -107c0 -34.667 69.333 -55.334 208 -62.001h1782z" />
    <glyph glyph-name="uniFBB1" unicode="&#x6d3;" horiz-adv-x="2104" arabic-form="final" 
d="M2260 -242c0 -45.333 -11 -85.665 -33 -120.998c-27.333 -44.667 -65.666 -67 -114.999 -67h-1560c-170.667 0 -303 21 -397 63c-88 39.333 -132 91.666 -132 156.999c0 74 44.333 136 133 186c260.667 105.333 541 167 841 185s558 27 774 27h333v-188h-340
c-209.333 0 -426.833 -2.83301 -652.5 -8.5s-431.834 -27.167 -618.501 -64.5c-148.667 -35.333 -223 -71 -223 -107c0 -34.667 69.333 -55.334 208 -62.001h1782zM1483 660.001h-301.999v70h67c-34.667 16 -52 41.667 -52 77c0 34 14.667 62.667 44 86s67.333 35 114 35
c44 0 78.333 -4 103 -12v-74c-28.667 11.333 -62.334 17 -101.001 17c-52.667 0 -79 -17.333 -79 -52c0 -21.333 13.5 -39.5 40.5 -54.5s60.167 -22.5 99.5 -22.5h66v-70z" />
    <glyph glyph-name="uniFBD5" unicode="&#x6ad;" horiz-adv-x="968" arabic-form="initial" 
d="M870 1333l-505.999 -250.001c-33.333 -13.333 -63.333 -31 -90 -53s-40 -40.333 -40 -55c0 -37.333 36.667 -85.333 110 -144l339 -268c101.333 -80 166 -140.167 194 -180.5s42 -79.833 42 -118.5c0 -176 -141.667 -264 -425 -264h-494c-39.333 0 -73.833 17 -103.5 51
s-44.5 79.667 -44.5 137h640c85.333 0 144.666 8.33301 177.999 25s50 44.667 50 84c0 25.333 -15.333 52.5 -46 81.5s-95.667 82.5 -195 160.5l-348 274c-84 67.333 -126 133 -126 197c0 34.667 16.333 66.334 49 95.001s103 70 211 124l605 301v-197zM361.001 1669h-177
v147h177v-147zM538.001 1460h-177v147h177v-147zM184.001 1460h-177v147h177v-147z" />
    <glyph glyph-name="uniFBE5" unicode="&#x6d0;" horiz-adv-x="1454" arabic-form="final" 
d="M1454 0c-125.333 0 -219.334 54.332 -282.001 162.999l-114 303c-40.667 108.667 -97.667 163 -171 163c-74 0 -111 -29.333 -111 -88c0 -31.333 27.5 -77 82.5 -137s82.5 -119.333 82.5 -178c0 -83.333 -31.333 -144.333 -94 -183c-66 -40.667 -172.333 -61 -319 -61
c-160 0 -282.667 34.667 -368 104c-82 66.667 -123 158.334 -123 275.001c0 43.333 5.66699 100 17 170h160v-10c-13.333 -44 -20 -96.667 -20 -158c0 -69.333 27.667 -119.333 83 -150c52 -28.667 136.333 -43 253 -43c94.667 0 159.834 7.5 195.501 22.5
s53.5 42.167 53.5 81.5c0 30.667 -27.5 75.167 -82.5 133.5s-82.5 114.5 -82.5 168.5c0 74 23.5 132.667 70.5 176s114.5 65 202.5 65c115.333 0 198.333 -54.333 249 -163l104 -303c44.667 -108.667 116 -163 214 -163v-188zM612.999 -221.001h-176v147h176v-147z
M612.999 -430.001h-176v148h176v-148z" />
    <glyph glyph-name="uni066E.medi" unicode="&#x649;" horiz-adv-x="600" arabic-form="initial" 
d="M502 270c0 -82 -35.333 -147.5 -106 -196.5s-166.667 -73.5 -288 -73.5h-108c-39.333 0 -73.833 17 -103.5 51s-44.5 79.667 -44.5 137h246c164 0 246 52 246 156v373h158v-447z" />
    <glyph glyph-name="uniFBFD" unicode="&#x6cc;" horiz-adv-x="1454" arabic-form="final" 
d="M1454 0c-76 0 -137 14.8301 -183 44.4971s-82.333 69.334 -109 119.001s-55.667 115.334 -87 197.001s-60.333 134.167 -87 157.5s-60.334 35 -101.001 35c-74 0 -111 -29.333 -111 -88c0 -36.667 29 -83.667 87 -141c76.667 -76.667 115 -152.667 115 -228
c0 -176 -150 -264 -450 -264c-147.333 0 -266 40.667 -356 122s-135 193.666 -135 336.999c0 43.333 5.66699 100 17 170h160v-10c-13.333 -44 -20 -96.667 -20 -158c0 -97.333 27.667 -167.166 83 -209.499s139.666 -63.5 252.999 -63.5c190.667 0 286 39 286 117
c0 34.667 -29.667 82 -89 142c-75.333 74 -113 147.667 -113 221c0 72.667 23.333 131 70 175s114.334 66 203.001 66c63.333 0 119 -14.667 167 -44s93.167 -105.666 135.5 -228.999s82.833 -200.833 121.5 -232.5s86.334 -47.5 143.001 -47.5v-188z" />
    <glyph glyph-name="uniFBFE" unicode="&#x6cc;" horiz-adv-x="600" arabic-form="initial" 
d="M502 270c0 -82 -35.333 -147.5 -106 -196.5s-166.667 -73.5 -288 -73.5h-108c-39.333 0 -73.833 17 -103.5 51s-44.5 79.667 -44.5 137h246c164 0 246 52 246 156v373h158v-447zM501 -293h-176v147h176v-147zM177 -293h-177v147h177v-147z" />
    <glyph glyph-name="uniFC5E" unicode="&#xfc5e;" arabic-form="isolated" 
d="M551 1600l-117.001 24c-90 -47.333 -209.333 -77.333 -358 -90l18 188c0.666992 8 -1.5 14.167 -6.5 18.5s-12.167 6.5 -21.5 6.5l-66 -2v70l98 2c18.667 0.666992 35 -4.33301 49 -15s20.667 -23.667 20 -39l-12 -157c68.667 7.33301 133.334 22.333 194.001 45
c-76.667 20 -115 58.667 -115 116c0 80.667 51.667 121 155 121c44 0 80.333 -11 109 -33s43 -51.333 43 -88c0 -32.667 -16.333 -64 -49 -94l59 -6v-67zM552.999 1470c0 -44.667 -13.668 -80.666 -41.001 -107.999c-28.667 -30 -69 -45 -121 -45
c-51.333 0 -86.333 14.333 -105 43c-23.333 -53.333 -68.666 -80 -135.999 -80c-100 0 -150 41.667 -150 125c0 19.333 1.66699 45.333 5 78h84c-3.33301 -22.667 -5 -47.334 -5 -74.001c0 -39.333 22 -59 66 -59c56 0 84 38 84 114v52h83v-43c0 -58 24.667 -87 74 -87
c52 0 78 28 78 84c0 36 -2.33301 61.333 -7 76h86c3.33301 -20 5 -45.333 5 -76zM456.998 1765c0 36 -22 53.999 -66 53.999c-49.333 0 -74 -18 -74 -54c0 -35.333 33.667 -59.666 101 -72.999c26 22 39 46.333 39 73z" />
    <glyph glyph-name="uniFC5F" unicode="&#xfc5f;" arabic-form="isolated" 
d="M596 1836c3.33301 -20 5 -45.332 5 -75.999c0 -48 -14.833 -85.667 -44.5 -113s-68.834 -41 -117.501 -41c-51.333 0 -86.333 14.333 -105 43c-23.333 -53.333 -68.666 -80 -135.999 -80c-100 0 -150 41.667 -150 125c0 19.333 1.66699 45.333 5 78h84
c-3.33301 -22 -5 -46.667 -5 -74c0 -39.333 22 -59 66 -59c56 0 84 38.333 84 115v51h83v-43c0 -57.333 24.667 -86 74 -86c52 0 78 28 78 84c0 35.333 -2.33301 60.666 -7 75.999h86zM583 1504l-516 -74v74l516 73v-73zM583 1354l-516 -74v74l516 74v-74z" />
    <glyph glyph-name="uniFC60" unicode="&#xfc60;" arabic-form="isolated" 
d="M548 1546c3.33301 -20 5 -45.333 5 -76c0 -47.333 -14.833 -84.666 -44.5 -111.999s-68.834 -41 -117.501 -41c-51.333 0 -86.333 14.333 -105 43c-23.333 -53.333 -68.666 -80 -135.999 -80c-100 0 -150 41.667 -150 125c0 19.333 1.66699 45.333 5 78h84
c-3.33301 -22.667 -5 -47.334 -5 -74.001c0 -39.333 22 -59 66 -59c56 0 84 38 84 114v52h83v-43c0 -58 24.667 -87 74 -87c52 0 78 28 78 84c0 36 -2.33301 61.333 -7 76h86zM535 1614l-516 -74v74l516 74v-74z" />
    <glyph glyph-name="uniFC61" unicode="&#xfc61;" arabic-form="isolated" 
d="M548 1546c3.33301 -20 5 -45.333 5 -76c0 -47.333 -14.833 -84.666 -44.5 -111.999s-68.834 -41 -117.501 -41c-51.333 0 -86.333 14.333 -105 43c-23.333 -53.333 -68.666 -80 -135.999 -80c-100 0 -150 41.667 -150 125c0 19.333 1.66699 45.333 5 78h84
c-3.33301 -22.667 -5 -47.334 -5 -74.001c0 -39.333 22 -59 66 -59c56 0 84 38 84 114v52h83v-43c0 -58 24.667 -87 74 -87c52 0 78 28 78 84c0 36 -2.33301 61.333 -7 76h86zM502 1602l-113 22c-102.667 -51.333 -213.667 -80 -333 -86v70
c80 1.33301 160.667 16.333 242 45c-75.333 24.667 -113 62.667 -113 114c0 36.667 13.833 66 41.5 88s64.5 33 110.5 33c43.333 0 80 -11.5 110 -34.5s45 -52.5 45 -88.5c0 -28.667 -15.667 -58 -47 -88l57 -10v-65zM368 1692c26.667 22 40 46.332 40 72.999
c0 14.667 -7 27.334 -21 38.001s-29.667 16 -47 16c-48 0 -72 -18 -72 -54c0 -34 33.333 -58.333 100 -73z" />
    <glyph glyph-name="uniFC62" unicode="&#xfc62;" arabic-form="isolated" 
d="M548 1686c3.33301 -20 5 -45.332 5 -75.999c0 -48 -14.833 -85.667 -44.5 -113s-68.834 -41 -117.501 -41c-51.333 0 -86.333 14.333 -105 43c-23.333 -53.333 -68.666 -80 -135.999 -80c-100 0 -150 41.667 -150 125c0 19.333 1.66699 45.333 5 78h84
c-3.33301 -22 -5 -46.667 -5 -74c0 -39.333 22 -59 66 -59c56 0 84 38.333 84 115v51h83v-43c0 -57.333 24.667 -86 74 -86c52 0 78 28 78 84c0 35.333 -2.33301 60.666 -7 75.999h86zM535 1354l-516 -74v74l516 73v-73z" />
    <glyph glyph-name="uniFE82" unicode="&#x622;" horiz-adv-x="575" arabic-form="final" 
d="M575 0c-114 0 -202.667 29.168 -266 87.501s-95 139.833 -95 244.5v1224h157v-1212c0 -56.667 15.333 -96.834 46 -120.501s81.667 -35.5 153 -35.5h5v-188zM523 1676c-40.667 -26 -85 -39 -133 -39c-20 0 -54.333 7.5 -103 22.5s-83.334 22.5 -104.001 22.5
c-28.667 0 -72.667 -15 -132 -45v74c48 27.333 92 41 132 41c20.667 0 55.334 -7.5 104.001 -22.5s83 -22.5 103 -22.5c40.667 0 85 14.333 133 43v-74z" />
    <glyph glyph-name="uniFE84" unicode="&#x623;" horiz-adv-x="575" arabic-form="final" 
d="M575 0c-114 0 -202.667 29.168 -266 87.501s-95 139.833 -95 244.5v1224h157v-1212c0 -56.667 15.333 -96.834 46 -120.501s81.667 -35.5 153 -35.5h5v-188zM443 1610h-301.999v70h67c-34.667 16 -52 41.667 -52 77c0 34 14.667 62.667 44 86s67.333 35 114 35
c44 0 78.333 -4 103 -12v-74c-28.667 11.333 -62.334 17 -101.001 17c-52.667 0 -79 -17.333 -79 -52c0 -21.333 13.5 -39.5 40.5 -54.5s60.167 -22.5 99.5 -22.5h66v-70z" />
    <glyph glyph-name="uniFE88" unicode="&#x625;" horiz-adv-x="575" arabic-form="final" 
d="M575 0c-114 0 -202.667 29.168 -266 87.501s-95 139.833 -95 244.5v1224h157v-1212c0 -56.667 15.333 -96.834 46 -120.501s81.667 -35.5 153 -35.5h5v-188zM443 -361.999h-301.999v70h67c-34.667 16 -52 41.667 -52 77c0 34 14.667 62.667 44 86s67.333 35 114 35
c44 0 78.333 -4 103 -12v-74c-28.667 11.333 -62.334 17 -101.001 17c-52.667 0 -79 -17.333 -79 -52c0 -21.333 13.5 -39.5 40.5 -54.5s60.167 -22.5 99.5 -22.5h66v-70z" />
    <glyph glyph-name="uniFE8A" unicode="&#x626;" horiz-adv-x="1454" arabic-form="final" 
d="M1454 0c-76 0 -137 14.8301 -183 44.4971s-82.333 69.334 -109 119.001s-55.667 115.334 -87 197.001s-60.333 134.167 -87 157.5s-60.334 35 -101.001 35c-74 0 -111 -29.333 -111 -88c0 -36.667 29 -83.667 87 -141c76.667 -76.667 115 -152.667 115 -228
c0 -176 -150 -264 -450 -264c-147.333 0 -266 40.667 -356 122s-135 193.666 -135 336.999c0 43.333 5.66699 100 17 170h160v-10c-13.333 -44 -20 -96.667 -20 -158c0 -97.333 27.667 -167.166 83 -209.499s139.666 -63.5 252.999 -63.5c190.667 0 286 39 286 117
c0 34.667 -29.667 82 -89 142c-75.333 74 -113 147.667 -113 221c0 72.667 23.333 131 70 175s114.334 66 203.001 66c63.333 0 119 -14.667 167 -44s93.167 -105.666 135.5 -228.999s82.833 -200.833 121.5 -232.5s86.334 -47.5 143.001 -47.5v-188zM476 714.997h-301.999
v70h67c-34.667 16 -52 41.667 -52 77c0 34 14.667 62.667 44 86s67.333 35 114 35c44 0 78.333 -4 103 -12v-74c-28.667 11.333 -62.334 17 -101.001 17c-52.667 0 -79 -17.333 -79 -52c0 -21.333 13.5 -39.5 40.5 -54.5s60.167 -22.5 99.5 -22.5h66v-70z" />
    <glyph glyph-name="uniFE8B" unicode="&#x626;" horiz-adv-x="600" arabic-form="initial" 
d="M502 270c0 -82 -35.333 -147.5 -106 -196.5s-166.667 -73.5 -288 -73.5h-108c-39.333 0 -73.833 17 -103.5 51s-44.5 79.667 -44.5 137h246c164 0 246 52 246 156v373h158v-447zM551 891h-301.999v70h67c-34.667 16 -52 41.667 -52 77c0 34 14.667 62.667 44 86
s67.333 35 114 35c44 0 78.333 -4 103 -12v-74c-28.667 11.333 -62.334 17 -101.001 17c-52.667 0 -79 -17.333 -79 -52c0 -21.333 13.5 -39.5 40.5 -54.5s60.167 -22.5 99.5 -22.5h66v-70z" />
    <glyph glyph-name="uniFE8E" unicode="&#x627;" horiz-adv-x="575" arabic-form="final" 
d="M575 0c-114 0 -202.667 29.168 -266 87.501s-95 139.833 -95 244.5v1224h157v-1212c0 -56.667 15.333 -96.834 46 -120.501s81.667 -35.5 153 -35.5h5v-188z" />
    <glyph glyph-name="uniFE91" unicode="&#x628;" horiz-adv-x="600" arabic-form="initial" 
d="M502 270c0 -82 -35.333 -147.5 -106 -196.5s-166.667 -73.5 -288 -73.5h-108c-39.333 0 -73.833 17 -103.5 51s-44.5 79.667 -44.5 137h246c164 0 246 52 246 156v373h158v-447zM335 -293h-177v147h177v-147z" />
    <glyph glyph-name="uniFE94" unicode="&#x629;" horiz-adv-x="938" arabic-form="final" 
d="M938 0c-94.667 0 -165.667 26.501 -213 79.501s-71 157.5 -71 313.5c-27.333 -36.667 -67 -67.334 -119 -92.001s-103.667 -37 -155 -37c-86 0 -156.5 25.833 -211.5 77.5s-82.5 122.167 -82.5 211.5c0 98.667 50.667 190.5 152 275.5s240 141.167 416 168.5v72h157v-676
c0 -74 10 -126.667 30 -158s52.333 -47 97 -47v-188zM654 569.001l0.000976562 293c-129.333 -22 -230 -61.333 -302 -118s-108 -119.667 -108 -189c0 -38 13 -67.333 39 -88s58.333 -31 97 -31c115.333 0 206.666 44.333 273.999 133zM747.001 1204h-176v147h176v-147z
M423.001 1204h-177v147h177v-147z" />
    <glyph glyph-name="uniFE97" unicode="&#x62a;" horiz-adv-x="600" arabic-form="initial" 
d="M502 270c0 -82 -35.333 -147.5 -106 -196.5s-166.667 -73.5 -288 -73.5h-108c-39.333 0 -73.833 17 -103.5 51s-44.5 79.667 -44.5 137h246c164 0 246 52 246 156v373h158v-447zM600 891h-176v147h176v-147zM276 891h-177v147h177v-147z" />
    <glyph glyph-name="uniFE9B" unicode="&#x62b;" horiz-adv-x="600" arabic-form="initial" 
d="M502 270c0 -82 -35.333 -147.5 -106 -196.5s-166.667 -73.5 -288 -73.5h-108c-39.333 0 -73.833 17 -103.5 51s-44.5 79.667 -44.5 137h246c164 0 246 52 246 156v373h158v-447zM422 1100h-177v147h177v-147zM599 891h-177v147h177v-147zM245 891h-177v147h177v-147z" />
    <glyph glyph-name="uniFE9E" unicode="&#x62c;" horiz-adv-x="1334" arabic-form="final" 
d="M1334 0l-39.001 -0.000976562c-272 0 -408 106.333 -408 319v211c-196 -17.333 -349.5 -62 -460.5 -134s-166.5 -164.333 -166.5 -277c0 -114 49.333 -202.333 148 -265s224 -94 376 -94c214.667 0 386.667 37 516 111h13v-199c-128 -64 -303.667 -96 -527 -96
c-198.667 0 -362.167 48.667 -490.5 146s-192.5 228.333 -192.5 393c0 165.333 87 297.333 261 396s392 148 654 148c-210 75.333 -461.667 113 -755 113h-94v186h106c150 0 312.333 -25.667 487 -77s338.334 -121.666 491.001 -210.999v-131
c-115.333 0 -185 -0.666992 -209 -2v-162c0 -68 20 -116.167 60 -144.5s102 -42.5 186 -42.5h44v-188zM702.999 11.999h-177v147h177v-147z" />
    <glyph glyph-name="uniFE9F" unicode="&#x62c;" horiz-adv-x="1334" arabic-form="initial" 
d="M1236 184c-142.667 0 -352.169 -30.667 -628.502 -92s-478.833 -92 -607.5 -92c-39.333 0 -73.833 17 -103.5 51s-44.5 79.667 -44.5 137h155c114.667 0 290.5 26.833 527.5 80.5s399.5 82.834 487.5 87.501c-242 182 -503 273 -783 273h-114v186h126
c64.667 0 127.334 -5.33301 188.001 -16c60 -10.667 119.667 -26.667 179 -48c58.667 -20.667 118.334 -47.334 179.001 -80.001c57.333 -31.333 118.333 -69 183 -113c60 -40.667 126 -89 198 -145l52 -41h2l4 1v-189zM842.998 -244h-177v147h177v-147z" />
    <glyph glyph-name="uniFEA2" unicode="&#x62d;" horiz-adv-x="1334" arabic-form="final" 
d="M1334 0l-39.001 -0.000976562c-272 0 -408 106.333 -408 319v211c-196 -17.333 -349.5 -62 -460.5 -134s-166.5 -164.333 -166.5 -277c0 -114 49.333 -202.333 148 -265s224 -94 376 -94c214.667 0 386.667 37 516 111h13v-199c-128 -64 -303.667 -96 -527 -96
c-198.667 0 -362.167 48.667 -490.5 146s-192.5 228.333 -192.5 393c0 165.333 87 297.333 261 396s392 148 654 148c-210 75.333 -461.667 113 -755 113h-94v186h106c150 0 312.333 -25.667 487 -77s338.334 -121.666 491.001 -210.999v-131
c-115.333 0 -185 -0.666992 -209 -2v-162c0 -68 20 -116.167 60 -144.5s102 -42.5 186 -42.5h44v-188z" />
    <glyph glyph-name="uniFEA3" unicode="&#x62d;" horiz-adv-x="1334" arabic-form="initial" 
d="M1236 184c-142.667 0 -352.169 -30.667 -628.502 -92s-478.833 -92 -607.5 -92c-39.333 0 -73.833 17 -103.5 51s-44.5 79.667 -44.5 137h155c114.667 0 290.5 26.833 527.5 80.5s399.5 82.834 487.5 87.501c-242 182 -503 273 -783 273h-114v186h126
c64.667 0 127.334 -5.33301 188.001 -16c60 -10.667 119.667 -26.667 179 -48c58.667 -20.667 118.334 -47.334 179.001 -80.001c57.333 -31.333 118.333 -69 183 -113c60 -40.667 126 -89 198 -145l52 -41h2l4 1v-189z" />
    <glyph glyph-name="uniFEA6" unicode="&#x62e;" horiz-adv-x="1334" arabic-form="final" 
d="M1334 0l-39.001 -0.000976562c-272 0 -408 106.333 -408 319v211c-196 -17.333 -349.5 -62 -460.5 -134s-166.5 -164.333 -166.5 -277c0 -114 49.333 -202.333 148 -265s224 -94 376 -94c214.667 0 386.667 37 516 111h13v-199c-128 -64 -303.667 -96 -527 -96
c-198.667 0 -362.167 48.667 -490.5 146s-192.5 228.333 -192.5 393c0 165.333 87 297.333 261 396s392 148 654 148c-210 75.333 -461.667 113 -755 113h-94v186h106c150 0 312.333 -25.667 487 -77s338.334 -121.666 491.001 -210.999v-131
c-115.333 0 -185 -0.666992 -209 -2v-162c0 -68 20 -116.167 60 -144.5s102 -42.5 186 -42.5h44v-188zM922.999 1120h-177v147h177v-147z" />
    <glyph glyph-name="uniFEA7" unicode="&#x62e;" horiz-adv-x="1334" arabic-form="initial" 
d="M1236 184c-142.667 0 -352.169 -30.667 -628.502 -92s-478.833 -92 -607.5 -92c-39.333 0 -73.833 17 -103.5 51s-44.5 79.667 -44.5 137h155c114.667 0 290.5 26.833 527.5 80.5s399.5 82.834 487.5 87.501c-242 182 -503 273 -783 273h-114v186h126
c64.667 0 127.334 -5.33301 188.001 -16c60 -10.667 119.667 -26.667 179 -48c58.667 -20.667 118.334 -47.334 179.001 -80.001c57.333 -31.333 118.333 -69 183 -113c60 -40.667 126 -89 198 -145l52 -41h2l4 1v-189zM854.998 936h-177v147h177v-147z" />
    <glyph glyph-name="uniFEB3" unicode="&#x633;" horiz-adv-x="1487" arabic-form="initial" 
d="M1388 188c0 -125.333 -72.666 -188 -217.999 -188h-98c-117.333 0 -197 24 -239 72c-42 -48 -121.333 -72 -238 -72s-196.334 24 -239.001 72c-44 -48 -130 -72 -258 -72h-98c-39.333 0 -73.833 17 -103.5 51s-44.5 79.667 -44.5 137h246c119.333 0 179 44.667 179 134
v100h157v-100c0 -89.333 53.667 -134 161 -134c106.667 0 160 44.667 160 134v100h157v-100c0 -89.333 53.333 -134 160 -134c106 0 159 26.667 159 80v367h157v-447z" />
    <glyph glyph-name="uniFEB7" unicode="&#x634;" horiz-adv-x="1487" arabic-form="initial" 
d="M1388 188c0 -125.333 -72.666 -188 -217.999 -188h-98c-117.333 0 -197 24 -239 72c-42 -48 -121.333 -72 -238 -72s-196.334 24 -239.001 72c-44 -48 -130 -72 -258 -72h-98c-39.333 0 -73.833 17 -103.5 51s-44.5 79.667 -44.5 137h246c119.333 0 179 44.667 179 134
v100h157v-100c0 -89.333 53.667 -134 161 -134c106.667 0 160 44.667 160 134v100h157v-100c0 -89.333 53.333 -134 160 -134c106 0 159 26.667 159 80v367h157v-447zM848.001 926h-177v147h177v-147zM1025 717h-177v147h177v-147zM671.001 717h-177v147h177v-147z" />
    <glyph glyph-name="uniFEBB" unicode="&#x635;" horiz-adv-x="2077" arabic-form="initial" 
d="M661 188c186.667 218 350.833 377 492.5 477s278.5 150 410.5 150c118.667 0 225.667 -54 321 -162s143 -225.333 143 -352c0 -92 -51 -165.167 -153 -219.5s-240.333 -81.5 -415 -81.5h-909c-120.667 -0 -212.667 27.333 -276 82c-60 -54.667 -151.667 -82 -275 -82
c-39.333 0 -73.833 17 -103.5 51s-44.5 79.667 -44.5 137h153c128 0 192 63.667 192 191v10h157v-10c0 -127.333 64 -191 192 -191h115zM857.999 188l579.999 -0.000976562c130 0 234.667 11.5 314 34.5s119 52.5 119 88.5c0 88 -33.833 163 -101.5 225s-137.5 93 -209.5 93
c-111.333 0 -222.166 -34.667 -332.499 -104s-233.5 -181.666 -369.5 -336.999z" />
    <glyph glyph-name="uniFEBF" unicode="&#x636;" horiz-adv-x="2077" arabic-form="initial" 
d="M661 188c186.667 218 350.833 377 492.5 477s278.5 150 410.5 150c118.667 0 225.667 -54 321 -162s143 -225.333 143 -352c0 -92 -51 -165.167 -153 -219.5s-240.333 -81.5 -415 -81.5h-909c-120.667 -0 -212.667 27.333 -276 82c-60 -54.667 -151.667 -82 -275 -82
c-39.333 0 -73.833 17 -103.5 51s-44.5 79.667 -44.5 137h153c128 0 192 63.667 192 191v10h157v-10c0 -127.333 64 -191 192 -191h115zM857.999 188l579.999 -0.000976562c130 0 234.667 11.5 314 34.5s119 52.5 119 88.5c0 88 -33.833 163 -101.5 225s-137.5 93 -209.5 93
c-111.333 0 -222.166 -34.667 -332.499 -104s-233.5 -181.666 -369.5 -336.999zM1610 957.999h-177v147h177v-147z" />
    <glyph glyph-name="uniFECA" unicode="&#x639;" horiz-adv-x="1114" arabic-form="final" 
d="M1114 0h-26c-154 -0 -345.333 98.333 -574 295c-86.667 -54 -150.667 -102.333 -192 -145s-62 -92 -62 -148c0 -70.667 38.333 -128.334 115 -173.001s165.667 -67 267 -67c148.667 0 293.334 43 434.001 129h12v-213c-130.667 -68 -278.667 -102 -444 -102
c-148 0 -275.167 41 -381.5 123s-159.5 183 -159.5 303c0 78 24.5 144.5 73.5 199.5s128.5 115.5 238.5 181.5c-96 87.333 -162.5 155 -199.5 203s-55.5 99 -55.5 153c0 72 39 129.667 117 173s175 65 291 65c117.333 0 214.666 -21.5 291.999 -64.5
s116 -102.167 116 -177.5c0 -64 -20.667 -120.667 -62 -170s-133.333 -114.666 -276 -195.999c92 -76.667 168.667 -126 230 -148s128.333 -33 201 -33h45v-188zM541 455c96 54 165 98.332 207 132.999s63 69.334 63 104.001c0 26.667 -23 49 -69 67s-104 27 -174 27
c-68 0 -123.5 -8.83301 -166.5 -26.5s-64.5 -39.5 -64.5 -65.5c0 -24 15.5 -53.167 46.5 -87.5s83.5 -84.833 157.5 -151.5z" />
    <glyph glyph-name="uniFECB" unicode="&#x639;" horiz-adv-x="1334" arabic-form="initial" 
d="M1214 184c-393.333 -122.667 -700.334 -184 -921.001 -184h-293c-39.333 0 -73.833 17 -103.5 51s-44.5 79.667 -44.5 137h488c-72 32.667 -129 80 -171 142s-63 124 -63 186c0 131.333 44.667 234.5 134 309.5s207 112.5 353 112.5
c191.333 0 351.666 -27.333 480.999 -82v-213h-12c-128 75.333 -281.333 113 -460 113c-109.333 0 -193.166 -23.667 -251.499 -71s-87.5 -104.333 -87.5 -171c0 -98 39.833 -172.667 119.5 -224s138.167 -77 175.5 -77c23.333 0 102.333 15.5 237 46.5
s274.334 68.833 419.001 113.5v-189z" />
    <glyph glyph-name="uniFECC" unicode="&#x639;" horiz-adv-x="964" arabic-form="medial" 
d="M964 0h-98.998c-116 -0 -244 38.333 -384 115c-139.333 -76.667 -267 -115 -383 -115h-98c-39.333 0 -73.833 17 -103.5 51s-44.5 79.667 -44.5 137h246c83.333 0 159.333 11 228 33c-168.667 133.333 -253 257 -253 371c0 77.333 37.5 137 112.5 179s173.5 63 295.5 63
c123.333 0 222.166 -21 296.499 -63s111.5 -101.667 111.5 -179c0 -114 -84.333 -237.667 -253 -371c69.333 -22 145.666 -33 228.999 -33h99v-188zM481.002 289c76 45.333 136.834 93.166 182.501 143.499s68.5 92.5 68.5 126.5c0 56 -83.667 84 -251 84
c-166 0 -249 -28 -249 -84c0 -34 22.667 -76.167 68 -126.5s105.666 -98.166 180.999 -143.499z" />
    <glyph glyph-name="uniFECE" unicode="&#x63a;" horiz-adv-x="1114" arabic-form="final" 
d="M1114 0h-26c-154 -0 -345.333 98.333 -574 295c-86.667 -54 -150.667 -102.333 -192 -145s-62 -92 -62 -148c0 -70.667 38.333 -128.334 115 -173.001s165.667 -67 267 -67c148.667 0 293.334 43 434.001 129h12v-213c-130.667 -68 -278.667 -102 -444 -102
c-148 0 -275.167 41 -381.5 123s-159.5 183 -159.5 303c0 78 24.5 144.5 73.5 199.5s128.5 115.5 238.5 181.5c-96 87.333 -162.5 155 -199.5 203s-55.5 99 -55.5 153c0 72 39 129.667 117 173s175 65 291 65c117.333 0 214.666 -21.5 291.999 -64.5
s116 -102.167 116 -177.5c0 -64 -20.667 -120.667 -62 -170s-133.333 -114.666 -276 -195.999c92 -76.667 168.667 -126 230 -148s128.333 -33 201 -33h45v-188zM541 455c96 54 165 98.332 207 132.999s63 69.334 63 104.001c0 26.667 -23 49 -69 67s-104 27 -174 27
c-68 0 -123.5 -8.83301 -166.5 -26.5s-64.5 -39.5 -64.5 -65.5c0 -24 15.5 -53.167 46.5 -87.5s83.5 -84.833 157.5 -151.5zM656 1151h-177v147h177v-147z" />
    <glyph glyph-name="uniFECF" unicode="&#x63a;" horiz-adv-x="1334" arabic-form="initial" 
d="M1214 184c-393.333 -122.667 -700.334 -184 -921.001 -184h-293c-39.333 0 -73.833 17 -103.5 51s-44.5 79.667 -44.5 137h488c-72 32.667 -129 80 -171 142s-63 124 -63 186c0 131.333 44.667 234.5 134 309.5s207 112.5 353 112.5
c191.333 0 351.666 -27.333 480.999 -82v-213h-12c-128 75.333 -281.333 113 -460 113c-109.333 0 -193.166 -23.667 -251.499 -71s-87.5 -104.333 -87.5 -171c0 -98 39.833 -172.667 119.5 -224s138.167 -77 175.5 -77c23.333 0 102.333 15.5 237 46.5
s274.334 68.833 419.001 113.5v-189zM690.999 1112h-177v147h177v-147z" />
    <glyph glyph-name="uniFED0" unicode="&#x63a;" horiz-adv-x="964" arabic-form="medial" 
d="M964 0h-98.998c-116 -0 -244 38.333 -384 115c-139.333 -76.667 -267 -115 -383 -115h-98c-39.333 0 -73.833 17 -103.5 51s-44.5 79.667 -44.5 137h246c83.333 0 159.333 11 228 33c-168.667 133.333 -253 257 -253 371c0 77.333 37.5 137 112.5 179s173.5 63 295.5 63
c123.333 0 222.166 -21 296.499 -63s111.5 -101.667 111.5 -179c0 -114 -84.333 -237.667 -253 -371c69.333 -22 145.666 -33 228.999 -33h99v-188zM481.002 289c76 45.333 136.834 93.166 182.501 143.499s68.5 92.5 68.5 126.5c0 56 -83.667 84 -251 84
c-166 0 -249 -28 -249 -84c0 -34 22.667 -76.167 68 -126.5s105.666 -98.166 180.999 -143.499zM571.003 1008h-177v147h177v-147z" />
    <glyph glyph-name="uniFED3" unicode="&#x641;" horiz-adv-x="713" arabic-form="initial" 
d="M546 467c-32.667 -27.333 -83.334 -41.001 -152.001 -41.001c-89.333 0 -166.666 28.5 -231.999 85.5s-98 134.167 -98 231.5c0 100.667 33 188.334 99 263.001s133 112 201 112c90 0 167.5 -54.5 232.5 -163.5s97.5 -257.167 97.5 -444.5
c0 -166 -42.333 -292.5 -127 -379.5s-205.667 -130.5 -363 -130.5h-204c-39.333 0 -73.833 17 -103.5 51s-44.5 79.667 -44.5 137h354c95.333 0 175.833 25.5 241.5 76.5s98.5 118.5 98.5 202.5zM530 646.999c0 74.667 -19 141.167 -57 199.5s-75.333 87.5 -112 87.5
c-32 0 -64.5 -18 -97.5 -54s-49.5 -79.333 -49.5 -130c0 -93.333 61.333 -140 184 -140c54 0 98 12.333 132 37zM414 1292h-177v147h177v-147z" />
    <glyph glyph-name="uniFED4" unicode="&#x641;" horiz-adv-x="727" arabic-form="medial" 
d="M727 0h-49c-96 -0 -200.667 33.333 -314 100c-114 -66.667 -219 -100 -315 -100h-49c-39.333 0 -73.833 17 -103.5 51s-44.5 79.667 -44.5 137h246c43.333 0 88 5.66699 134 17c-109.333 111.333 -164 215 -164 311c0 95.333 27.667 172.166 83 230.499
s126.333 87.5 213 87.5c86 0 156.667 -29.167 212 -87.5s83 -135.166 83 -230.499c0 -96 -54 -199.667 -162 -311c44.667 -11.333 88.667 -17 132 -17h98v-188zM364 266c92 72.667 138.001 152.667 138.001 240c0 39.333 -12.5 72 -37.5 98s-58.5 39 -100.5 39
c-42.667 0 -76.334 -13 -101.001 -39s-37 -58.667 -37 -98c0 -87.333 46 -167.333 138 -240zM452.001 1008h-177v147h177v-147z" />
    <glyph glyph-name="uniFED7" unicode="&#x642;" horiz-adv-x="713" arabic-form="initial" 
d="M546 467c-32.667 -27.333 -83.334 -41.001 -152.001 -41.001c-89.333 0 -166.666 28.5 -231.999 85.5s-98 134.167 -98 231.5c0 100.667 33 188.334 99 263.001s133 112 201 112c90 0 167.5 -54.5 232.5 -163.5s97.5 -257.167 97.5 -444.5
c0 -166 -42.333 -292.5 -127 -379.5s-205.667 -130.5 -363 -130.5h-204c-39.333 0 -73.833 17 -103.5 51s-44.5 79.667 -44.5 137h354c95.333 0 175.833 25.5 241.5 76.5s98.5 118.5 98.5 202.5zM530 646.999c0 74.667 -19 141.167 -57 199.5s-75.333 87.5 -112 87.5
c-32 0 -64.5 -18 -97.5 -54s-49.5 -79.333 -49.5 -130c0 -93.333 61.333 -140 184 -140c54 0 98 12.333 132 37zM600 1292h-176v147h176v-147zM276 1292h-177v147h177v-147z" />
    <glyph glyph-name="uniFED8" unicode="&#x642;" horiz-adv-x="727" arabic-form="medial" 
d="M727 0h-49c-96 -0 -200.667 33.333 -314 100c-114 -66.667 -219 -100 -315 -100h-49c-39.333 0 -73.833 17 -103.5 51s-44.5 79.667 -44.5 137h246c43.333 0 88 5.66699 134 17c-109.333 111.333 -164 215 -164 311c0 95.333 27.667 172.166 83 230.499
s126.333 87.5 213 87.5c86 0 156.667 -29.167 212 -87.5s83 -135.166 83 -230.499c0 -96 -54 -199.667 -162 -311c44.667 -11.333 88.667 -17 132 -17h98v-188zM364 266c92 72.667 138.001 152.667 138.001 240c0 39.333 -12.5 72 -37.5 98s-58.5 39 -100.5 39
c-42.667 0 -76.334 -13 -101.001 -39s-37 -58.667 -37 -98c0 -87.333 46 -167.333 138 -240zM614.001 1008h-176v147h176v-147zM290.001 1008h-177v147h177v-147z" />
    <glyph glyph-name="uniFEDB" unicode="&#x643;" horiz-adv-x="968" arabic-form="initial" 
d="M870 1333l-505.999 -250.001c-33.333 -13.333 -63.333 -31 -90 -53s-40 -40.333 -40 -55c0 -37.333 36.667 -85.333 110 -144l339 -268c101.333 -80 166 -140.167 194 -180.5s42 -79.833 42 -118.5c0 -176 -141.667 -264 -425 -264h-494c-39.333 0 -73.833 17 -103.5 51
s-44.5 79.667 -44.5 137h640c85.333 0 144.666 8.33301 177.999 25s50 44.667 50 84c0 25.333 -15.333 52.5 -46 81.5s-95.667 82.5 -195 160.5l-348 274c-84 67.333 -126 133 -126 197c0 34.667 16.333 66.334 49 95.001s103 70 211 124l605 301v-197z" />
    <glyph glyph-name="uniFEDE" unicode="&#x644;" horiz-adv-x="1253" arabic-form="final" 
d="M1156 248c0 -302 -182 -453 -546 -453c-196 0 -338.5 35.5 -427.5 106.5s-133.5 183.167 -133.5 336.5c0 82 8 165.667 24 251h166v-10c-22 -75.333 -33 -155 -33 -239c0 -96 30.667 -162.667 92 -200s166 -56 314 -56c256.667 0 385 92 385 276v1296h159v-1308z" />
    <glyph glyph-name="uniFEDF" unicode="&#x644;" horiz-adv-x="530" arabic-form="initial" 
d="M432 270c0 -82 -35 -147.5 -105 -196.5s-165.667 -73.5 -287 -73.5h-40c-39.333 0 -73.833 17 -103.5 51s-44.5 79.667 -44.5 137h178c163.333 0 245 52 245 156v1212h157v-1286z" />
    <glyph glyph-name="uniFEE0" unicode="&#x644;" horiz-adv-x="530" arabic-form="medial" 
d="M432 270c0 -82 -35 -147.5 -105 -196.5s-165.667 -73.5 -287 -73.5h-40c-39.333 0 -73.833 17 -103.5 51s-44.5 79.667 -44.5 137h178c163.333 0 245 52 245 156v1212h157v-1286z" />
    <glyph glyph-name="uniFEE3" unicode="&#x645;" horiz-adv-x="964" arabic-form="initial" 
d="M-148 188h103.997c74.667 0 122.834 18 144.501 54s35.834 94 42.501 174c16.667 237.333 127 356 331 356c128 0 233.333 -39.833 316 -119.5s124 -184.5 124 -314.5c0 -107.333 -31.167 -193.166 -93.5 -257.499s-147.5 -96.5 -255.5 -96.5
c-132.667 0 -239.667 52.333 -321 157c-35.333 -60.667 -67.666 -99.334 -96.999 -116.001s-71 -25 -125 -25h-22c-39.333 0 -73.833 17 -103.5 51s-44.5 79.667 -44.5 137zM550.997 168c63.333 0 113.499 16.167 150.499 48.5s55.5 70.833 55.5 115.5
c0 64.667 -23.167 122.5 -69.5 173.5s-108.166 76.5 -185.499 76.5c-134.667 0 -202 -64.333 -202 -193c0 -58 23 -109.333 69 -154s106.667 -67 182 -67z" />
    <glyph glyph-name="uniFEE7" unicode="&#x646;" horiz-adv-x="600" arabic-form="initial" 
d="M502 270c0 -82 -35.333 -147.5 -106 -196.5s-166.667 -73.5 -288 -73.5h-108c-39.333 0 -73.833 17 -103.5 51s-44.5 79.667 -44.5 137h246c164 0 246 52 246 156v373h158v-447zM428 891h-177v147h177v-147z" />
    <glyph glyph-name="uniFEEA" unicode="&#x647;" horiz-adv-x="938" arabic-form="final" 
d="M938 0c-94.667 0 -165.667 26.501 -213 79.501s-71 157.5 -71 313.5c-27.333 -36.667 -67 -67.334 -119 -92.001s-103.667 -37 -155 -37c-86 0 -156.5 25.833 -211.5 77.5s-82.5 122.167 -82.5 211.5c0 98.667 50.667 190.5 152 275.5s240 141.167 416 168.5v72h157v-676
c0 -74 10 -126.667 30 -158s52.333 -47 97 -47v-188zM654 569.001l0.000976562 293c-129.333 -22 -230 -61.333 -302 -118s-108 -119.667 -108 -189c0 -38 13 -67.333 39 -88s58.333 -31 97 -31c115.333 0 206.666 44.333 273.999 133z" />
    <glyph glyph-name="uniFEF0" unicode="&#x649;" horiz-adv-x="1454" arabic-form="final" 
d="M1454 0c-76 0 -137 14.8301 -183 44.4971s-82.333 69.334 -109 119.001s-55.667 115.334 -87 197.001s-60.333 134.167 -87 157.5s-60.334 35 -101.001 35c-74 0 -111 -29.333 -111 -88c0 -36.667 29 -83.667 87 -141c76.667 -76.667 115 -152.667 115 -228
c0 -176 -150 -264 -450 -264c-147.333 0 -266 40.667 -356 122s-135 193.666 -135 336.999c0 43.333 5.66699 100 17 170h160v-10c-13.333 -44 -20 -96.667 -20 -158c0 -97.333 27.667 -167.166 83 -209.499s139.666 -63.5 252.999 -63.5c190.667 0 286 39 286 117
c0 34.667 -29.667 82 -89 142c-75.333 74 -113 147.667 -113 221c0 72.667 23.333 131 70 175s114.334 66 203.001 66c63.333 0 119 -14.667 167 -44s93.167 -105.666 135.5 -228.999s82.833 -200.833 121.5 -232.5s86.334 -47.5 143.001 -47.5v-188z" />
    <glyph glyph-name="uniFEF2" unicode="&#x64a;" horiz-adv-x="1454" arabic-form="final" 
d="M1454 0c-76 0 -137 14.8301 -183 44.4971s-82.333 69.334 -109 119.001s-55.667 115.334 -87 197.001s-60.333 134.167 -87 157.5s-60.334 35 -101.001 35c-74 0 -111 -29.333 -111 -88c0 -36.667 29 -83.667 87 -141c76.667 -76.667 115 -152.667 115 -228
c0 -176 -150 -264 -450 -264c-147.333 0 -266 40.667 -356 122s-135 193.666 -135 336.999c0 43.333 5.66699 100 17 170h160v-10c-13.333 -44 -20 -96.667 -20 -158c0 -97.333 27.667 -167.166 83 -209.499s139.666 -63.5 252.999 -63.5c190.667 0 286 39 286 117
c0 34.667 -29.667 82 -89 142c-75.333 74 -113 147.667 -113 221c0 72.667 23.333 131 70 175s114.334 66 203.001 66c63.333 0 119 -14.667 167 -44s93.167 -105.666 135.5 -228.999s82.833 -200.833 121.5 -232.5s86.334 -47.5 143.001 -47.5v-188zM804 -424.003h-176v147
h176v-147zM480 -424.003h-178v147h178v-147z" />
    <glyph glyph-name="uniFEF3" unicode="&#x64a;" horiz-adv-x="600" arabic-form="initial" 
d="M502 270c0 -82 -35.333 -147.5 -106 -196.5s-166.667 -73.5 -288 -73.5h-108c-39.333 0 -73.833 17 -103.5 51s-44.5 79.667 -44.5 137h246c164 0 246 52 246 156v373h158v-447zM501 -293h-176v147h176v-147zM177 -293h-177v147h177v-147z" />
    <glyph glyph-name=".notdef" horiz-adv-x="1322" 
d="M166 0v1398h990v-1398h-990zM314 148h694v1102h-694v-1102z" />
    <glyph glyph-name="null" unicode="&#xd;" 
 />
    <glyph glyph-name="space" unicode=" " horiz-adv-x="565" 
 />
    <glyph glyph-name="exclam" unicode="!" horiz-adv-x="670" 
d="M500 1434l-39 -988h-256l-37 988h332zM336 -23c-53.333 0 -97.333 16.167 -132 48.5s-52 71.5 -52 117.5c0 48 17.5 87.333 52.5 118s78.833 46 131.5 46c53.333 0 97 -15.5 131 -46.5s51 -70.167 51 -117.5c0 -48 -16.833 -87.667 -50.5 -119s-77.5 -47 -131.5 -47z" />
    <glyph glyph-name="quotedbl" unicode="&#x22;" horiz-adv-x="1010" 
d="M834 1452l-31 -444h-201l-31 444h263zM438 1452l-30 -442h-203l-29 442h262z" />
    <glyph glyph-name="numbersign" unicode="#" horiz-adv-x="1213" 
d="M1176 1069l-39 -180h-185l-55 -248h207l-45 -180h-199l-78 -346h-200l73 346h-229l-74 -346h-200l71 346h-186l37 180h188l53 248h-202l34 180h205l74 356h205l-74 -356h229l76 356h203l-74 -356h185zM750 889h-232l-55 -248h231z" />
    <glyph glyph-name="dollar" unicode="$" horiz-adv-x="1178" 
d="M674 8l-0.000976562 -216.999h-146v211c-135.333 0.666992 -261.333 31.334 -378 92.001v277c38.667 -31.333 96.334 -60.333 173.001 -87s145 -42 205 -46v364c-156 58 -262.5 120.833 -319.5 188.5s-85.5 150.167 -85.5 247.5c0 104.667 37 193.834 111 267.501
s172 116.5 294 128.5v186h146v-182c140.667 -6.66699 245.667 -29.334 315 -68.001v-270c-93.333 56.667 -198.333 91.334 -315 104.001v-379c146 -52.667 250.667 -112.834 314 -180.501s95 -149.5 95 -245.5c0 -110.667 -35.333 -199.834 -106 -267.501
s-171.667 -108.834 -303 -123.501zM527.999 883.001v317c-92.667 -16.667 -139 -65 -139 -145c0 -68.667 46.333 -126 139 -172zM673.999 545.001v-303c95.333 14.667 143 62.334 143 143.001c0 65.333 -47.667 118.666 -143 159.999z" />
    <glyph glyph-name="percent" unicode="%" horiz-adv-x="1776" 
d="M430 707c-102 0 -184.167 32.333 -246.5 97s-93.5 151.667 -93.5 261c0 119.333 33.167 214 99.5 284s154.833 105 265.5 105c106 0 188.833 -31.667 248.5 -95s89.5 -152.333 89.5 -267c0 -118 -33 -211.667 -99 -281s-154 -104 -264 -104zM449 1278
c-97.333 0 -146 -67.667 -146 -203c0 -128 46.333 -192 139 -192c94.667 0 142 66.667 142 200c0 130 -45 195 -135 195zM1477 1434l-934 -1434h-244l932 1434h246zM1323 -20c-102 0 -184.167 32.334 -246.5 97.001s-93.5 151.667 -93.5 261c0 119.333 33.167 214 99.5 284
s154.833 105 265.5 105c106.667 0 189.667 -31.333 249 -94s89 -151.334 89 -266.001c0 -118 -33 -212 -99 -282s-154 -105 -264 -105zM1339 551.001c-96.667 0 -145.001 -67.667 -145.001 -203c0 -128 47 -192 141 -192c94.667 0 142 66.667 142 200
c0 62 -12.667 110 -38 144s-58.666 51 -99.999 51z" />
    <glyph glyph-name="ampersand" unicode="&#x26;" horiz-adv-x="1740" 
d="M1479 -23c-35.333 0 -68.8291 4.66406 -100.496 13.9971s-61.667 22 -90 38s-55.166 34.833 -80.499 56.5s-49.333 44.834 -72 69.501c-24.667 -20 -54.334 -40.667 -89.001 -62s-73.834 -40.5 -117.501 -57.5s-91.834 -31 -144.501 -42s-109 -16.5 -169 -16.5
c-78 0 -150.167 9.33301 -216.5 28s-123.5 46.5 -171.5 83.5s-85.5 82.833 -112.5 137.5s-40.5 118 -40.5 190c0 56.667 10.167 107.167 30.5 151.5s46.833 83.166 79.5 116.499s69.667 62 111 86s83.333 44 126 60c-20.667 16 -41.5 34.5 -62.5 55.5s-39.833 44 -56.5 69
s-30.167 52.167 -40.5 81.5s-15.5 60.333 -15.5 93c0 52.667 10.667 99.334 32 140.001s51.166 75 89.499 103s84.166 49.333 137.499 64s112 22 176 22c61.333 0 117.5 -7.66699 168.5 -23s94.833 -36.666 131.5 -63.999s65 -60.166 85 -98.499s30 -80.5 30 -126.5
c0 -74 -22.167 -138.167 -66.5 -192.5s-106.833 -98.5 -187.5 -132.5c32 -14.667 62.667 -31.334 92 -50.001s58 -40 86 -64s55.333 -51.167 82 -81.5s53 -65.166 79 -104.499c54.667 68.667 93.834 141.834 117.501 219.501s35.5 158.5 35.5 242.5
c0 25.333 -1.5 49.666 -4.5 72.999s-7.83301 45 -14.5 65h269c7.33301 -21.333 12.666 -42 15.999 -62s5 -43.667 5 -71c0 -64.667 -6.83301 -127.667 -20.5 -189s-32.834 -120 -57.501 -176s-54.5 -109 -89.5 -159s-73.5 -96.667 -115.5 -140
c32.667 -34 66.334 -60.167 101.001 -78.5s67.334 -27.5 98.001 -27.5c32 0 64.667 3.5 98 10.5s62.333 16.833 87 29.5v-238c-36.667 -14.667 -72.834 -25.5 -108.501 -32.5s-75.5 -10.5 -119.5 -10.5zM632.004 215.997c39.333 0 76.332 3.83105 110.999 11.498
s67.334 17.834 98.001 30.501s59.167 27.334 85.5 44.001s50.5 34 72.5 52c-34 53.333 -67.667 98.5 -101 135.5s-66.333 68.667 -99 95s-65.167 48.5 -97.5 66.5s-64.833 34.333 -97.5 49c-27.333 -13.333 -53.5 -28.166 -78.5 -44.499s-47.167 -35.333 -66.5 -57
s-34.833 -46.334 -46.5 -74.001s-17.5 -59.5 -17.5 -95.5c0 -32 5.66699 -61 17 -87s27.5 -48.333 48.5 -67s46 -33.167 75 -43.5s61.167 -15.5 96.5 -15.5zM817.003 1124c0 19.333 -3.66699 36.666 -11 51.999s-17.333 28.166 -30 38.499s-27 18.333 -43 24
s-33 8.5 -51 8.5c-22 0 -42.167 -3.33301 -60.5 -10s-34.333 -15.667 -48 -27s-24.167 -24.833 -31.5 -40.5s-11 -32.5 -11 -50.5c0 -37.333 11.667 -71.666 35 -102.999s52.333 -56.666 87 -75.999c22 8 42.833 17.333 62.5 28s37 23.334 52 38.001s27 31.667 36 51
s13.5 41.666 13.5 66.999z" />
    <glyph glyph-name="quotesingle" unicode="'" horiz-adv-x="600" 
d="M430 1452l-31 -442h-200l-29 442h260z" />
    <glyph glyph-name="parenleft" unicode="(" horiz-adv-x="756" 
d="M739 -326h-258c-215.333 237.333 -323 529 -323 875c0 334 107.667 629 323 885h256c-202 -268 -303 -563 -303 -885s101.667 -613.667 305 -875z" />
    <glyph glyph-name="parenleft" unicode="&#xfd3e;" horiz-adv-x="756" 
d="M739 -326h-258c-215.333 237.333 -323 529 -323 875c0 334 107.667 629 323 885h256c-202 -268 -303 -563 -303 -885s101.667 -613.667 305 -875z" />
    <glyph glyph-name="parenright" unicode=")" horiz-adv-x="756" 
d="M274 -326h-256c204 260 306 551.667 306 875c0 320.667 -102 615.667 -306 885h258c216 -256.667 324 -551.667 324 -885c0 -343.333 -108.667 -635 -326 -875z" />
    <glyph glyph-name="parenright" unicode="&#xfd3f;" horiz-adv-x="756" 
d="M274 -326h-256c204 260 306 551.667 306 875c0 320.667 -102 615.667 -306 885h258c216 -256.667 324 -551.667 324 -885c0 -343.333 -108.667 -635 -326 -875z" />
    <glyph glyph-name="asterisk" unicode="*" horiz-adv-x="932" 
d="M864 1053l-274 -37l196 -211l-182 -125l-137 254l-137 -254l-183 125l197 211l-274 37l71 202l252 -108l-43 287h234l-43 -287l250 108z" />
    <glyph glyph-name="plus" unicode="+" horiz-adv-x="1448" 
d="M1212 485h-385v-385h-202v385h-387v203h387v387h202v-387h385v-203z" />
    <glyph glyph-name="comma" unicode="," horiz-adv-x="555" 
d="M432 252l-147 -506h-246l102 506h291z" />
    <glyph glyph-name="hyphen" unicode="-" horiz-adv-x="828" 
d="M690 436h-547v221h547v-221z" />
    <glyph glyph-name="period" unicode="." horiz-adv-x="555" 
d="M274 -25c-52 0 -95.333 16 -130 48s-52 71.333 -52 118c0 48 17.833 87.333 53.5 118s80.167 46 133.5 46c54 0 98.167 -15.5 132.5 -46.5s51.5 -70.167 51.5 -117.5c0 -48.667 -17.5 -88.5 -52.5 -119.5s-80.5 -46.5 -136.5 -46.5z" />
    <glyph glyph-name="slash" unicode="/" horiz-adv-x="908" 
d="M932 1434l-699 -1672h-282l696 1672h285z" />
    <glyph glyph-name="zero" unicode="0" horiz-adv-x="1178" 
d="M582 -25c-341.333 0 -511.999 239.667 -511.999 719c0 248.667 46.167 438.167 138.5 568.5s226.166 195.5 401.499 195.5c333.333 0 500 -243.667 500 -731c0 -242.667 -45.5 -428.667 -136.5 -558s-221.5 -194 -391.5 -194zM596.001 1217
c-136.667 0 -205 -171.667 -205 -515c0 -323.333 67 -485 201 -485c130.667 0 196 166.667 196 500s-64 500 -192 500z" />
    <glyph glyph-name="one" unicode="1" horiz-adv-x="1178" 
d="M1077 0h-907v250h297v893l-305 -66v256l620 125v-1208h295v-250z" />
    <glyph glyph-name="two" unicode="2" horiz-adv-x="1178" 
d="M471 268l-0.00195312 -6h582v-262h-944v246l411 393c82.667 79.333 140.834 145.833 174.501 199.5s50.5 110.167 50.5 169.5c0 132 -71 198 -213 198c-123.333 0 -241.333 -49 -354 -147v278c124.667 80.667 265.334 121 422.001 121
c146.667 0 261.167 -36.833 343.5 -110.5s123.5 -173.167 123.5 -298.5c0 -167.333 -100.333 -340.333 -301 -519z" />
    <glyph glyph-name="three" unicode="3" horiz-adv-x="1178" 
d="M147 47l-0.000976562 274.999c96 -70 208 -105 336 -105c80.667 0 143.5 17.333 188.5 52s67.5 83 67.5 145c0 64 -27.833 113.333 -83.5 148s-132.167 52 -229.5 52h-129v242h119c186.667 0 280 62 280 186c0 116.667 -71.667 175 -215 175c-96 0 -189.333 -31 -280 -93
v258c100.667 50.667 218 76 352 76c146.667 0 260.834 -33 342.501 -99s122.5 -151.667 122.5 -257c0 -187.333 -95 -304.666 -285 -351.999v-5c101.333 -12.667 181.333 -49.5 240 -110.5s88 -135.833 88 -224.5c0 -134 -49 -240 -147 -318s-233.333 -117 -406 -117
c-148 0 -268.333 24 -361 72z" />
    <glyph glyph-name="four" unicode="4" horiz-adv-x="1178" 
d="M1124 305h-172v-305h-288v305h-625v201l602 928h311v-904h172v-225zM668 1118h-6c-9.33301 -24 -27.333 -61.333 -54 -112l-307 -476h363v451c0 40 1.33301 85.667 4 137z" />
    <glyph glyph-name="five" unicode="5" horiz-adv-x="1178" 
d="M164 37l0.000976562 270.001c98 -60 202.333 -90 313 -90c83.333 0 148.5 19.833 195.5 59.5s70.5 93.5 70.5 161.5c0 142 -100.333 213 -301 213c-65.333 0 -144.333 -6 -237 -18v801h794v-258h-524v-287c42 4 81.667 6 119 6c147.333 0 262.666 -38.667 345.999 -116
s125 -181.333 125 -312c0 -144.667 -49.667 -262.834 -149 -354.501s-234 -137.5 -404 -137.5c-138 0 -254 20.667 -348 62z" />
    <glyph glyph-name="six" unicode="6" horiz-adv-x="1178" 
d="M1008 1419v-264.001c-72.667 41.333 -152 62 -238 62c-106 0 -191.5 -40.5 -256.5 -121.5s-98.833 -189.5 -101.5 -325.5h6c68.667 101.333 169 152 301 152c120 0 215.167 -40.667 285.5 -122s105.5 -189 105.5 -323c0 -144 -46.667 -263.667 -140 -359
s-212 -143 -356 -143c-161.333 0 -287.333 58.333 -378 175s-136 280.334 -136 491.001c0 248 58.333 446.167 175 594.5s275 222.5 475 222.5c110.667 0 196.667 -13 258 -39zM612 687.999c-58 0 -104.167 -20.332 -138.5 -60.999s-51.5 -92.667 -51.5 -156
c0 -70 17.5 -129.833 52.5 -179.5s81.5 -74.5 139.5 -74.5c56.667 0 102 22.167 136 66.5s51 102.166 51 173.499c0 154 -63 231 -189 231z" />
    <glyph glyph-name="seven" unicode="7" horiz-adv-x="1178" 
d="M1094 1288l-506 -1288h-334l510 1176h-668v258h998v-146z" />
    <glyph glyph-name="eight" unicode="8" horiz-adv-x="1178" 
d="M371 745v5c-164 67.333 -246 176.333 -246 327c0 110.667 44 201.834 132 273.501s201.667 107.5 341 107.5c142 0 255.333 -33.5 340 -100.5s127 -153.5 127 -259.5c0 -156.667 -90.667 -272 -272 -346v-4c97.333 -28.667 172.833 -75.834 226.5 -141.501
s80.5 -139.5 80.5 -221.5c0 -126.667 -46.833 -226.667 -140.5 -300s-224.5 -110 -392.5 -110c-145.333 0 -262.5 35.833 -351.5 107.5s-133.5 166.5 -133.5 284.5c0 171.333 96.333 297.333 289 378zM768 1071c0 48.667 -15.5 87.5 -46.5 116.5s-72.167 43.5 -123.5 43.5
c-50 0 -91.5 -15.167 -124.5 -45.5s-49.5 -69.166 -49.5 -116.499c0 -89.333 57.333 -157 172 -203c114.667 47.333 172 115.666 172 204.999zM582 625c-134 -52.667 -201 -133.333 -201 -242c0 -52 20.5 -95 61.5 -129s90.833 -51 149.5 -51
c63.333 0 114.333 16.667 153 50s58 77.333 58 132c0 109.333 -73.667 189.333 -221 240z" />
    <glyph glyph-name="nine" unicode="9" horiz-adv-x="1178" 
d="M160 31v260c75.333 -49.333 166 -74 272 -74c110.667 0 196.167 37.5 256.5 112.5s90.833 181.5 91.5 319.5l-6 2c-63.333 -94 -159.666 -141 -288.999 -141c-117.333 0 -214.5 41 -291.5 123s-115.5 188.333 -115.5 319c0 152.667 47 275.167 141 367.5
s215.667 138.5 365 138.5c153.333 0 275.5 -58 366.5 -174s136.5 -282 136.5 -498c0 -256 -54.833 -455.167 -164.5 -597.5s-262.834 -213.5 -459.501 -213.5c-116.667 0 -217.667 18.667 -303 56zM575 1217c-54.667 0 -99.668 -22.166 -135.001 -66.499
s-53 -101.5 -53 -171.5c0 -72.667 17.5 -129.834 52.5 -171.501s82.5 -62.5 142.5 -62.5c54.667 0 99.334 19.833 134.001 59.5s52 89.5 52 149.5c0 75.333 -18.167 138 -54.5 188s-82.5 75 -138.5 75z" />
    <glyph glyph-name="colon" unicode=":" horiz-adv-x="555" 
d="M274 707c-52 0 -95.333 15.833 -130 47.5s-52 70.834 -52 117.501c0 48 17.833 87.333 53.5 118s80.167 46 133.5 46c54 0 98.167 -15.5 132.5 -46.5s51.5 -70.167 51.5 -117.5c0 -48.667 -17.5 -88.334 -52.5 -119.001s-80.5 -46 -136.5 -46zM274 -25
c-52 0 -95.333 16 -130 48s-52 71.333 -52 118c0 48 17.833 87.333 53.5 118s80.167 46 133.5 46c54 0 98.167 -15.5 132.5 -46.5s51.5 -70.167 51.5 -117.5c0 -48.667 -17.5 -88.5 -52.5 -119.5s-80.5 -46.5 -136.5 -46.5z" />
    <glyph glyph-name="semicolon" unicode=";" horiz-adv-x="555" 
d="M281 707c-52.667 0 -96.333 16.001 -131 48.001s-52 71 -52 117c0 48.667 17.5 88.167 52.5 118.5s79.167 45.5 132.5 45.5c54 0 98.167 -15.5 132.5 -46.5s51.5 -70.167 51.5 -117.5c0 -48.667 -17 -88.334 -51 -119.001s-79 -46 -135 -46zM432.001 252.001l-147 -506
h-246l102 506h291z" />
    <glyph glyph-name="less" unicode="&#x3c;" horiz-adv-x="1448" 
d="M1192 63l-934 426v162l934 447v-238l-666 -285v-6l666 -268v-238z" />
    <glyph glyph-name="equal" unicode="=" horiz-adv-x="1448" 
d="M1212 700h-974v205h974v-205zM1212 266h-974v203h974v-203z" />
    <glyph glyph-name="greater" unicode="&#x3e;" horiz-adv-x="1448" 
d="M1192 502l-934 -426v237l668 267v4l-668 286v238l934 -444v-162z" />
    <glyph glyph-name="question" unicode="?" horiz-adv-x="897" 
d="M263 415c-6.66699 17.333 -11.8301 36.833 -15.4971 58.5s-5.5 42.167 -5.5 61.5c0 30.667 3 58.667 9 84s15 49.166 27 71.499s27 43.666 45 63.999s39 40.5 63 60.5c25.333 21.333 47.5 41.166 66.5 59.499s35.167 36.666 48.5 54.999s23.333 37.333 30 57
s10 41.5 10 65.5c0 20.667 -3.66699 39.834 -11 57.501s-17.833 32.834 -31.5 45.501s-30.334 22.667 -50.001 30s-41.5 11 -65.5 11c-52 0 -106 -10.833 -162 -32.5s-109 -54.5 -159 -98.5v301c51.333 30.667 107.333 53.667 168 69s123.334 23 188.001 23
c62 0 119.667 -6.83301 173 -20.5s99.833 -35.167 139.5 -64.5s70.667 -66.833 93 -112.5s33.5 -100.5 33.5 -164.5c0 -40.667 -4.66699 -77.5 -14 -110.5s-23 -64.167 -41 -93.5s-40.333 -57.5 -67 -84.5s-57.334 -54.833 -92.001 -83.5
c-23.333 -19.333 -43.833 -37.333 -61.5 -54s-32.334 -33.167 -44.001 -49.5s-20.5 -33.666 -26.5 -51.999s-9 -39.166 -9 -62.499c0 -16 2.16699 -32.333 6.5 -49s10.166 -30.667 17.499 -42h-263zM409.004 -23c-53.333 0 -97.667 16.001 -133 48.001
c-35.333 33.333 -53 72.666 -53 117.999c0 46.667 17.667 85.667 53 117s79.666 47 132.999 47c52.667 0 96.334 -15.667 131.001 -47c34.667 -30.667 52 -69.667 52 -117c0 -48 -17 -87.667 -51 -119c-34.667 -31.333 -78.667 -47 -132 -47z" />
    <glyph glyph-name="at" unicode="@" horiz-adv-x="1954" 
d="M1122 371l-6 -0.000976562c-46.667 -127.333 -131.334 -191 -254.001 -191c-92 0 -166.167 33.333 -222.5 100s-84.5 159 -84.5 277c0 152.667 39 276.834 117 372.501s172 143.5 282 143.5c99.333 0 161.666 -39 186.999 -117h4l10 99h225
c-30 -284 -45 -469.667 -45 -557c0 -93.333 25.333 -140 76 -140c53.333 0 97.333 35.333 132 106s52 163 52 277c0 156 -49.667 283.833 -149 383.5s-238 149.5 -416 149.5c-190.667 0 -349.167 -66.5 -475.5 -199.5s-189.5 -295.167 -189.5 -486.5
c0 -185.333 55.833 -331.333 167.5 -438s265.834 -160 462.501 -160c150 0 287.333 28.667 412 86v-191c-114 -48.667 -260.667 -73 -440 -73c-246 0 -446.167 70.5 -600.5 211.5s-231.5 330.5 -231.5 568.5c0 242.667 82.333 446.667 247 612s376.667 248 636 248
c240 0 434.167 -64.167 582.5 -192.5s222.5 -297.5 222.5 -507.5c0 -172.667 -45.333 -311.167 -136 -415.5s-203 -156.5 -337 -156.5c-66 0 -119.667 17.667 -161 53s-63.666 81.333 -66.999 138zM989 898.999c-60 0 -108.834 -34.167 -146.501 -102.5
s-56.5 -147.5 -56.5 -237.5c0 -64 12.833 -113.833 38.5 -149.5s58.834 -53.5 99.501 -53.5c62.667 0 112 33.667 148 101s54 157.333 54 270c0 53.333 -12.5 95.333 -37.5 126s-58.167 46 -99.5 46z" />
    <glyph glyph-name="A" unicode="A" horiz-adv-x="1440" 
d="M1425 0h-352l-102 319h-510l-101 -319h-350l522 1434h383zM897 567l-154.001 482c-11.333 36 -19.333 79 -24 129h-8c-3.33301 -42 -11.666 -83.667 -24.999 -125l-156 -486h367z" />
    <glyph glyph-name="B" unicode="B" horiz-adv-x="1313" 
d="M164 0l-0.000976562 1434h522c160 0 283 -29.333 369 -88s129 -141.334 129 -248.001c0 -77.333 -26.167 -145 -78.5 -203s-119.166 -98.333 -200.499 -121v-4c102 -12.667 183.5 -50.334 244.5 -113.001s91.5 -139 91.5 -229c0 -131.333 -47 -235.5 -141 -312.5
s-222.333 -115.5 -385 -115.5h-551zM486.999 1196v-340h142c66.667 0 119.167 16.167 157.5 48.5s57.5 76.833 57.5 133.5c0 105.333 -78.667 158 -236 158h-121zM486.999 616.002l0.000976562 -378h175c74.667 0 133.167 17.333 175.5 52s63.5 82 63.5 142
c0 57.333 -20.833 102.333 -62.5 135s-99.834 49 -174.501 49h-177z" />
    <glyph glyph-name="C" unicode="C" horiz-adv-x="1278" 
d="M1192 51c-104.667 -50.667 -241.332 -75.998 -409.999 -75.998c-220 0 -393 64.667 -519 194s-189 301.666 -189 516.999c0 229.333 70.833 415.333 212.5 558s325.5 214 551.5 214c140 0 258 -17.667 354 -53v-311c-96 57.333 -205.333 86 -328 86
c-134.667 0 -243.334 -42.333 -326.001 -127s-124 -199.334 -124 -344.001c0 -138.667 39 -249.167 117 -331.5s183 -123.5 315 -123.5c126 0 241.333 30.667 346 92v-295z" />
    <glyph glyph-name="D" unicode="D" horiz-adv-x="1510" 
d="M164 0v1434h508c509.333 0 764 -233 764 -699c0 -223.333 -69.5 -401.666 -208.5 -534.999s-324.167 -200 -555.5 -200h-508zM487 1171v-909h160c140 0 249.833 42 329.5 126s119.5 198.333 119.5 343c0 136.667 -39.5 244.167 -118.5 322.5s-189.833 117.5 -332.5 117.5
h-158z" />
    <glyph glyph-name="E" unicode="E" horiz-adv-x="1090" 
d="M1024 0h-860v1434h827v-263h-504v-319h469v-262h-469v-328h537v-262z" />
    <glyph glyph-name="F" unicode="F" horiz-adv-x="1065" 
d="M993 1171h-506v-352h465v-262h-465v-557h-323v1434h829v-263z" />
    <glyph glyph-name="G" unicode="G" horiz-adv-x="1456" 
d="M1341 96c-140 -80.667 -313.999 -121 -521.999 -121c-230.667 0 -412.5 63.833 -545.5 191.5s-199.5 303.5 -199.5 527.5c0 225.333 72.667 409 218 551s338.666 213 579.999 213c152 0 286 -21 402 -63v-303c-110.667 64 -246 96 -406 96
c-134 0 -243.167 -43.5 -327.5 -130.5s-126.5 -203.167 -126.5 -348.5c0 -147.333 37.833 -261.333 113.5 -342s177.834 -121 306.501 -121c77.333 0 138.666 11 183.999 33v280h-287v258h610v-721z" />
    <glyph glyph-name="H" unicode="H" horiz-adv-x="1569" 
d="M1405 0h-324v584h-594v-584h-323v1434h323v-572h594v572h324v-1434z" />
    <glyph glyph-name="I" unicode="I" horiz-adv-x="649" 
d="M607 1434v-250h-120v-934h120v-250h-563v250h120v934h-120v250h563z" />
    <glyph glyph-name="J" unicode="J" horiz-adv-x="912" 
d="M762 569c0 -192 -44.5 -339 -133.5 -441s-217.833 -153 -386.5 -153c-75.333 0 -145 13 -209 39v303c55.333 -42 117.333 -63 186 -63c147.333 0 221 109.333 221 328v852h322v-865z" />
    <glyph glyph-name="K" unicode="K" horiz-adv-x="1329" 
d="M1356 0l-408 -0.000976562l-418 623c-8 12 -20.667 38.333 -38 79h-5v-702h-323v1434h323v-678h5c8 18.667 21.333 45.334 40 80.001l396 598h385l-500 -684z" />
    <glyph glyph-name="L" unicode="L" horiz-adv-x="1047" 
d="M1018 0h-854v1434h323v-1172h531v-262z" />
    <glyph glyph-name="M" unicode="M" horiz-adv-x="1960" 
d="M1798 0h-319v858c0 92.667 4 195 12 307h-8c-16.667 -88 -31.667 -151.333 -45 -190l-336 -975h-264l-342 965c-9.33301 26 -24.333 92.667 -45 200h-9c8.66699 -141.333 13 -265.333 13 -372v-793h-291v1434h473l293 -850c23.333 -68 40.333 -136.333 51 -205h6
c18 79.333 37 148.333 57 207l293 848h461v-1434z" />
    <glyph glyph-name="N" unicode="N" horiz-adv-x="1618" 
d="M1454 0l-326 -0.000976562l-591 901c-34.667 52.667 -58.667 92.334 -72 119.001h-4c5.33301 -50.667 8 -128 8 -232v-788h-305v1434h348l569 -873c26 -39.333 50 -78.333 72 -117h4c-5.33301 33.333 -8 99 -8 197v793h305v-1434z" />
    <glyph glyph-name="O" unicode="O" horiz-adv-x="1553" 
d="M770 -25c-205.333 0 -372.667 66.832 -502 200.499s-194 307.834 -194 522.501c0 226.667 65.667 410 197 550s305.333 210 522 210c204.667 0 370.167 -67 496.5 -201s189.5 -310.667 189.5 -530c0 -225.333 -65.5 -407 -196.5 -545s-301.833 -207 -512.5 -207z
M783.999 1180c-113.333 0 -203.332 -42.501 -269.999 -127.501s-100 -197.5 -100 -337.5c0 -142 33.333 -254.333 100 -337s154 -124 262 -124c111.333 0 199.666 40.167 264.999 120.5s98 191.833 98 334.5c0 148.667 -31.667 264.334 -95 347.001s-150 124 -260 124z" />
    <glyph glyph-name="P" unicode="P" horiz-adv-x="1258" 
d="M487 494v-494h-323v1434h506c361.333 0 542 -152.333 542 -457c0 -144 -51.833 -260.5 -155.5 -349.5s-242.167 -133.5 -415.5 -133.5h-154zM487 1186v-447h127c172 0 258 75.333 258 226c0 147.333 -86 221 -258 221h-127z" />
    <glyph glyph-name="Q" unicode="Q" horiz-adv-x="1553" 
d="M784 1180c-112.667 0 -202.668 -42.668 -270.001 -128.001c-66.667 -84.667 -100 -197 -100 -337c0 -141.333 33 -253.666 99 -336.999c66.667 -82.667 154.334 -124 263.001 -124c112 0 200.333 40 265 120c65.333 81.333 98 193 98 335
c0 147.333 -31.333 262.333 -94 345c-62.667 84 -149.667 126 -261 126zM1040 26.999c34.667 -37.333 67.667 -68.001 99 -92.001s62.833 -43 94.5 -57s64.167 -23.667 97.5 -29s69.666 -8 108.999 -8c10.667 0 22.334 0.5 35.001 1.5s25.5 2.66699 38.5 5s25.5 5 37.5 8
s23 6.5 33 10.5v-272c-21.333 -6 -50.833 -12 -88.5 -18s-83.5 -9 -137.5 -9c-65.333 0 -125.5 10.667 -180.5 32s-107.667 50.5 -158 87.5s-99.333 80.5 -147 130.5l-148.5 161c-98 2.66699 -187 23 -267 61s-148.333 89.167 -205 153.5s-100.5 139.833 -131.5 226.5
s-46.5 179.667 -46.5 279c0 227.333 65.333 410.666 196 549.999c131.333 140 306.333 210 525 210c203.333 0 368 -67.333 494 -202c126.667 -133.333 190 -309.666 190 -528.999c0 -171.333 -38.667 -318.666 -116 -441.999c-77.333 -122 -185 -208 -323 -258z" />
    <glyph glyph-name="R" unicode="R" horiz-adv-x="1337" 
d="M1367 0h-370.999l-223 369c-16.667 28 -32.667 53 -48 75s-30.833 40.833 -46.5 56.5s-32 27.667 -49 36s-35.5 12.5 -55.5 12.5h-87v-549h-323v1434h512c348 0 522 -130 522 -390c0 -50 -7.66699 -96.167 -23 -138.5s-37 -80.5 -65 -114.5s-61.833 -63.333 -101.5 -88
s-83.834 -44 -132.501 -58v-4c21.333 -6.66699 42 -17.5 62 -32.5s39.333 -32.5 58 -52.5s36.5 -41.5 53.5 -64.5s32.5 -45.5 46.5 -67.5zM487.001 1192v-399h140c69.333 0 125 20 167 60c42.667 40.667 64 91 64 151c0 125.333 -75 188 -225 188h-146z" />
    <glyph glyph-name="S" unicode="S" horiz-adv-x="1148" 
d="M98 55v319.998c58 -48.667 121 -85.167 189 -109.5s136.667 -36.5 206 -36.5c40.667 0 76.167 3.66699 106.5 11s55.666 17.5 75.999 30.5s35.5 28.333 45.5 46s15 36.834 15 57.501c0 28 -8 53 -24 75s-37.833 42.333 -65.5 61s-60.5 36.667 -98.5 54s-79 35 -123 53
c-112 46.667 -195.5 103.667 -250.5 171s-82.5 148.666 -82.5 243.999c0 74.667 15 138.834 45 192.501s70.833 97.834 122.5 132.501s111.5 60.167 179.5 76.5s140 24.5 216 24.5c74.667 0 140.834 -4.5 198.501 -13.5s110.834 -22.833 159.501 -41.5v-299
c-24 16.667 -50.167 31.334 -78.5 44.001s-57.5 23.167 -87.5 31.5s-59.833 14.5 -89.5 18.5s-57.834 6 -84.501 6c-36.667 0 -70 -3.5 -100 -10.5s-55.333 -16.833 -76 -29.5s-36.667 -27.834 -48 -45.501s-17 -37.5 -17 -59.5c0 -24 6.33301 -45.5 19 -64.5
s30.667 -37 54 -54s51.666 -33.667 84.999 -50s71 -33.166 113 -50.499c57.333 -24 108.833 -49.5 154.5 -76.5s84.834 -57.5 117.501 -91.5s57.667 -72.833 75 -116.5s26 -94.5 26 -152.5c0 -80 -15.167 -147.167 -45.5 -201.5s-71.5 -98.333 -123.5 -132
s-112.5 -57.834 -181.5 -72.501s-141.833 -22 -218.5 -22c-78.667 0 -153.5 6.66699 -224.5 20s-132.5 33.333 -184.5 60z" />
    <glyph glyph-name="T" unicode="T" horiz-adv-x="1200" 
d="M1171 1171h-409v-1171h-324v1171h-407v263h1140v-263z" />
    <glyph glyph-name="U" unicode="U" horiz-adv-x="1481" 
d="M1333 621c0 -430.667 -200.667 -646 -602 -646c-389.333 0 -584 210.333 -584 631v828h324v-832c0 -232 90.667 -348 272 -348c178 0 267 112 267 336v844h323v-813z" />
    <glyph glyph-name="V" unicode="V" horiz-adv-x="1366" 
d="M1358 1434l-494 -1434h-366l-488 1434h348l299 -998c16 -54 25.667 -101.667 29 -143h6c4.66699 44.667 15 93.667 31 147l297 994h338z" />
    <glyph glyph-name="W" unicode="W" horiz-adv-x="2058" 
d="M2040 1434l-379.001 -1434h-358l-238 920c-12.667 48 -20.334 101.667 -23.001 161h-4c-6 -65.333 -14.667 -119 -26 -161l-244 -920h-373l-377 1434h353l202 -955c8.66699 -40.667 15 -95.334 19 -164.001h6c2.66699 51.333 12.334 107.333 29.001 168l260 951h346
l235 -963c8.66699 -35.333 16.334 -86.666 23.001 -153.999h4c2.66699 52.667 9.66699 106 21 160l198 957h326z" />
    <glyph glyph-name="X" unicode="X" horiz-adv-x="1342" 
d="M1335 0h-383l-247 467c-9.33301 17.333 -19 49.333 -29 96h-4c-4.66699 -22 -15.667 -55.333 -33 -100l-248 -463h-385l457 717l-418 717h393l205 -430c16 -34 30.333 -74.333 43 -121h4c8 28 23 69.667 45 125l228 426h360l-430 -711z" />
    <glyph glyph-name="Y" unicode="Y" horiz-adv-x="1243" 
d="M1245 1434l-467 -924v-510h-323v504l-455 930h369l231 -535c4 -10 15 -49 33 -117h4c8.66699 48 19 85.667 31 113l235 539h342z" />
    <glyph glyph-name="Z" unicode="Z" horiz-adv-x="1243" 
d="M1196 0h-1155v186l735 985h-682v263h1100v-181l-719 -991h721v-262z" />
    <glyph glyph-name="bracketleft" unicode="[" horiz-adv-x="756" 
d="M686 -326h-469v1760h469v-201h-209v-1358h209v-201z" />
    <glyph glyph-name="backslash" unicode="\" horiz-adv-x="893" 
d="M961 -238h-279l-682 1672h281z" />
    <glyph glyph-name="bracketright" unicode="]" horiz-adv-x="756" 
d="M541 -326h-471v201h211v1358h-211v201h471v-1760z" />
    <glyph glyph-name="asciicircum" unicode="^" horiz-adv-x="1448" 
d="M1249 610h-243l-287 586h-4l-271 -586h-241l430 848h162z" />
    <glyph glyph-name="underscore" unicode="_" horiz-adv-x="850" 
d="M850 -297h-850v119h850v-119z" />
    <glyph glyph-name="grave" unicode="`" horiz-adv-x="643" 
d="M596 1186h-227l-314 323h281z" />
    <glyph glyph-name="a" unicode="a" horiz-adv-x="1102" 
d="M985 0l-298.999 -0.000976562v147h-4c-68.667 -114.667 -170.334 -172 -305.001 -172c-99.333 0 -177.5 28.167 -234.5 84.5s-85.5 131.5 -85.5 225.5c0 198.667 117.667 313.334 353 344.001l278 37c0 112 -60.667 168 -182 168c-122 0 -238 -36.333 -348 -109v238
c44 22.667 104.167 42.667 180.5 60s145.833 26 208.5 26c292 0 438 -145.667 438 -437v-612zM688.001 415.999l0.000976562 68.999l-186 -24c-102.667 -13.333 -154 -59.666 -154 -138.999c0 -36 12.5 -65.5 37.5 -88.5s58.833 -34.5 101.5 -34.5
c59.333 0 107.666 20.5 144.999 61.5s56 92.833 56 155.5z" />
    <glyph glyph-name="b" unicode="b" horiz-adv-x="1270" 
d="M453 119h-4.00098v-119h-316v1516h316v-646h4c78 119.333 189 179 333 179c132 0 233.667 -45.333 305 -136s107 -214.667 107 -372c0 -170.667 -41.667 -307.667 -125 -411s-194.666 -155 -333.999 -155c-126 0 -221.333 48 -286 144zM443.999 551
l-0.000976562 -105.001c0 -66 19 -120.667 57 -164s86.667 -65 146 -65c72 0 127.833 27.833 167.5 83.5s59.5 134.5 59.5 236.5c0 84.667 -18.167 150.834 -54.5 198.501s-88.166 71.5 -155.499 71.5c-63.333 0 -115.833 -23.667 -157.5 -71s-62.5 -109 -62.5 -185z" />
    <glyph glyph-name="c" unicode="c" horiz-adv-x="983" 
d="M909 37c-71.333 -41.333 -174.335 -61.999 -309.002 -61.999c-157.333 0 -284.666 47.667 -381.999 143s-146 218.333 -146 369c0 174 52.167 311.167 156.5 411.5s243.833 150.5 418.5 150.5c120.667 0 208 -16 262 -48v-268c-66 49.333 -139.667 74 -221 74
c-90.667 0 -162.5 -26.5 -215.5 -79.5s-79.5 -126.167 -79.5 -219.5c0 -90.667 25.333 -161.834 76 -213.501s120.334 -77.5 209.001 -77.5c78.667 0 155.667 24.667 231 74v-254z" />
    <glyph glyph-name="d" unicode="d" horiz-adv-x="1268" 
d="M1135 0h-316v141h-4c-72 -110.667 -177.667 -166 -317 -166c-128 0 -231 45.167 -309 135.5s-117 216.5 -117 378.5c0 169.333 43 305 129 407s198.667 153 338 153c132 0 224 -47.333 276 -142h4v609h316v-1516zM825 498v77c0 66.667 -19.333 122 -58 166
s-89 66 -151 66c-70 0 -124.667 -27.5 -164 -82.5s-59 -130.5 -59 -226.5c0 -90 19 -159.333 57 -208s90.667 -73 158 -73c64 0 116.167 25.667 156.5 77s60.5 119.333 60.5 204z" />
    <glyph glyph-name="e" unicode="e" horiz-adv-x="1108" 
d="M1053 422h-668.002c10.667 -148.667 104.334 -223 281.001 -223c112.667 0 211.667 26.667 297 80v-228c-94.667 -50.667 -217.667 -76 -369 -76c-165.333 0 -293.666 45.833 -384.999 137.5s-137 219.5 -137 383.5c0 170 49.333 304.667 148 404s220 149 364 149
c149.333 0 264.833 -44.333 346.5 -133s122.5 -209 122.5 -361v-133zM759.998 616c0 146.667 -59.333 220 -178 220c-50.667 0 -94.5 -21 -131.5 -63s-59.5 -94.333 -67.5 -157h377z" />
    <glyph glyph-name="f" unicode="f" horiz-adv-x="785" 
d="M801 1274c-40.667 16 -79.667 24 -117 24c-101.333 0 -152 -55 -152 -165v-109h234v-233h-234v-791h-315v791h-172v233h172v127c0 116.667 38 210.667 114 282s179.333 107 310 107c64 0 117.333 -6.66699 160 -20v-246z" />
    <glyph glyph-name="g" unicode="g" horiz-adv-x="1268" 
d="M1137 117c0 -190 -54.998 -337.167 -164.998 -441.5s-269.333 -156.5 -478 -156.5c-138 0 -247.333 19.667 -328 59v266c105.333 -61.333 211.666 -92 318.999 -92c106.667 0 189.334 28.167 248.001 84.5s88 132.833 88 229.5v81h-4
c-72 -114.667 -178.333 -172 -319 -172c-130.667 0 -234.334 46 -311.001 138s-115 215.333 -115 370c0 173.333 42.667 311 128 413s197.666 153 336.999 153c124.667 0 218 -48 280 -144h4v119h316v-907zM825.002 492v80.999c0 64.667 -19.167 119.834 -57.5 165.501
s-88.166 68.5 -149.499 68.5c-70 0 -125 -27.333 -165 -82s-60 -131.667 -60 -231c0 -85.333 19 -152.833 57 -202.5s90 -74.5 156 -74.5c65.333 0 118.166 25.167 158.499 75.5s60.5 116.833 60.5 199.5z" />
    <glyph glyph-name="h" unicode="h" horiz-adv-x="1233" 
d="M1116 0h-315v582c0 150 -54.667 225 -164 225c-56 0 -101.333 -21 -136 -63s-52 -95.333 -52 -160v-584h-316v1516h316v-644h4c77.333 118 182.333 177 315 177c232 0 348 -140 348 -420v-629z" />
    <glyph glyph-name="i" unicode="i" horiz-adv-x="582" 
d="M293 1186c-53.333 0 -97 15.833 -131 47.5s-51 70.5 -51 116.5c0 47.333 17 86 51 116s77.667 45 131 45c54 0 97.833 -15 131.5 -45s50.5 -68.667 50.5 -116c0 -48 -16.833 -87.333 -50.5 -118s-77.5 -46 -131.5 -46zM449 0h-316v1024h316v-1024z" />
    <glyph glyph-name="j" unicode="j" horiz-adv-x="582" 
d="M293 1186c-53.333 0 -97 15.833 -131 47.5s-51 70.5 -51 116.5c0 47.333 17 86 51 116s77.667 45 131 45c54 0 97.833 -15 131.5 -45s50.5 -68.667 50.5 -116c0 -48 -16.833 -87.333 -50.5 -118s-77.5 -46 -131.5 -46zM449 18c0 -151.333 -37 -272.333 -111 -363
s-180.667 -136 -320 -136c-46 0 -96.333 10 -151 30v248c44 -24.667 83 -37 117 -37c99.333 0 149 78 149 234v1030h316v-1006z" />
    <glyph glyph-name="k" unicode="k" horiz-adv-x="1145" 
d="M1159 0h-379l-327 508h-4v-508h-316v1516h316v-965h4l305 473h375l-367 -481z" />
    <glyph glyph-name="l" unicode="l" horiz-adv-x="582" 
d="M449 0h-316v1516h316v-1516z" />
    <glyph glyph-name="m" unicode="m" horiz-adv-x="1876" 
d="M1759 0l-315 0.000976562v584c0 148.667 -54.667 223 -164 223c-52 0 -94.333 -22.333 -127 -67s-49 -100.334 -49 -167.001v-573h-316v590c0 144.667 -53.667 217 -161 217c-54 0 -97.167 -21.333 -129.5 -64s-48.5 -100.667 -48.5 -174v-569h-316v1024h316v-160h4
c32.667 54.667 78.5 99.167 137.5 133.5s123.5 51.5 193.5 51.5c144.667 0 243.667 -63.667 297 -191c78 127.333 192.667 191 344 191c222.667 0 334 -137.333 334 -412v-637z" />
    <glyph glyph-name="n" unicode="n" horiz-adv-x="1239" 
d="M1122 0h-315v569c0 158.667 -56.667 238 -170 238c-54.667 0 -99.667 -21 -135 -63s-53 -95.333 -53 -160v-584h-316v1024h316v-162h4c75.333 124.667 185 187 329 187c226.667 0 340 -140.667 340 -422v-627z" />
    <glyph glyph-name="o" unicode="o" horiz-adv-x="1252" 
d="M621 -25c-170.667 0 -304.833 47.833 -402.5 143.5s-146.5 225.5 -146.5 389.5c0 169.333 50.667 301.833 152 397.5s238.333 143.5 411 143.5c170 0 303.333 -47.833 400 -143.5s145 -222.167 145 -379.5c0 -170 -49.833 -304.333 -149.5 -403
s-236.167 -148 -409.5 -148zM629.001 807c-74.667 0 -132.667 -25.667 -174 -77s-62 -124 -62 -218c0 -196.667 79.333 -295 238 -295c151.333 0 227 101 227 303c0 191.333 -76.333 287 -229 287z" />
    <glyph glyph-name="p" unicode="p" horiz-adv-x="1270" 
d="M453 119h-4v-590h-316v1495h316v-154h4c78 119.333 187.667 179 329 179c132.667 0 235.167 -45.5 307.5 -136.5s108.5 -214.833 108.5 -371.5c0 -170.667 -42.167 -307.667 -126.5 -411s-196.5 -155 -336.5 -155c-123.333 0 -217.333 48 -282 144zM444 539v-81.999
c0 -70.667 18.667 -128.334 56 -173.001s86.333 -67 147 -67c72 0 127.833 27.833 167.5 83.5s59.5 134.5 59.5 236.5c0 180 -70 270 -210 270c-64.667 0 -117.5 -24.5 -158.5 -73.5s-61.5 -113.833 -61.5 -194.5z" />
    <glyph glyph-name="q" unicode="q" horiz-adv-x="1268" 
d="M1135 -471h-316v612h-4c-71.333 -110.667 -176.333 -166 -315 -166c-128.667 0 -232.167 44.833 -310.5 134.5s-117.5 215.5 -117.5 377.5c0 170.667 43 307 129 409s198 153 336 153c125.333 0 218 -48 278 -144h4v119h316v-1495zM825 489l0.000976562 81.999
c0 66.667 -19.333 122.667 -58 168s-88.334 68 -149.001 68c-70 0 -125 -27.5 -165 -82.5s-60 -131.167 -60 -228.5c0 -87.333 19.5 -155.666 58.5 -204.999s89.833 -74 152.5 -74c66.667 0 120.167 25 160.5 75s60.5 115.667 60.5 197z" />
    <glyph glyph-name="r" unicode="r" horiz-adv-x="815" 
d="M801 739c-38 20.667 -82.332 31 -132.999 31c-68.667 0 -122.334 -25.167 -161.001 -75.5s-58 -118.833 -58 -205.5v-489h-316v1024h316v-190h4c50 138.667 140 208 270 208c33.333 0 59.333 -4 78 -12v-291z" />
    <glyph glyph-name="s" unicode="s" horiz-adv-x="901" 
d="M66 27l-0.00195312 256.001c52 -31.333 103.833 -54.666 155.5 -69.999s100.5 -23 146.5 -23c56 0 100.167 7.66699 132.5 23s48.5 38.666 48.5 69.999c0 20 -7.33301 36.667 -22 50s-33.5 25 -56.5 35s-48.167 19 -75.5 27s-53.666 17 -78.999 27
c-40.667 15.333 -76.5 31.833 -107.5 49.5s-57 38.167 -78 61.5s-37 50.333 -48 81s-16.5 67 -16.5 109c0 57.333 12.5 106.666 37.5 147.999s58.333 75.166 100 101.499s89.334 45.666 143.001 57.999s109.5 18.5 167.5 18.5c45.333 0 91.333 -3.5 138 -10.5
s92.667 -17.167 138 -30.5v-244c-40 23.333 -82.833 40.833 -128.5 52.5s-90.5 17.5 -134.5 17.5c-20.667 0 -40.167 -1.83301 -58.5 -5.5s-34.5 -9 -48.5 -16s-25 -16 -33 -27s-12 -23.5 -12 -37.5c0 -18.667 6 -34.667 18 -48s27.667 -24.833 47 -34.5
s40.833 -18.334 64.5 -26.001l70.5 -23.5c42 -14.667 80 -30.667 114 -48s63.167 -37.666 87.5 -60.999s43 -50.666 56 -81.999s19.5 -68.666 19.5 -111.999c0 -60.667 -13.167 -112.5 -39.5 -155.5s-61.333 -78 -105 -105s-94 -46.667 -151 -59
s-116.167 -18.5 -177.5 -18.5c-112.667 0 -217 17.333 -313 52z" />
    <glyph glyph-name="t" unicode="t" horiz-adv-x="797" 
d="M752 12c-46.667 -24.667 -116.999 -37 -210.999 -37c-222.667 0 -334 115.667 -334 347v469h-166v233h166v221l315 90v-311h230v-233h-230v-414c0 -106.667 42.333 -160 127 -160c33.333 0 67.666 9.66699 102.999 29v-234z" />
    <glyph glyph-name="u" unicode="u" horiz-adv-x="1239" 
d="M1106 0h-315v156h-5c-78 -120.667 -182.333 -181 -313 -181c-237.333 0 -356 143.667 -356 431v618h315v-590c0 -144.667 57.333 -217 172 -217c56.667 0 102 19.833 136 59.5s51 93.5 51 161.5v586h315v-1024z" />
    <glyph glyph-name="v" unicode="v" horiz-adv-x="1110" 
d="M1108 1024l-381 -1024h-360l-363 1024h338l178 -631c20 -71.333 31.667 -132 35 -182h4c4.66699 47.333 17 106 37 176l182 637h330z" />
    <glyph glyph-name="w" unicode="w" horiz-adv-x="1633" 
d="M1616 1024l-294.998 -1024h-332l-151 600c-10 40 -15.667 83.667 -17 131h-6c-4.66699 -52 -11.334 -94.333 -20.001 -127l-162 -604h-328l-289 1024h322l141 -668c6.66699 -31.333 11.667 -69.333 15 -114h6c3.33301 46.667 9.33301 86 18 118l176 664h301l158 -668
c4 -16.667 8.66699 -55.334 14 -116.001h7c3.33301 38.667 8.66602 77.334 15.999 116.001l133 668h293z" />
    <glyph glyph-name="x" unicode="x" horiz-adv-x="1131" 
d="M1122 1024l-338 -496l336 -528h-364l-148 276c-12 22 -26.333 53 -43 93h-4c-10 -28 -23.667 -58 -41 -90l-149 -279h-363l346 510l-325 514h366l146 -287c19.333 -38 33 -70 41 -96h4c10.667 31.333 25 64 43 98l149 285h344z" />
    <glyph glyph-name="y" unicode="y" horiz-adv-x="1102" 
d="M1108 1024l-416 -1106c-100 -266 -250.667 -399 -452 -399c-76.667 0 -139.667 8.66699 -189 26v252c42 -24.667 87.667 -37 137 -37c81.333 0 138 38.333 170 115l54 127l-416 1022h350l191 -623c12 -38.667 21.333 -84.334 28 -137.001h4c6 38.667 17 83.667 33 135
l193 625h313z" />
    <glyph glyph-name="z" unicode="z" horiz-adv-x="981" 
d="M944 0h-919v131l514 660h-463v233h864v-156l-487 -635h491v-233z" />
    <glyph glyph-name="braceleft" unicode="{" horiz-adv-x="756" 
d="M674 -326c-145.333 0 -251 26.665 -317 79.998s-99 148.333 -99 285v240c0 122.667 -50.667 184 -152 184v184c101.333 0 152 63.667 152 191v223c0 137.333 32.667 233.833 98 289.5s171.333 83.5 318 83.5v-187c-106.667 0 -160 -58 -160 -174v-213
c0 -160 -51.333 -261 -154 -303v-4c102.667 -41.333 154 -143.666 154 -306.999v-205c0 -65.333 12.5 -111.666 37.5 -138.999s65.833 -41 122.5 -41v-187z" />
    <glyph glyph-name="bar" unicode="|" horiz-adv-x="668" 
d="M461 -481h-252v2048h252v-2048z" />
    <glyph glyph-name="braceright" unicode="}" horiz-adv-x="756" 
d="M651 463c-102 0 -152.999 -62.332 -152.999 -186.999v-231c0 -140.667 -32.5 -237.667 -97.5 -291s-170.5 -80 -316.5 -80v187c56 0 96.667 13.5 122 40.5s38 72.833 38 137.5v213c0 159.333 51 259 153 299v4c-102 42 -153 146.333 -153 313v205
c0 116 -53.333 174 -160 174v187c145.333 0 250.666 -27.833 315.999 -83.5s98 -150.834 98 -285.501v-229c0 -126 51 -189 153 -189v-184z" />
    <glyph glyph-name="asciitilde" unicode="~" horiz-adv-x="1448" 
d="M1255 772c-4 -112 -33.832 -200.668 -89.499 -266.001s-130.167 -98 -223.5 -98c-70.667 0 -156.667 29.333 -258 88c-72.667 42 -124.667 63 -156 63c-82 0 -125 -53.333 -129 -160h-204c4 112.667 33.833 201.667 89.5 267s131.5 98 227.5 98
c74.667 0 154 -25.333 238 -76c86.667 -52 146.667 -78 180 -78c34.667 0 63.167 14.833 85.5 44.5s34.166 68.834 35.499 117.501h204z" />
    <glyph glyph-name="nonbreakingspace" unicode="&#xa0;" horiz-adv-x="565" 
 />
    <glyph glyph-name="exclamdown" unicode="&#xa1;" horiz-adv-x="670" 
d="M336 721c-54 0 -98.167 15.332 -132.5 45.999s-51.5 69.334 -51.5 116.001c0 48 17.167 87.667 51.5 119s78.5 47 132.5 47c52.667 0 96.167 -16 130.5 -48s51.5 -71.333 51.5 -118c0 -48 -17.167 -87 -51.5 -117s-77.833 -45 -130.5 -45zM504 -408.001h-332l37 990h256z
" />
    <glyph glyph-name="cent" unicode="&#xa2;" horiz-adv-x="1178" 
d="M1004 207c-48.667 -28 -108.998 -46.333 -180.998 -55v-189h-161v184c-144 8 -262 58.5 -354 151.5s-138 212.5 -138 358.5c0 156 44.667 283.167 134 381.5s208.666 155.5 357.999 171.5v211h161v-207c73.333 -4 133.666 -19 180.999 -45v-272
c-50.667 38.667 -111 62 -181 70v-574c72 11.333 132.333 34 181 68v-254zM662.002 399v558.999c-130 -39.333 -195 -132.666 -195 -279.999c0 -148 65 -241 195 -279z" />
    <glyph glyph-name="sterling" unicode="&#xa3;" horiz-adv-x="1178" 
d="M1114 0h-971v227c128.667 34.667 193 124.334 193 269.001v116h-172v217h172v187c0 132 40.667 238.667 122 320s191.333 122 330 122c84.667 0 162.667 -16.333 234 -49v-258c-65.333 44 -135 66 -209 66c-122.667 0 -184 -76.667 -184 -230v-158h268v-217h-268v-86
c0 -122.667 -50.667 -217.334 -152 -284.001h637v-242z" />
    <glyph glyph-name="currency" unicode="&#xa4;" horiz-adv-x="1139" 
d="M1087 358l-141 -144.999l-143 141c-70 -43.333 -148 -65 -234 -65c-84.667 0 -162.334 21.667 -233.001 65l-143 -141l-142 145l142 138c-44 73.333 -66 149.666 -66 228.999c0 80.667 22 157 66 229l-142 140l142 145l143 -141c70.667 43.333 148.334 65 233.001 65
c86 0 164 -21.667 234 -65l143 141l141 -145l-141 -140c45.333 -74 68 -150.333 68 -229c0 -76.667 -22.667 -153 -68 -229zM569 965.001c-66.667 0 -123.167 -23.167 -169.5 -69.5s-69.5 -102.5 -69.5 -168.5s23.167 -122.167 69.5 -168.5s102.833 -69.5 169.5 -69.5
s123.667 23.167 171 69.5s71 102.5 71 168.5c0 65.333 -24.333 121.333 -73 168s-105 70 -169 70z" />
    <glyph glyph-name="yen" unicode="&#xa5;" horiz-adv-x="1178" 
d="M1157 1434l-354 -641h252v-189h-305v-153h305v-189h-305v-262h-308v262h-315v189h315v153h-315v189h256l-342 641h321l246 -570h4c2.66699 7.33301 15 37.333 37 90l203 480h305z" />
    <glyph glyph-name="brokenbar" unicode="&#xa6;" horiz-adv-x="668" 
d="M461 684h-252v883h252v-883zM461 -481h-252v895h252v-895z" />
    <glyph glyph-name="section" unicode="&#xa7;" horiz-adv-x="994" 
d="M752 434c54.667 -50 82.001 -108.001 82.001 -174.001c0 -99.333 -36.167 -178.5 -108.5 -237.5s-167.5 -88.5 -285.5 -88.5c-108.667 0 -205.334 22.667 -290.001 68v248c120 -70 223.667 -105 311 -105c84.667 0 127 33 127 99c0 40.667 -32 76.667 -96 108
c-94 43.333 -164 80.833 -210 112.5s-82.667 70.5 -110 116.5s-41 96 -41 150c0 95.333 41.667 173.333 125 234c-58.667 58.667 -88 130.334 -88 215.001c0 93.333 34.167 168.5 102.5 225.5s159.833 85.5 274.5 85.5c92.667 0 179.334 -18.333 260.001 -55v-250
c-92.667 64 -179.334 96 -260.001 96c-82 0 -123 -31.333 -123 -94c0 -30 13.5 -55.833 40.5 -77.5s88.5 -53.834 184.5 -96.501c169.333 -74.667 254 -177.667 254 -309c0 -111.333 -49.667 -201.666 -149 -270.999zM432.001 863.999
c-43.333 -25.333 -65 -62.001 -65 -110.001c0 -38 17 -72 51 -102s93.333 -63 178 -99c44 29.333 66 70.333 66 123c0 41.333 -17.833 74.833 -53.5 100.5s-94.5 54.834 -176.5 87.501z" />
    <glyph glyph-name="dieresis" unicode="&#xa8;" horiz-adv-x="946" 
d="M698 1186c-44.667 0 -81.334 13 -110.001 39s-43 58.667 -43 98c0 40.667 14.333 73.667 43 99s65.334 38 110.001 38s81.5 -12.833 110.5 -38.5s43.5 -58.5 43.5 -98.5s-14.333 -72.833 -43 -98.5s-65.667 -38.5 -111 -38.5zM240 1186
c-45.333 0 -82.333 13.167 -111 39.5s-43 58.833 -43 97.5c0 40 14.667 72.833 44 98.5s66 38.5 110 38.5c45.333 0 82.166 -12.833 110.499 -38.5s42.5 -58.5 42.5 -98.5c0 -40.667 -14.167 -73.667 -42.5 -99s-65.166 -38 -110.499 -38z" />
    <glyph glyph-name="copyright" unicode="&#xa9;" horiz-adv-x="1790" 
d="M893 -25c-222 0 -404.499 69 -547.499 207s-214.5 315 -214.5 531c0 211.333 73.5 388.333 220.5 531s330.167 214 549.5 214c218.667 0 400 -69.5 544 -208.5s216 -316.5 216 -532.5c0 -211.333 -73.833 -387.833 -221.5 -529.5s-329.834 -212.5 -546.501 -212.5z
M897.001 1346c-183.333 0 -334.667 -60.001 -454 -180.001s-179 -269.667 -179 -449c0 -181.333 60.5 -331.5 181.5 -450.5s271.5 -178.5 451.5 -178.5c176.667 0 326 59.833 448 179.5s183 268.834 183 447.501c0 181.333 -60 331.833 -180 451.5
s-270.333 179.5 -451 179.5zM1204 294.999c-83.333 -45.333 -174.667 -68.001 -274 -68.001c-139.333 0 -254.833 44.667 -346.5 134s-137.5 201 -137.5 335c0 154 47.833 277.5 143.5 370.5s220.167 139.5 373.5 139.5c83.333 0 163 -18.333 239 -55v-236
c-65.333 50.667 -146.666 76 -243.999 76c-76.667 0 -140.834 -25.5 -192.501 -76.5s-77.5 -119.5 -77.5 -205.5c0 -81.333 26.167 -147.166 78.5 -197.499s118.5 -75.5 198.5 -75.5c94 0 173.667 25.333 239 76v-217z" />
    <glyph glyph-name="ordfeminine" unicode="&#xaa;" horiz-adv-x="840" 
d="M739 717l-213.002 -0.000976562v86h-4c-58 -71.333 -131 -107 -219 -107c-67.333 0 -122.666 20.333 -165.999 61s-65 93.334 -65 158.001c0 140.667 87.333 222 262 244l192 25c0 76 -46.333 114 -139 114c-78.667 0 -160.667 -25.667 -246 -77v176
c82.667 38 178.334 57 287.001 57c207.333 0 311 -99.667 311 -299v-438zM525.998 984.999v70l-123 -17c-77.333 -10.667 -116 -42.667 -116 -96c0 -58.667 34.667 -88 104 -88c36 0 67.5 12.833 94.5 38.5s40.5 56.5 40.5 92.5z" />
    <glyph glyph-name="guillemotleft" unicode="&#xab;" horiz-adv-x="1190" 
d="M1137 201h-269l-327 336l327 344h269l-334 -344zM651 201h-268l-330 336l330 344h266l-334 -344z" />
    <glyph glyph-name="logicalnot" unicode="&#xac;" horiz-adv-x="1448" 
d="M1212 266h-202v389h-772v203h974v-592z" />
    <glyph glyph-name="sfthyphen" unicode="&#xad;" horiz-adv-x="828" 
d="M690 436h-547v221h547v-221z" />
    <glyph glyph-name="registered" unicode="&#xae;" horiz-adv-x="1790" 
d="M893 -25c-222 0 -404.499 69 -547.499 207s-214.5 315 -214.5 531c0 211.333 73.5 388.333 220.5 531s330.167 214 549.5 214c218.667 0 400 -69.5 544 -208.5s216 -316.5 216 -532.5c0 -211.333 -73.833 -387.833 -221.5 -529.5s-329.834 -212.5 -546.501 -212.5z
M897.001 1346c-183.333 0 -334.667 -60.001 -454 -180.001s-179 -269.667 -179 -449c0 -181.333 60.5 -331.5 181.5 -450.5s271.5 -178.5 451.5 -178.5c176.667 0 326 59.833 448 179.5s183 268.834 183 447.501c0 181.333 -60 331.833 -180 451.5
s-270.333 179.5 -451 179.5zM1288 263.999h-253.999l-76 232c-26.667 81.333 -63.334 122 -110.001 122h-74v-354h-211v922h320c246.667 0 370 -87.333 370 -262c0 -126 -72.333 -207.333 -217 -244v-4c60 -13.333 107.333 -62 142 -146zM774.001 1010v-230h111
c92.667 0 139 39.667 139 119c0 74 -53.333 111 -160 111h-90z" />
    <glyph glyph-name="uni00AF" unicode="&#xaf;" horiz-adv-x="850" 
d="M850 1396h-850v120h850v-120z" />
    <glyph glyph-name="degree" unicode="&#xb0;" horiz-adv-x="778" 
d="M399 895c-79.333 0 -146.5 27.5 -201.5 82.5s-82.5 121.833 -82.5 200.5s27.5 145 82.5 199s122.167 81 201.5 81c78.667 0 145.834 -27 201.501 -81s83.5 -120.333 83.5 -199s-27.833 -145.5 -83.5 -200.5s-122.834 -82.5 -201.501 -82.5zM399 1307
c-36 0 -66.499 -12.5 -91.499 -37.5s-37.5 -55.5 -37.5 -91.5s12.5 -66.833 37.5 -92.5s55.5 -38.5 91.5 -38.5c35.333 0 65.666 12.833 90.999 38.5s38 56.5 38 92.5s-12.5 66.5 -37.5 91.5s-55.5 37.5 -91.5 37.5z" />
    <glyph glyph-name="plusminus" unicode="&#xb1;" horiz-adv-x="1448" 
d="M1212 694h-385v-387h-202v387h-383v203h383v391h202v-391h385v-203zM1210 0h-972v203h972v-203z" />
    <glyph glyph-name="twosuperior" unicode="&#xb2;" horiz-adv-x="828" 
d="M721 884h-604v157l248 234c51.333 48.667 83.166 85.334 95.499 110.001s18.5 52 18.5 82c0 28 -9.5 51.167 -28.5 69.5s-44.167 27.5 -75.5 27.5c-65.333 0 -135.666 -34.333 -210.999 -103v215c78.667 52 162 78 250 78c90.667 0 162.5 -22.833 215.5 -68.5
s79.5 -108.834 79.5 -189.501c0 -46.667 -12.5 -93.667 -37.5 -141s-84.833 -113 -179.5 -197l-105 -92v-4h334v-178z" />
    <glyph glyph-name="threesuperior" unicode="&#xb3;" horiz-adv-x="828" 
d="M131 916v181c71.333 -45.333 145 -68 221 -68c100 0 150 34 150 102c0 68.667 -57.333 103 -172 103h-117v166h113c99.333 0 149 32 149 96c0 60 -39.667 90 -119 90c-71.333 0 -137.333 -21.667 -198 -65v176c66 38 145.667 57 239 57
c89.333 0 159.833 -20.167 211.5 -60.5s77.5 -93.833 77.5 -160.5c0 -98 -47.667 -163 -143 -195v-4c114.667 -27.333 172 -93.333 172 -198c0 -82 -32.667 -148 -98 -198s-151 -75 -257 -75c-88.667 0 -165 17.667 -229 53z" />
    <glyph glyph-name="acute" unicode="&#xb4;" horiz-adv-x="621" 
d="M596 1509l-313 -323h-228l260 323h281z" />
    <glyph glyph-name="mu1" unicode="&#xb5;" horiz-adv-x="1255" 
d="M1161 0h-323.999c-16.667 46.667 -25 98 -25 154h-4c-38 -118 -110 -177 -216 -177c-64.667 0 -111.334 21.333 -140.001 64h-3v-436h-316v1419h316v-589c0 -138 56.667 -207 170 -207c122.667 0 184 84.667 184 254v542h319v-710c0 -157.333 13 -262 39 -314z" />
    <glyph glyph-name="paragraph" unicode="&#xb6;" horiz-adv-x="1043" 
d="M946 1272l-117 -0.000976562v-1272h-174v1272h-118v-1272h-177v836c-76.667 4.66699 -140.5 35.334 -191.5 92.001s-76.5 127 -76.5 211c0 86 28.5 156.667 85.5 212s127.5 83 211.5 83h557v-162z" />
    <glyph glyph-name="periodcentered" unicode="&#xb7;" horiz-adv-x="555" 
d="M274 487c-52 0 -95.333 16 -130 48s-52 71.333 -52 118c0 48 17.833 87.333 53.5 118s80.167 46 133.5 46c54 0 98.167 -15.5 132.5 -46.5s51.5 -70.167 51.5 -117.5c0 -48.667 -17.5 -88.5 -52.5 -119.5s-80.5 -46.5 -136.5 -46.5z" />
    <glyph glyph-name="cedilla" unicode="&#xb8;" horiz-adv-x="441" 
d="M51 -451v137.999c23.333 -4 47.333 -6 72 -6c82 0 123 24.333 123 73c0 44 -37 66 -111 66c-8.66699 0 -21 -0.666992 -37 -2v182h172v-82c124.667 -5.33301 187 -60.666 187 -165.999c0 -138 -106 -207 -318 -207c-30.667 0 -60 1.33301 -88 4z" />
    <glyph glyph-name="onesuperior" unicode="&#xb9;" horiz-adv-x="807" 
d="M721 884h-563v172h176v477l-191 -41v180l406 82v-698h172v-172z" />
    <glyph glyph-name="ordmasculine" unicode="&#xba;" horiz-adv-x="934" 
d="M459 696c-123.333 0 -219.001 33.168 -287.001 99.501s-102 158.833 -102 277.5c0 119.333 36.167 212.666 108.5 279.999s169.833 101 292.5 101c120.667 0 215.334 -33.833 284.001 -101.5s103 -156.167 103 -265.5c0 -122.667 -35.5 -218.5 -106.5 -287.5
s-168.5 -103.5 -292.5 -103.5zM464.999 1280c-109.333 0 -164 -67.667 -164 -203c0 -138 54.667 -207 164 -207c106.667 0 160 69.667 160 209c0 134 -53.333 201 -160 201z" />
    <glyph glyph-name="guillemotright" unicode="&#xbb;" horiz-adv-x="1190" 
d="M1137 537l-328 -336h-268l333 336l-331 344h266zM651 537l-329 -336h-269l336 336l-334 344h267z" />
    <glyph glyph-name="onequarter" unicode="&#xbc;" horiz-adv-x="1950" 
d="M676 584h-563v172h176v477l-191 -41v180l406 82v-698h172v-172zM1505 1434l-891 -1434h-244l891 1434h244zM1845 176h-110v-176h-213v176h-395v141l350 533h258v-519h110v-155zM1526 678h-8c-9.33301 -24 -22.333 -49.333 -39 -76l-168 -271h211v263
c0 31.333 1.33301 59.333 4 84z" />
    <glyph glyph-name="onehalf" unicode="&#xbd;" horiz-adv-x="1977" 
d="M676 584h-563v172h176v477l-191 -41v180l406 82v-698h172v-172zM1506 1434l-891 -1434h-244l891 1434h244zM1843 0h-604v157l248 234c51.333 48.667 83.166 85.334 95.499 110.001s18.5 52 18.5 82c0 28 -9.5 51.167 -28.5 69.5s-44.167 27.5 -75.5 27.5
c-65.333 0 -135.666 -34.333 -210.999 -103v215c78.667 52 162 78 250 78c90.667 0 162.5 -22.833 215.5 -68.5s79.5 -108.834 79.5 -189.501c0 -46.667 -12.5 -93.667 -37.5 -141s-84.833 -113 -179.5 -197l-105 -92v-4h334v-178z" />
    <glyph glyph-name="threequarters" unicode="&#xbe;" horiz-adv-x="2005" 
d="M131 616v181c71.333 -45.333 145 -68 221 -68c100 0 150 34 150 102c0 68.667 -57.333 103 -172 103h-117v166h113c99.333 0 149 32 149 96c0 60 -39.667 90 -119 90c-71.333 0 -137.333 -21.667 -198 -65v176c66 38 145.667 57 239 57
c89.333 0 159.833 -20.167 211.5 -60.5s77.5 -93.833 77.5 -160.5c0 -98 -47.667 -163 -143 -195v-4c114.667 -27.333 172 -93.333 172 -198c0 -82 -32.667 -148 -98 -198s-151 -75 -257 -75c-88.667 0 -165 17.667 -229 53zM1565 1434l-891 -1434h-244l891 1434h244z
M1892 176h-110v-176h-213v176h-395v141l350 533h258v-519h110v-155zM1573 678h-8c-9.33301 -24 -22.333 -49.333 -39 -76l-168 -271h211v263c0 31.333 1.33301 59.333 4 84z" />
    <glyph glyph-name="questiondown" unicode="&#xbf;" horiz-adv-x="897" 
d="M647 611c6.66699 -17.333 11.8291 -36.833 15.4961 -58.5s5.5 -42.167 5.5 -61.5c0 -30.667 -3 -58.667 -9 -84s-15 -49.166 -27 -71.499s-27 -43.666 -45 -63.999s-39 -40.5 -63 -60.5c-24.667 -21.333 -46.667 -41.166 -66 -59.499s-35.666 -36.666 -48.999 -54.999
s-23.333 -37.333 -30 -57s-10 -41.5 -10 -65.5c0 -20.667 3.66699 -39.834 11 -57.501s17.833 -32.834 31.5 -45.501s30.334 -22.667 50.001 -30s41.5 -11 65.5 -11c52 0 106 10.833 162 32.5s109 54.5 159 98.5v-301c-51.333 -30.667 -107.333 -53.667 -168 -69
s-123.334 -23 -188.001 -23c-62 0 -119.667 6.83301 -173 20.5s-99.833 35.167 -139.5 64.5s-70.667 66.833 -93 112.5s-33.5 100.5 -33.5 164.5c0 40.667 4.66699 77.5 14 110.5s23 64.167 41 93.5s40.333 57.5 67 84.5s57.334 54.833 92.001 83.5
c23.333 19.333 43.833 37.333 61.5 54s32.334 33.167 44.001 49.5s20.5 33.666 26.5 51.999s9 39.166 9 62.499c0 16 -2.16699 32.333 -6.5 49s-10.166 30.667 -17.499 42h263zM500.995 1049c54 0 98.333 -16.002 133 -48.002c35.333 -33.333 53 -72.666 53 -117.999
c0 -46.667 -17.667 -85.667 -53 -117s-79.666 -47 -132.999 -47c-52.667 0 -96.334 15.667 -131.001 47c-34.667 30.667 -52 69.667 -52 117c0 48.667 17 88.334 51 119.001c34.667 31.333 78.667 47 132 47z" />
    <glyph glyph-name="Agrave" unicode="&#xc0;" horiz-adv-x="1440" 
d="M1425 0h-352l-102 319h-510l-101 -319h-350l522 1434h383zM897 567l-154.001 482c-11.333 36 -19.333 79 -24 129h-8c-3.33301 -42 -11.666 -83.667 -24.999 -125l-156 -486h367zM915.999 1567h-227l-314 323h281z" />
    <glyph glyph-name="Aacute" unicode="&#xc1;" horiz-adv-x="1440" 
d="M1425 0h-352l-102 319h-510l-101 -319h-350l522 1434h383zM897 567l-154.001 482c-11.333 36 -19.333 79 -24 129h-8c-3.33301 -42 -11.666 -83.667 -24.999 -125l-156 -486h367zM1036 1890l-313 -323h-228l260 323h281z" />
    <glyph glyph-name="Acircumflex" unicode="&#xc2;" horiz-adv-x="1440" 
d="M1425 0h-352l-102 319h-510l-101 -319h-350l522 1434h383zM897 567l-154.001 482c-11.333 36 -19.333 79 -24 129h-8c-3.33301 -42 -11.666 -83.667 -24.999 -125l-156 -486h367zM1078 1567h-207l-158 188l-147 -188h-207l235 325h248z" />
    <glyph glyph-name="Atilde" unicode="&#xc3;" horiz-adv-x="1440" 
d="M1425 0h-352l-102 319h-510l-101 -319h-350l522 1434h383zM897 567l-154.001 482c-11.333 36 -19.333 79 -24 129h-8c-3.33301 -42 -11.666 -83.667 -24.999 -125l-156 -486h367zM1077 1878c0 -93.333 -18.5 -165.5 -55.5 -216.5s-87.5 -76.5 -151.5 -76.5
c-57.333 0 -113.333 14.333 -168 43c-59.333 31.333 -100.333 47 -123 47c-53.333 0 -80 -36 -80 -108h-141c0 92.667 18.333 164.667 55 216s88 77 154 77c54 0 110 -16.333 168 -49c52.667 -29.333 92.667 -44 120 -44c52 0 78 37 78 111h144z" />
    </font>
</defs>
</svg>
